<?xml version="1.0" encoding="UTF-8" standalone="no"?>
<!DOCTYPE svg PUBLIC "-//W3C//DTD SVG 1.1//EN"
 "http://www.w3.org/Graphics/SVG/1.1/DTD/svg11.dtd">
<!-- Generated by graphviz version 2.47.3 (20210619.1520)
 -->
<!-- Title: dependencies Pages: 1 -->
<svg width="178pt" height="312pt"
 viewBox="0.00 0.00 178.00 311.80" xmlns="http://www.w3.org/2000/svg" xmlns:xlink="http://www.w3.org/1999/xlink">
<g id="graph0" class="graph" transform="scale(1 1) rotate(0) translate(4 307.8)">
<title>dependencies</title>
<polygon fill="white" stroke="transparent" points="-4,4 -4,-307.8 174,-307.8 174,4 -4,4"/>
<text text-anchor="middle" x="85" y="-8.2" font-family="sans-serif" font-size="14.00">dependencies</text>
<g id="clust1" class="cluster">
<title>cluster_ChartModule</title>
<polygon fill="none" stroke="black" stroke-dasharray="1,5" points="8,-32.8 8,-295.8 162,-295.8 162,-32.8 8,-32.8"/>
</g>
<g id="clust3" class="cluster">
<title>cluster_ChartModule_ChartDirective_providers</title>
<polygon fill="none" stroke="black" points="16,-40.8 16,-157.8 154,-157.8 154,-40.8 16,-40.8"/>
</g>
<g id="clust5" class="cluster">
<title>cluster_ChartModule_exports</title>
<polygon fill="none" stroke="black" points="20,-235.8 20,-287.8 138,-287.8 138,-235.8 20,-235.8"/>
</g>
<!-- ChartDirective -->
<g id="node1" class="node">
<title>ChartDirective</title>
<polygon fill="#ffffb3" stroke="black" points="126.69,-149.8 27.31,-149.8 27.31,-113.8 126.69,-113.8 126.69,-149.8"/>
<text text-anchor="middle" x="77" y="-127.6" font-family="Times,serif" font-size="14.00">ChartDirective</text>
</g>
<!-- ChartModule -->
<g id="node2" class="node">
<title>ChartModule</title>
<polygon fill="#8dd3c7" stroke="black" points="124.15,-214.8 121.15,-218.8 100.15,-218.8 97.15,-214.8 33.85,-214.8 33.85,-178.8 124.15,-178.8 124.15,-214.8"/>
<text text-anchor="middle" x="79" y="-192.6" font-family="Times,serif" font-size="14.00">ChartModule</text>
</g>
<!-- ChartDirective&#45;&gt;ChartModule -->
<g id="edge1" class="edge">
<title>ChartDirective&#45;&gt;ChartModule</title>
<path fill="none" stroke="black" d="M79,-149.91C79,-149.91 79,-168.79 79,-168.79"/>
<polygon fill="black" stroke="black" points="75.5,-168.79 79,-178.79 82.5,-168.79 75.5,-168.79"/>
</g>
<!-- ChartDirective  -->
<g id="node4" class="node">
<title>ChartDirective </title>
<polygon fill="#fb8072" stroke="black" points="130.19,-279.8 27.81,-279.8 27.81,-243.8 130.19,-243.8 130.19,-279.8"/>
<text text-anchor="middle" x="79" y="-257.6" font-family="Times,serif" font-size="14.00">ChartDirective </text>
</g>
<!-- ChartModule&#45;&gt;ChartDirective  -->
<g id="edge3" class="edge">
<title>ChartModule&#45;&gt;ChartDirective </title>
<path fill="none" stroke="black" stroke-dasharray="5,2" d="M79,-214.91C79,-214.91 79,-233.79 79,-233.79"/>
<polygon fill="black" stroke="black" points="75.5,-233.79 79,-243.79 82.5,-233.79 75.5,-233.79"/>
</g>
<!-- ChartService -->
<g id="node3" class="node">
<title>ChartService</title>
<ellipse fill="#fdb462" stroke="black" cx="85" cy="-66.8" rx="61.39" ry="18"/>
<text text-anchor="middle" x="85" y="-62.6" font-family="Times,serif" font-size="14.00">ChartService</text>
</g>
<!-- ChartService&#45;&gt;ChartDirective -->
<g id="edge2" class="edge">
<title>ChartService&#45;&gt;ChartDirective</title>
<path fill="none" stroke="black" d="M77,-84.91C77,-84.91 77,-103.79 77,-103.79"/>
<polygon fill="black" stroke="black" points="73.5,-103.79 77,-113.79 80.5,-103.79 73.5,-103.79"/>
</g>
<!-- ChartService&#45;&gt;ChartModule -->
<g id="edge4" class="edge">
<title>ChartService&#45;&gt;ChartModule</title>
<path fill="none" stroke="black" d="M138.39,-75.74C138.39,-105.11 138.39,-196.8 138.39,-196.8 138.39,-196.8 134.32,-196.8 134.32,-196.8"/>
<polygon fill="black" stroke="black" points="134.32,-193.3 124.32,-196.8 134.32,-200.3 134.32,-193.3"/>
</g>
</g>
</svg>
