<?xml version="1.0" encoding="UTF-8" standalone="no"?>
<!DOCTYPE svg PUBLIC "-//W3C//DTD SVG 1.1//EN"
 "http://www.w3.org/Graphics/SVG/1.1/DTD/svg11.dtd">
<!-- Generated by graphviz version 2.47.3 (20210619.1520)
 -->
<!-- Title: dependencies Pages: 1 -->
<svg width="1471pt" height="174pt"
 viewBox="0.00 0.00 1471.00 173.80" xmlns="http://www.w3.org/2000/svg" xmlns:xlink="http://www.w3.org/1999/xlink">
<g id="graph0" class="graph" transform="scale(1 1) rotate(0) translate(4 169.8)">
<title>dependencies</title>
<polygon fill="white" stroke="transparent" points="-4,4 -4,-169.8 1467,-169.8 1467,4 -4,4"/>
<text text-anchor="middle" x="731.5" y="-8.2" font-family="sans-serif" font-size="14.00">dependencies</text>
<g id="clust1" class="cluster">
<title>cluster_WalletModule</title>
<polygon fill="none" stroke="black" stroke-dasharray="1,5" points="8,-32.8 8,-157.8 1455,-157.8 1455,-32.8 8,-32.8"/>
</g>
<g id="clust12" class="cluster">
<title>cluster_WalletModule_imports</title>
<polygon fill="none" stroke="black" points="1319,-40.8 1319,-92.8 1447,-92.8 1447,-40.8 1319,-40.8"/>
</g>
<g id="clust2" class="cluster">
<title>cluster_WalletModule_declarations</title>
<polygon fill="none" stroke="black" points="16,-40.8 16,-92.8 1311,-92.8 1311,-40.8 16,-40.8"/>
</g>
<!-- AddComponent -->
<g id="node1" class="node">
<title>AddComponent</title>
<polygon fill="#ffffb3" stroke="black" points="1302.94,-84.8 1197.06,-84.8 1197.06,-48.8 1302.94,-48.8 1302.94,-84.8"/>
<text text-anchor="middle" x="1250" y="-62.6" font-family="Times,serif" font-size="14.00">AddComponent</text>
</g>
<!-- WalletModule -->
<g id="node10" class="node">
<title>WalletModule</title>
<polygon fill="#8dd3c7" stroke="black" points="825.37,-149.8 822.37,-153.8 801.37,-153.8 798.37,-149.8 728.63,-149.8 728.63,-113.8 825.37,-113.8 825.37,-149.8"/>
<text text-anchor="middle" x="777" y="-127.6" font-family="Times,serif" font-size="14.00">WalletModule</text>
</g>
<!-- AddComponent&#45;&gt;WalletModule -->
<g id="edge1" class="edge">
<title>AddComponent&#45;&gt;WalletModule</title>
<path fill="none" stroke="black" d="M1250,-84.93C1250,-105.37 1250,-135.8 1250,-135.8 1250,-135.8 835.4,-135.8 835.4,-135.8"/>
<polygon fill="black" stroke="black" points="835.4,-132.3 825.4,-135.8 835.4,-139.3 835.4,-132.3"/>
</g>
<!-- DetailsComponent -->
<g id="node2" class="node">
<title>DetailsComponent</title>
<polygon fill="#ffffb3" stroke="black" points="1179.48,-84.8 1058.52,-84.8 1058.52,-48.8 1179.48,-48.8 1179.48,-84.8"/>
<text text-anchor="middle" x="1119" y="-62.6" font-family="Times,serif" font-size="14.00">DetailsComponent</text>
</g>
<!-- DetailsComponent&#45;&gt;WalletModule -->
<g id="edge2" class="edge">
<title>DetailsComponent&#45;&gt;WalletModule</title>
<path fill="none" stroke="black" d="M1119,-85.07C1119,-103.36 1119,-128.8 1119,-128.8 1119,-128.8 835.64,-128.8 835.64,-128.8"/>
<polygon fill="black" stroke="black" points="835.64,-125.3 825.64,-128.8 835.64,-132.3 835.64,-125.3"/>
</g>
<!-- OpenComponent -->
<g id="node3" class="node">
<title>OpenComponent</title>
<polygon fill="#ffffb3" stroke="black" points="1040.65,-84.8 929.35,-84.8 929.35,-48.8 1040.65,-48.8 1040.65,-84.8"/>
<text text-anchor="middle" x="985" y="-62.6" font-family="Times,serif" font-size="14.00">OpenComponent</text>
</g>
<!-- OpenComponent&#45;&gt;WalletModule -->
<g id="edge3" class="edge">
<title>OpenComponent&#45;&gt;WalletModule</title>
<path fill="none" stroke="black" d="M985,-84.81C985,-100.85 985,-121.8 985,-121.8 985,-121.8 835.5,-121.8 835.5,-121.8"/>
<polygon fill="black" stroke="black" points="835.5,-118.3 825.5,-121.8 835.5,-125.3 835.5,-118.3"/>
</g>
<!-- RestoreComponent -->
<g id="node4" class="node">
<title>RestoreComponent</title>
<polygon fill="#ffffb3" stroke="black" points="911.09,-84.8 786.91,-84.8 786.91,-48.8 911.09,-48.8 911.09,-84.8"/>
<text text-anchor="middle" x="849" y="-62.6" font-family="Times,serif" font-size="14.00">RestoreComponent</text>
</g>
<!-- RestoreComponent&#45;&gt;WalletModule -->
<g id="edge4" class="edge">
<title>RestoreComponent&#45;&gt;WalletModule</title>
<path fill="none" stroke="black" d="M806.19,-84.91C806.19,-84.91 806.19,-103.79 806.19,-103.79"/>
<polygon fill="black" stroke="black" points="802.69,-103.79 806.19,-113.79 809.69,-103.79 802.69,-103.79"/>
</g>
<!-- SettingsComponent -->
<g id="node5" class="node">
<title>SettingsComponent</title>
<polygon fill="#ffffb3" stroke="black" points="769.45,-84.8 642.55,-84.8 642.55,-48.8 769.45,-48.8 769.45,-84.8"/>
<text text-anchor="middle" x="706" y="-62.6" font-family="Times,serif" font-size="14.00">SettingsComponent</text>
</g>
<!-- SettingsComponent&#45;&gt;WalletModule -->
<g id="edge5" class="edge">
<title>SettingsComponent&#45;&gt;WalletModule</title>
<path fill="none" stroke="black" d="M748.9,-84.91C748.9,-84.91 748.9,-103.79 748.9,-103.79"/>
<polygon fill="black" stroke="black" points="745.4,-103.79 748.9,-113.79 752.4,-103.79 745.4,-103.79"/>
</g>
<!-- TransactionsComponent -->
<g id="node6" class="node">
<title>TransactionsComponent</title>
<polygon fill="#ffffb3" stroke="black" points="624.36,-84.8 471.64,-84.8 471.64,-48.8 624.36,-48.8 624.36,-84.8"/>
<text text-anchor="middle" x="548" y="-62.6" font-family="Times,serif" font-size="14.00">TransactionsComponent</text>
</g>
<!-- TransactionsComponent&#45;&gt;WalletModule -->
<g id="edge6" class="edge">
<title>TransactionsComponent&#45;&gt;WalletModule</title>
<path fill="none" stroke="black" d="M548,-84.81C548,-100.85 548,-121.8 548,-121.8 548,-121.8 718.43,-121.8 718.43,-121.8"/>
<polygon fill="black" stroke="black" points="718.44,-125.3 728.43,-121.8 718.43,-118.3 718.44,-125.3"/>
</g>
<!-- TransferComponent -->
<g id="node7" class="node">
<title>TransferComponent</title>
<polygon fill="#ffffb3" stroke="black" points="453.24,-84.8 324.76,-84.8 324.76,-48.8 453.24,-48.8 453.24,-84.8"/>
<text text-anchor="middle" x="389" y="-62.6" font-family="Times,serif" font-size="14.00">TransferComponent</text>
</g>
<!-- TransferComponent&#45;&gt;WalletModule -->
<g id="edge7" class="edge">
<title>TransferComponent&#45;&gt;WalletModule</title>
<path fill="none" stroke="black" d="M389,-85.07C389,-103.36 389,-128.8 389,-128.8 389,-128.8 718.25,-128.8 718.25,-128.8"/>
<polygon fill="black" stroke="black" points="718.25,-132.3 728.25,-128.8 718.25,-125.3 718.25,-132.3"/>
</g>
<!-- WalletComponent -->
<g id="node8" class="node">
<title>WalletComponent</title>
<polygon fill="#ffffb3" stroke="black" points="306.15,-84.8 187.85,-84.8 187.85,-48.8 306.15,-48.8 306.15,-84.8"/>
<text text-anchor="middle" x="247" y="-62.6" font-family="Times,serif" font-size="14.00">WalletComponent</text>
</g>
<!-- WalletComponent&#45;&gt;WalletModule -->
<g id="edge8" class="edge">
<title>WalletComponent&#45;&gt;WalletModule</title>
<path fill="none" stroke="black" d="M247,-84.93C247,-105.37 247,-135.8 247,-135.8 247,-135.8 718.56,-135.8 718.56,-135.8"/>
<polygon fill="black" stroke="black" points="718.56,-139.3 728.56,-135.8 718.56,-132.3 718.56,-139.3"/>
</g>
<!-- WalletNewComponent -->
<g id="node9" class="node">
<title>WalletNewComponent</title>
<polygon fill="#ffffb3" stroke="black" points="169.58,-84.8 24.42,-84.8 24.42,-48.8 169.58,-48.8 169.58,-84.8"/>
<text text-anchor="middle" x="97" y="-62.6" font-family="Times,serif" font-size="14.00">WalletNewComponent</text>
</g>
<!-- WalletNewComponent&#45;&gt;WalletModule -->
<g id="edge9" class="edge">
<title>WalletNewComponent&#45;&gt;WalletModule</title>
<path fill="none" stroke="black" d="M97,-84.81C97,-107.29 97,-142.8 97,-142.8 97,-142.8 718.37,-142.8 718.37,-142.8"/>
<polygon fill="black" stroke="black" points="718.37,-146.3 728.37,-142.8 718.37,-139.3 718.37,-146.3"/>
</g>
<!-- TranslateModule -->
<g id="node11" class="node">
<title>TranslateModule</title>
<polygon fill="#8dd3c7" stroke="black" points="1438.63,-84.8 1435.63,-88.8 1414.63,-88.8 1411.63,-84.8 1327.37,-84.8 1327.37,-48.8 1438.63,-48.8 1438.63,-84.8"/>
<text text-anchor="middle" x="1383" y="-62.6" font-family="Times,serif" font-size="14.00">TranslateModule</text>
</g>
<!-- TranslateModule&#45;&gt;WalletModule -->
<g id="edge10" class="edge">
<title>TranslateModule&#45;&gt;WalletModule</title>
<path fill="none" stroke="black" d="M1383,-84.81C1383,-107.29 1383,-142.8 1383,-142.8 1383,-142.8 835.57,-142.8 835.57,-142.8"/>
<polygon fill="black" stroke="black" points="835.57,-139.3 825.57,-142.8 835.57,-146.3 835.57,-139.3"/>
</g>
</g>
</svg>
