<?xml version="1.0" encoding="UTF-8" standalone="no"?>
<!DOCTYPE svg PUBLIC "-//W3C//DTD SVG 1.1//EN"
 "http://www.w3.org/Graphics/SVG/1.1/DTD/svg11.dtd">
<!-- Generated by graphviz version 2.47.3 (20210619.1520)
 -->
<!-- Title: dependencies Pages: 1 -->
<svg width="1471pt" height="174pt"
 viewBox="0.00 0.00 1471.00 173.80" xmlns="http://www.w3.org/2000/svg" xmlns:xlink="http://www.w3.org/1999/xlink">
<g id="graph0" class="graph" transform="scale(1 1) rotate(0) translate(4 169.8)">
<title>dependencies</title>
<polygon fill="white" stroke="transparent" points="-4,4 -4,-169.8 1467,-169.8 1467,4 -4,4"/>
<text text-anchor="middle" x="731.5" y="-8.2" font-family="sans-serif" font-size="14.00">dependencies</text>
<g id="clust1" class="cluster">
<title>cluster_WalletModule</title>
<polygon fill="none" stroke="black" stroke-dasharray="1,5" points="8,-32.8 8,-157.8 1455,-157.8 1455,-32.8 8,-32.8"/>
</g>
<g id="clust2" class="cluster">
<title>cluster_WalletModule_declarations</title>
<polygon fill="none" stroke="black" points="152,-40.8 152,-92.8 1447,-92.8 1447,-40.8 152,-40.8"/>
</g>
<g id="clust12" class="cluster">
<title>cluster_WalletModule_imports</title>
<polygon fill="none" stroke="black" points="16,-40.8 16,-92.8 144,-92.8 144,-40.8 16,-40.8"/>
</g>
<!-- AddComponent -->
<g id="node1" class="node">
<title>AddComponent</title>
<polygon fill="#ffffb3" stroke="black" points="1438.94,-84.8 1333.06,-84.8 1333.06,-48.8 1438.94,-48.8 1438.94,-84.8"/>
<text text-anchor="middle" x="1386" y="-62.6" font-family="Times,serif" font-size="14.00">AddComponent</text>
</g>
<!-- WalletModule -->
<g id="node10" class="node">
<title>WalletModule</title>
<polygon fill="#8dd3c7" stroke="black" points="811.37,-149.8 808.37,-153.8 787.37,-153.8 784.37,-149.8 714.63,-149.8 714.63,-113.8 811.37,-113.8 811.37,-149.8"/>
<text text-anchor="middle" x="763" y="-127.6" font-family="Times,serif" font-size="14.00">WalletModule</text>
</g>
<!-- AddComponent&#45;&gt;WalletModule -->
<g id="edge1" class="edge">
<title>AddComponent&#45;&gt;WalletModule</title>
<path fill="none" stroke="black" d="M1386,-84.81C1386,-107.29 1386,-142.8 1386,-142.8 1386,-142.8 821.37,-142.8 821.37,-142.8"/>
<polygon fill="black" stroke="black" points="821.37,-139.3 811.37,-142.8 821.37,-146.3 821.37,-139.3"/>
</g>
<!-- DetailsComponent -->
<g id="node2" class="node">
<title>DetailsComponent</title>
<polygon fill="#ffffb3" stroke="black" points="1315.48,-84.8 1194.52,-84.8 1194.52,-48.8 1315.48,-48.8 1315.48,-84.8"/>
<text text-anchor="middle" x="1255" y="-62.6" font-family="Times,serif" font-size="14.00">DetailsComponent</text>
</g>
<!-- DetailsComponent&#45;&gt;WalletModule -->
<g id="edge2" class="edge">
<title>DetailsComponent&#45;&gt;WalletModule</title>
<path fill="none" stroke="black" d="M1255,-84.93C1255,-105.37 1255,-135.8 1255,-135.8 1255,-135.8 821.52,-135.8 821.52,-135.8"/>
<polygon fill="black" stroke="black" points="821.52,-132.3 811.52,-135.8 821.52,-139.3 821.52,-132.3"/>
</g>
<!-- OpenComponent -->
<g id="node3" class="node">
<title>OpenComponent</title>
<polygon fill="#ffffb3" stroke="black" points="1176.65,-84.8 1065.35,-84.8 1065.35,-48.8 1176.65,-48.8 1176.65,-84.8"/>
<text text-anchor="middle" x="1121" y="-62.6" font-family="Times,serif" font-size="14.00">OpenComponent</text>
</g>
<!-- OpenComponent&#45;&gt;WalletModule -->
<g id="edge3" class="edge">
<title>OpenComponent&#45;&gt;WalletModule</title>
<path fill="none" stroke="black" d="M1121,-85.07C1121,-103.36 1121,-128.8 1121,-128.8 1121,-128.8 821.65,-128.8 821.65,-128.8"/>
<polygon fill="black" stroke="black" points="821.65,-125.3 811.65,-128.8 821.65,-132.3 821.65,-125.3"/>
</g>
<!-- RestoreComponent -->
<g id="node4" class="node">
<title>RestoreComponent</title>
<polygon fill="#ffffb3" stroke="black" points="1047.09,-84.8 922.91,-84.8 922.91,-48.8 1047.09,-48.8 1047.09,-84.8"/>
<text text-anchor="middle" x="985" y="-62.6" font-family="Times,serif" font-size="14.00">RestoreComponent</text>
</g>
<!-- RestoreComponent&#45;&gt;WalletModule -->
<g id="edge4" class="edge">
<title>RestoreComponent&#45;&gt;WalletModule</title>
<path fill="none" stroke="black" d="M985,-84.81C985,-100.85 985,-121.8 985,-121.8 985,-121.8 821.44,-121.8 821.44,-121.8"/>
<polygon fill="black" stroke="black" points="821.44,-118.3 811.44,-121.8 821.44,-125.3 821.44,-118.3"/>
</g>
<!-- SettingsComponent -->
<g id="node5" class="node">
<title>SettingsComponent</title>
<polygon fill="#ffffb3" stroke="black" points="905.45,-84.8 778.55,-84.8 778.55,-48.8 905.45,-48.8 905.45,-84.8"/>
<text text-anchor="middle" x="842" y="-62.6" font-family="Times,serif" font-size="14.00">SettingsComponent</text>
</g>
<!-- SettingsComponent&#45;&gt;WalletModule -->
<g id="edge5" class="edge">
<title>SettingsComponent&#45;&gt;WalletModule</title>
<path fill="none" stroke="black" d="M795.1,-84.91C795.1,-84.91 795.1,-103.79 795.1,-103.79"/>
<polygon fill="black" stroke="black" points="791.6,-103.79 795.1,-113.79 798.6,-103.79 791.6,-103.79"/>
</g>
<!-- TransactionsComponent -->
<g id="node6" class="node">
<title>TransactionsComponent</title>
<polygon fill="#ffffb3" stroke="black" points="760.36,-84.8 607.64,-84.8 607.64,-48.8 760.36,-48.8 760.36,-84.8"/>
<text text-anchor="middle" x="684" y="-62.6" font-family="Times,serif" font-size="14.00">TransactionsComponent</text>
</g>
<!-- TransactionsComponent&#45;&gt;WalletModule -->
<g id="edge6" class="edge">
<title>TransactionsComponent&#45;&gt;WalletModule</title>
<path fill="none" stroke="black" d="M737.5,-84.91C737.5,-84.91 737.5,-103.79 737.5,-103.79"/>
<polygon fill="black" stroke="black" points="734,-103.79 737.5,-113.79 741,-103.79 734,-103.79"/>
</g>
<!-- TransferComponent -->
<g id="node7" class="node">
<title>TransferComponent</title>
<polygon fill="#ffffb3" stroke="black" points="589.24,-84.8 460.76,-84.8 460.76,-48.8 589.24,-48.8 589.24,-84.8"/>
<text text-anchor="middle" x="525" y="-62.6" font-family="Times,serif" font-size="14.00">TransferComponent</text>
</g>
<!-- TransferComponent&#45;&gt;WalletModule -->
<g id="edge7" class="edge">
<title>TransferComponent&#45;&gt;WalletModule</title>
<path fill="none" stroke="black" d="M525,-84.81C525,-100.85 525,-121.8 525,-121.8 525,-121.8 704.55,-121.8 704.55,-121.8"/>
<polygon fill="black" stroke="black" points="704.55,-125.3 714.55,-121.8 704.55,-118.3 704.55,-125.3"/>
</g>
<!-- WalletComponent -->
<g id="node8" class="node">
<title>WalletComponent</title>
<polygon fill="#ffffb3" stroke="black" points="442.15,-84.8 323.85,-84.8 323.85,-48.8 442.15,-48.8 442.15,-84.8"/>
<text text-anchor="middle" x="383" y="-62.6" font-family="Times,serif" font-size="14.00">WalletComponent</text>
</g>
<!-- WalletComponent&#45;&gt;WalletModule -->
<g id="edge8" class="edge">
<title>WalletComponent&#45;&gt;WalletModule</title>
<path fill="none" stroke="black" d="M383,-85.07C383,-103.36 383,-128.8 383,-128.8 383,-128.8 704.49,-128.8 704.49,-128.8"/>
<polygon fill="black" stroke="black" points="704.49,-132.3 714.49,-128.8 704.49,-125.3 704.49,-132.3"/>
</g>
<!-- WalletNewComponent -->
<g id="node9" class="node">
<title>WalletNewComponent</title>
<polygon fill="#ffffb3" stroke="black" points="305.58,-84.8 160.42,-84.8 160.42,-48.8 305.58,-48.8 305.58,-84.8"/>
<text text-anchor="middle" x="233" y="-62.6" font-family="Times,serif" font-size="14.00">WalletNewComponent</text>
</g>
<!-- WalletNewComponent&#45;&gt;WalletModule -->
<g id="edge9" class="edge">
<title>WalletNewComponent&#45;&gt;WalletModule</title>
<path fill="none" stroke="black" d="M233,-84.93C233,-105.37 233,-135.8 233,-135.8 233,-135.8 704.56,-135.8 704.56,-135.8"/>
<polygon fill="black" stroke="black" points="704.56,-139.3 714.56,-135.8 704.56,-132.3 704.56,-139.3"/>
</g>
<!-- TranslateModule -->
<g id="node11" class="node">
<title>TranslateModule</title>
<polygon fill="#8dd3c7" stroke="black" points="135.63,-84.8 132.63,-88.8 111.63,-88.8 108.63,-84.8 24.37,-84.8 24.37,-48.8 135.63,-48.8 135.63,-84.8"/>
<text text-anchor="middle" x="80" y="-62.6" font-family="Times,serif" font-size="14.00">TranslateModule</text>
</g>
<!-- TranslateModule&#45;&gt;WalletModule -->
<g id="edge10" class="edge">
<title>TranslateModule&#45;&gt;WalletModule</title>
<path fill="none" stroke="black" d="M80,-84.81C80,-107.29 80,-142.8 80,-142.8 80,-142.8 704.43,-142.8 704.43,-142.8"/>
<polygon fill="black" stroke="black" points="704.43,-146.3 714.43,-142.8 704.43,-139.3 704.43,-146.3"/>
</g>
</g>
</svg>
