<?xml version="1.0" encoding="UTF-8" standalone="no"?>
<!DOCTYPE svg PUBLIC "-//W3C//DTD SVG 1.1//EN"
 "http://www.w3.org/Graphics/SVG/1.1/DTD/svg11.dtd">
<!-- Generated by graphviz version 2.47.3 (20210619.1520)
 -->
<!-- Title: dependencies Pages: 1 -->
<svg width="1003pt" height="247pt"
 viewBox="0.00 0.00 1003.00 246.80" xmlns="http://www.w3.org/2000/svg" xmlns:xlink="http://www.w3.org/1999/xlink">
<g id="graph0" class="graph" transform="scale(1 1) rotate(0) translate(4 242.8)">
<title>dependencies</title>
<polygon fill="white" stroke="transparent" points="-4,4 -4,-242.8 999,-242.8 999,4 -4,4"/>
<text text-anchor="middle" x="497.5" y="-8.2" font-family="sans-serif" font-size="14.00">dependencies</text>
<g id="clust1" class="cluster">
<title>cluster_WalletModule</title>
<polygon fill="none" stroke="black" stroke-dasharray="1,5" points="8,-32.8 8,-230.8 987,-230.8 987,-32.8 8,-32.8"/>
</g>
<g id="clust9" class="cluster">
<title>cluster_WalletModule_imports</title>
<polygon fill="none" stroke="black" points="851,-40.8 851,-92.8 979,-92.8 979,-40.8 851,-40.8"/>
</g>
<g id="clust2" class="cluster">
<title>cluster_WalletModule_declarations</title>
<polygon fill="none" stroke="black" points="16,-40.8 16,-92.8 843,-92.8 843,-40.8 16,-40.8"/>
</g>
<g id="clust10" class="cluster">
<title>cluster_WalletModule_exports</title>
<polygon fill="none" stroke="black" points="144,-170.8 144,-222.8 850,-222.8 850,-170.8 144,-170.8"/>
</g>
<!-- AddComponent -->
<g id="node1" class="node">
<title>AddComponent</title>
<polygon fill="#ffffb3" stroke="black" points="834.94,-84.8 729.06,-84.8 729.06,-48.8 834.94,-48.8 834.94,-84.8"/>
<text text-anchor="middle" x="782" y="-62.6" font-family="Times,serif" font-size="14.00">AddComponent</text>
</g>
<!-- WalletModule -->
<g id="node7" class="node">
<title>WalletModule</title>
<polygon fill="#8dd3c7" stroke="black" points="577.37,-149.8 574.37,-153.8 553.37,-153.8 550.37,-149.8 480.63,-149.8 480.63,-113.8 577.37,-113.8 577.37,-149.8"/>
<text text-anchor="middle" x="529" y="-127.6" font-family="Times,serif" font-size="14.00">WalletModule</text>
</g>
<!-- AddComponent&#45;&gt;WalletModule -->
<g id="edge1" class="edge">
<title>AddComponent&#45;&gt;WalletModule</title>
<path fill="none" stroke="black" d="M800.99,-84.82C800.99,-102.17 800.99,-125.8 800.99,-125.8 800.99,-125.8 587.63,-125.8 587.63,-125.8"/>
<polygon fill="black" stroke="black" points="587.63,-122.3 577.63,-125.8 587.63,-129.3 587.63,-122.3"/>
</g>
<!-- NewComponent -->
<g id="node2" class="node">
<title>NewComponent</title>
<polygon fill="#ffffb3" stroke="black" points="710.76,-84.8 603.24,-84.8 603.24,-48.8 710.76,-48.8 710.76,-84.8"/>
<text text-anchor="middle" x="657" y="-62.6" font-family="Times,serif" font-size="14.00">NewComponent</text>
</g>
<!-- NewComponent&#45;&gt;WalletModule -->
<g id="edge2" class="edge">
<title>NewComponent&#45;&gt;WalletModule</title>
<path fill="none" stroke="black" d="M675.38,-85.04C675.38,-100.37 675.38,-119.8 675.38,-119.8 675.38,-119.8 587.74,-119.8 587.74,-119.8"/>
<polygon fill="black" stroke="black" points="587.74,-116.3 577.74,-119.8 587.74,-123.3 587.74,-116.3"/>
</g>
<!-- OpenComponent -->
<g id="node3" class="node">
<title>OpenComponent</title>
<polygon fill="#ffffb3" stroke="black" points="584.65,-84.8 473.35,-84.8 473.35,-48.8 584.65,-48.8 584.65,-84.8"/>
<text text-anchor="middle" x="529" y="-62.6" font-family="Times,serif" font-size="14.00">OpenComponent</text>
</g>
<!-- OpenComponent&#45;&gt;WalletModule -->
<g id="edge3" class="edge">
<title>OpenComponent&#45;&gt;WalletModule</title>
<path fill="none" stroke="black" d="M529,-84.91C529,-84.91 529,-103.79 529,-103.79"/>
<polygon fill="black" stroke="black" points="525.5,-103.79 529,-113.79 532.5,-103.79 525.5,-103.79"/>
</g>
<!-- RestoreComponent -->
<g id="node4" class="node">
<title>RestoreComponent</title>
<polygon fill="#ffffb3" stroke="black" points="455.09,-84.8 330.91,-84.8 330.91,-48.8 455.09,-48.8 455.09,-84.8"/>
<text text-anchor="middle" x="393" y="-62.6" font-family="Times,serif" font-size="14.00">RestoreComponent</text>
</g>
<!-- RestoreComponent&#45;&gt;WalletModule -->
<g id="edge4" class="edge">
<title>RestoreComponent&#45;&gt;WalletModule</title>
<path fill="none" stroke="black" d="M412.85,-85.04C412.85,-100.37 412.85,-119.8 412.85,-119.8 412.85,-119.8 470.41,-119.8 470.41,-119.8"/>
<polygon fill="black" stroke="black" points="470.41,-123.3 480.41,-119.8 470.41,-116.3 470.41,-123.3"/>
</g>
<!-- TransactionsComponent -->
<g id="node5" class="node">
<title>TransactionsComponent</title>
<polygon fill="#ffffb3" stroke="black" points="313.36,-84.8 160.64,-84.8 160.64,-48.8 313.36,-48.8 313.36,-84.8"/>
<text text-anchor="middle" x="237" y="-62.6" font-family="Times,serif" font-size="14.00">TransactionsComponent</text>
</g>
<!-- TransactionsComponent&#45;&gt;WalletModule -->
<g id="edge5" class="edge">
<title>TransactionsComponent&#45;&gt;WalletModule</title>
<path fill="none" stroke="black" d="M258.98,-84.82C258.98,-102.17 258.98,-125.8 258.98,-125.8 258.98,-125.8 470.41,-125.8 470.41,-125.8"/>
<polygon fill="black" stroke="black" points="470.41,-129.3 480.41,-125.8 470.41,-122.3 470.41,-129.3"/>
</g>
<!-- WalletComponent -->
<g id="node6" class="node">
<title>WalletComponent</title>
<polygon fill="#ffffb3" stroke="black" points="142.15,-84.8 23.85,-84.8 23.85,-48.8 142.15,-48.8 142.15,-84.8"/>
<text text-anchor="middle" x="83" y="-62.6" font-family="Times,serif" font-size="14.00">WalletComponent</text>
</g>
<!-- WalletComponent&#45;&gt;WalletModule -->
<g id="edge6" class="edge">
<title>WalletComponent&#45;&gt;WalletModule</title>
<path fill="none" stroke="black" d="M83,-84.91C83,-104.14 83,-131.8 83,-131.8 83,-131.8 470.42,-131.8 470.42,-131.8"/>
<polygon fill="black" stroke="black" points="470.42,-135.3 480.42,-131.8 470.42,-128.3 470.42,-135.3"/>
</g>
<!-- AddComponent  -->
<g id="node9" class="node">
<title>AddComponent </title>
<polygon fill="#fb8072" stroke="black" points="842.44,-214.8 733.56,-214.8 733.56,-178.8 842.44,-178.8 842.44,-214.8"/>
<text text-anchor="middle" x="788" y="-192.6" font-family="Times,serif" font-size="14.00">AddComponent </text>
</g>
<!-- WalletModule&#45;&gt;AddComponent  -->
<g id="edge8" class="edge">
<title>WalletModule&#45;&gt;AddComponent </title>
<path fill="none" stroke="black" stroke-dasharray="5,2" d="M577.5,-137.8C647.17,-137.8 767.26,-137.8 767.26,-137.8 767.26,-137.8 767.26,-168.78 767.26,-168.78"/>
<polygon fill="black" stroke="black" points="763.76,-168.78 767.26,-178.78 770.76,-168.78 763.76,-168.78"/>
</g>
<!-- NewComponent  -->
<g id="node10" class="node">
<title>NewComponent </title>
<polygon fill="#fb8072" stroke="black" points="715.76,-214.8 604.24,-214.8 604.24,-178.8 715.76,-178.8 715.76,-214.8"/>
<text text-anchor="middle" x="660" y="-192.6" font-family="Times,serif" font-size="14.00">NewComponent </text>
</g>
<!-- WalletModule&#45;&gt;NewComponent  -->
<g id="edge9" class="edge">
<title>WalletModule&#45;&gt;NewComponent </title>
<path fill="none" stroke="black" stroke-dasharray="5,2" d="M577.63,-143.8C607.42,-143.8 639.87,-143.8 639.87,-143.8 639.87,-143.8 639.87,-168.56 639.87,-168.56"/>
<polygon fill="black" stroke="black" points="636.37,-168.56 639.87,-178.56 643.37,-168.56 636.37,-168.56"/>
</g>
<!-- OpenComponent  -->
<g id="node11" class="node">
<title>OpenComponent </title>
<polygon fill="#fb8072" stroke="black" points="586.65,-214.8 471.35,-214.8 471.35,-178.8 586.65,-178.8 586.65,-214.8"/>
<text text-anchor="middle" x="529" y="-192.6" font-family="Times,serif" font-size="14.00">OpenComponent </text>
</g>
<!-- WalletModule&#45;&gt;OpenComponent  -->
<g id="edge10" class="edge">
<title>WalletModule&#45;&gt;OpenComponent </title>
<path fill="none" stroke="black" stroke-dasharray="5,2" d="M529,-149.91C529,-149.91 529,-168.79 529,-168.79"/>
<polygon fill="black" stroke="black" points="525.5,-168.79 529,-178.79 532.5,-168.79 525.5,-168.79"/>
</g>
<!-- RestoreComponent  -->
<g id="node12" class="node">
<title>RestoreComponent </title>
<polygon fill="#fb8072" stroke="black" points="453.59,-214.8 326.41,-214.8 326.41,-178.8 453.59,-178.8 453.59,-214.8"/>
<text text-anchor="middle" x="390" y="-192.6" font-family="Times,serif" font-size="14.00">RestoreComponent </text>
</g>
<!-- WalletModule&#45;&gt;RestoreComponent  -->
<g id="edge11" class="edge">
<title>WalletModule&#45;&gt;RestoreComponent </title>
<path fill="none" stroke="black" stroke-dasharray="5,2" d="M480.58,-143.8C434.42,-143.8 371.9,-143.8 371.9,-143.8 371.9,-143.8 371.9,-168.56 371.9,-168.56"/>
<polygon fill="black" stroke="black" points="368.4,-168.56 371.9,-178.56 375.4,-168.56 368.4,-168.56"/>
</g>
<!-- TransactionsComponent  -->
<g id="node13" class="node">
<title>TransactionsComponent </title>
<polygon fill="#fb8072" stroke="black" points="308.36,-214.8 151.64,-214.8 151.64,-178.8 308.36,-178.8 308.36,-214.8"/>
<text text-anchor="middle" x="230" y="-192.6" font-family="Times,serif" font-size="14.00">TransactionsComponent </text>
</g>
<!-- WalletModule&#45;&gt;TransactionsComponent  -->
<g id="edge12" class="edge">
<title>WalletModule&#45;&gt;TransactionsComponent </title>
<path fill="none" stroke="black" stroke-dasharray="5,2" d="M480.52,-137.8C391.21,-137.8 209.77,-137.8 209.77,-137.8 209.77,-137.8 209.77,-168.78 209.77,-168.78"/>
<polygon fill="black" stroke="black" points="206.27,-168.78 209.77,-178.78 213.27,-168.78 206.27,-168.78"/>
</g>
<!-- TranslateModule -->
<g id="node8" class="node">
<title>TranslateModule</title>
<polygon fill="#8dd3c7" stroke="black" points="970.63,-84.8 967.63,-88.8 946.63,-88.8 943.63,-84.8 859.37,-84.8 859.37,-48.8 970.63,-48.8 970.63,-84.8"/>
<text text-anchor="middle" x="915" y="-62.6" font-family="Times,serif" font-size="14.00">TranslateModule</text>
</g>
<!-- TranslateModule&#45;&gt;WalletModule -->
<g id="edge7" class="edge">
<title>TranslateModule&#45;&gt;WalletModule</title>
<path fill="none" stroke="black" d="M915,-84.91C915,-104.14 915,-131.8 915,-131.8 915,-131.8 587.5,-131.8 587.5,-131.8"/>
<polygon fill="black" stroke="black" points="587.5,-128.3 577.5,-131.8 587.5,-135.3 587.5,-128.3"/>
</g>
</g>
</svg>
