<?xml version="1.0" encoding="UTF-8" standalone="no"?>
<!DOCTYPE svg PUBLIC "-//W3C//DTD SVG 1.1//EN"
 "http://www.w3.org/Graphics/SVG/1.1/DTD/svg11.dtd">
<!-- Generated by graphviz version 2.47.3 (20210619.1520)
 -->
<!-- Title: dependencies Pages: 1 -->
<svg width="1595pt" height="174pt"
 viewBox="0.00 0.00 1595.00 173.80" xmlns="http://www.w3.org/2000/svg" xmlns:xlink="http://www.w3.org/1999/xlink">
<g id="graph0" class="graph" transform="scale(1 1) rotate(0) translate(4 169.8)">
<title>dependencies</title>
<polygon fill="white" stroke="transparent" points="-4,4 -4,-169.8 1591,-169.8 1591,4 -4,4"/>
<text text-anchor="middle" x="793.5" y="-8.2" font-family="sans-serif" font-size="14.00">dependencies</text>
<g id="clust1" class="cluster">
<title>cluster_WalletModule</title>
<polygon fill="none" stroke="black" stroke-dasharray="1,5" points="8,-32.8 8,-157.8 1579,-157.8 1579,-32.8 8,-32.8"/>
</g>
<g id="clust12" class="cluster">
<title>cluster_WalletModule_imports</title>
<polygon fill="none" stroke="black" points="1319,-40.8 1319,-92.8 1571,-92.8 1571,-40.8 1319,-40.8"/>
</g>
<g id="clust2" class="cluster">
<title>cluster_WalletModule_declarations</title>
<polygon fill="none" stroke="black" points="16,-40.8 16,-92.8 1311,-92.8 1311,-40.8 16,-40.8"/>
</g>
<!-- AddComponent -->
<g id="node1" class="node">
<title>AddComponent</title>
<polygon fill="#ffffb3" stroke="black" points="1302.94,-84.8 1197.06,-84.8 1197.06,-48.8 1302.94,-48.8 1302.94,-84.8"/>
<text text-anchor="middle" x="1250" y="-62.6" font-family="Times,serif" font-size="14.00">AddComponent</text>
</g>
<!-- WalletModule -->
<g id="node10" class="node">
<title>WalletModule</title>
<polygon fill="#8dd3c7" stroke="black" points="897.37,-149.8 894.37,-153.8 873.37,-153.8 870.37,-149.8 800.63,-149.8 800.63,-113.8 897.37,-113.8 897.37,-149.8"/>
<text text-anchor="middle" x="849" y="-127.6" font-family="Times,serif" font-size="14.00">WalletModule</text>
</g>
<!-- AddComponent&#45;&gt;WalletModule -->
<g id="edge1" class="edge">
<title>AddComponent&#45;&gt;WalletModule</title>
<path fill="none" stroke="black" d="M1250,-84.91C1250,-104.14 1250,-131.8 1250,-131.8 1250,-131.8 907.37,-131.8 907.37,-131.8"/>
<polygon fill="black" stroke="black" points="907.37,-128.3 897.37,-131.8 907.37,-135.3 907.37,-128.3"/>
</g>
<!-- DetailsComponent -->
<g id="node2" class="node">
<title>DetailsComponent</title>
<polygon fill="#ffffb3" stroke="black" points="1179.48,-84.8 1058.52,-84.8 1058.52,-48.8 1179.48,-48.8 1179.48,-84.8"/>
<text text-anchor="middle" x="1119" y="-62.6" font-family="Times,serif" font-size="14.00">DetailsComponent</text>
</g>
<!-- DetailsComponent&#45;&gt;WalletModule -->
<g id="edge2" class="edge">
<title>DetailsComponent&#45;&gt;WalletModule</title>
<path fill="none" stroke="black" d="M1119,-84.82C1119,-102.17 1119,-125.8 1119,-125.8 1119,-125.8 907.58,-125.8 907.58,-125.8"/>
<polygon fill="black" stroke="black" points="907.58,-122.3 897.58,-125.8 907.58,-129.3 907.58,-122.3"/>
</g>
<!-- OpenComponent -->
<g id="node3" class="node">
<title>OpenComponent</title>
<polygon fill="#ffffb3" stroke="black" points="1040.65,-84.8 929.35,-84.8 929.35,-48.8 1040.65,-48.8 1040.65,-84.8"/>
<text text-anchor="middle" x="985" y="-62.6" font-family="Times,serif" font-size="14.00">OpenComponent</text>
</g>
<!-- OpenComponent&#45;&gt;WalletModule -->
<g id="edge3" class="edge">
<title>OpenComponent&#45;&gt;WalletModule</title>
<path fill="none" stroke="black" d="M985,-85.04C985,-100.37 985,-119.8 985,-119.8 985,-119.8 907.71,-119.8 907.71,-119.8"/>
<polygon fill="black" stroke="black" points="907.72,-116.3 897.71,-119.8 907.71,-123.3 907.72,-116.3"/>
</g>
<!-- RestoreComponent -->
<g id="node4" class="node">
<title>RestoreComponent</title>
<polygon fill="#ffffb3" stroke="black" points="911.09,-84.8 786.91,-84.8 786.91,-48.8 911.09,-48.8 911.09,-84.8"/>
<text text-anchor="middle" x="849" y="-62.6" font-family="Times,serif" font-size="14.00">RestoreComponent</text>
</g>
<!-- RestoreComponent&#45;&gt;WalletModule -->
<g id="edge4" class="edge">
<title>RestoreComponent&#45;&gt;WalletModule</title>
<path fill="none" stroke="black" d="M849,-84.91C849,-84.91 849,-103.79 849,-103.79"/>
<polygon fill="black" stroke="black" points="845.5,-103.79 849,-113.79 852.5,-103.79 845.5,-103.79"/>
</g>
<!-- SettingsComponent -->
<g id="node5" class="node">
<title>SettingsComponent</title>
<polygon fill="#ffffb3" stroke="black" points="769.45,-84.8 642.55,-84.8 642.55,-48.8 769.45,-48.8 769.45,-84.8"/>
<text text-anchor="middle" x="706" y="-62.6" font-family="Times,serif" font-size="14.00">SettingsComponent</text>
</g>
<!-- SettingsComponent&#45;&gt;WalletModule -->
<g id="edge5" class="edge">
<title>SettingsComponent&#45;&gt;WalletModule</title>
<path fill="none" stroke="black" d="M706,-85.04C706,-100.37 706,-119.8 706,-119.8 706,-119.8 790.59,-119.8 790.59,-119.8"/>
<polygon fill="black" stroke="black" points="790.59,-123.3 800.59,-119.8 790.59,-116.3 790.59,-123.3"/>
</g>
<!-- TransactionsComponent -->
<g id="node6" class="node">
<title>TransactionsComponent</title>
<polygon fill="#ffffb3" stroke="black" points="624.36,-84.8 471.64,-84.8 471.64,-48.8 624.36,-48.8 624.36,-84.8"/>
<text text-anchor="middle" x="548" y="-62.6" font-family="Times,serif" font-size="14.00">TransactionsComponent</text>
</g>
<!-- TransactionsComponent&#45;&gt;WalletModule -->
<g id="edge6" class="edge">
<title>TransactionsComponent&#45;&gt;WalletModule</title>
<path fill="none" stroke="black" d="M548,-84.82C548,-102.17 548,-125.8 548,-125.8 548,-125.8 790.3,-125.8 790.3,-125.8"/>
<polygon fill="black" stroke="black" points="790.3,-129.3 800.3,-125.8 790.3,-122.3 790.3,-129.3"/>
</g>
<!-- TransferComponent -->
<g id="node7" class="node">
<title>TransferComponent</title>
<polygon fill="#ffffb3" stroke="black" points="453.24,-84.8 324.76,-84.8 324.76,-48.8 453.24,-48.8 453.24,-84.8"/>
<text text-anchor="middle" x="389" y="-62.6" font-family="Times,serif" font-size="14.00">TransferComponent</text>
</g>
<!-- TransferComponent&#45;&gt;WalletModule -->
<g id="edge7" class="edge">
<title>TransferComponent&#45;&gt;WalletModule</title>
<path fill="none" stroke="black" d="M389,-84.91C389,-104.14 389,-131.8 389,-131.8 389,-131.8 790.21,-131.8 790.21,-131.8"/>
<polygon fill="black" stroke="black" points="790.21,-135.3 800.21,-131.8 790.21,-128.3 790.21,-135.3"/>
</g>
<!-- WalletComponent -->
<g id="node8" class="node">
<title>WalletComponent</title>
<polygon fill="#ffffb3" stroke="black" points="306.15,-84.8 187.85,-84.8 187.85,-48.8 306.15,-48.8 306.15,-84.8"/>
<text text-anchor="middle" x="247" y="-62.6" font-family="Times,serif" font-size="14.00">WalletComponent</text>
</g>
<!-- WalletComponent&#45;&gt;WalletModule -->
<g id="edge8" class="edge">
<title>WalletComponent&#45;&gt;WalletModule</title>
<path fill="none" stroke="black" d="M247,-85.08C247,-106.12 247,-137.8 247,-137.8 247,-137.8 790.5,-137.8 790.5,-137.8"/>
<polygon fill="black" stroke="black" points="790.5,-141.3 800.5,-137.8 790.5,-134.3 790.5,-141.3"/>
</g>
<!-- WalletNewComponent -->
<g id="node9" class="node">
<title>WalletNewComponent</title>
<polygon fill="#ffffb3" stroke="black" points="169.58,-84.8 24.42,-84.8 24.42,-48.8 169.58,-48.8 169.58,-84.8"/>
<text text-anchor="middle" x="97" y="-62.6" font-family="Times,serif" font-size="14.00">WalletNewComponent</text>
</g>
<!-- WalletNewComponent&#45;&gt;WalletModule -->
<g id="edge9" class="edge">
<title>WalletNewComponent&#45;&gt;WalletModule</title>
<path fill="none" stroke="black" d="M97,-84.89C97,-107.93 97,-144.8 97,-144.8 97,-144.8 790.53,-144.8 790.53,-144.8"/>
<polygon fill="black" stroke="black" points="790.53,-148.3 800.53,-144.8 790.53,-141.3 790.53,-148.3"/>
</g>
<!-- ConsoleModule -->
<g id="node11" class="node">
<title>ConsoleModule</title>
<polygon fill="#8dd3c7" stroke="black" points="1562.94,-84.8 1559.94,-88.8 1538.94,-88.8 1535.94,-84.8 1457.06,-84.8 1457.06,-48.8 1562.94,-48.8 1562.94,-84.8"/>
<text text-anchor="middle" x="1510" y="-62.6" font-family="Times,serif" font-size="14.00">ConsoleModule</text>
</g>
<!-- ConsoleModule&#45;&gt;WalletModule -->
<g id="edge10" class="edge">
<title>ConsoleModule&#45;&gt;WalletModule</title>
<path fill="none" stroke="black" d="M1510,-84.89C1510,-107.93 1510,-144.8 1510,-144.8 1510,-144.8 907.6,-144.8 907.6,-144.8"/>
<polygon fill="black" stroke="black" points="907.6,-141.3 897.6,-144.8 907.6,-148.3 907.6,-141.3"/>
</g>
<!-- TranslateModule -->
<g id="node12" class="node">
<title>TranslateModule</title>
<polygon fill="#8dd3c7" stroke="black" points="1438.63,-84.8 1435.63,-88.8 1414.63,-88.8 1411.63,-84.8 1327.37,-84.8 1327.37,-48.8 1438.63,-48.8 1438.63,-84.8"/>
<text text-anchor="middle" x="1383" y="-62.6" font-family="Times,serif" font-size="14.00">TranslateModule</text>
</g>
<!-- TranslateModule&#45;&gt;WalletModule -->
<g id="edge11" class="edge">
<title>TranslateModule&#45;&gt;WalletModule</title>
<path fill="none" stroke="black" d="M1383,-85.08C1383,-106.12 1383,-137.8 1383,-137.8 1383,-137.8 907.8,-137.8 907.8,-137.8"/>
<polygon fill="black" stroke="black" points="907.8,-134.3 897.8,-137.8 907.8,-141.3 907.8,-134.3"/>
</g>
</g>
</svg>
