<?xml version="1.0" encoding="UTF-8" standalone="no"?>
<!DOCTYPE svg PUBLIC "-//W3C//DTD SVG 1.1//EN"
 "http://www.w3.org/Graphics/SVG/1.1/DTD/svg11.dtd">
<!-- Generated by graphviz version 2.47.3 (20210619.1520)
 -->
<!-- Title: dependencies Pages: 1 -->
<svg width="172pt" height="174pt"
 viewBox="0.00 0.00 172.00 173.80" xmlns="http://www.w3.org/2000/svg" xmlns:xlink="http://www.w3.org/1999/xlink">
<g id="graph0" class="graph" transform="scale(1 1) rotate(0) translate(4 169.8)">
<title>dependencies</title>
<polygon fill="white" stroke="transparent" points="-4,4 -4,-169.8 168,-169.8 168,4 -4,4"/>
<text text-anchor="middle" x="82" y="-8.2" font-family="sans-serif" font-size="14.00">dependencies</text>
<g id="clust1" class="cluster">
<title>cluster_RootRoutingModule</title>
<polygon fill="none" stroke="black" stroke-dasharray="1,5" points="8,-32.8 8,-157.8 156,-157.8 156,-32.8 8,-32.8"/>
</g>
<g id="clust3" class="cluster">
<title>cluster_RootRoutingModule_imports</title>
<polygon fill="none" stroke="black" points="31,-40.8 31,-92.8 133,-92.8 133,-40.8 31,-40.8"/>
</g>
<!-- RootModule -->
<g id="node1" class="node">
<title>RootModule</title>
<polygon fill="#8dd3c7" stroke="black" points="125.28,-84.8 122.28,-88.8 101.28,-88.8 98.28,-84.8 38.72,-84.8 38.72,-48.8 125.28,-48.8 125.28,-84.8"/>
<text text-anchor="middle" x="82" y="-62.6" font-family="Times,serif" font-size="14.00">RootModule</text>
</g>
<!-- RootRoutingModule -->
<g id="node2" class="node">
<title>RootRoutingModule</title>
<polygon fill="#8dd3c7" stroke="black" points="147.89,-149.8 144.89,-153.8 123.89,-153.8 120.89,-149.8 16.11,-149.8 16.11,-113.8 147.89,-113.8 147.89,-149.8"/>
<text text-anchor="middle" x="82" y="-127.6" font-family="Times,serif" font-size="14.00">RootRoutingModule</text>
</g>
<!-- RootModule&#45;&gt;RootRoutingModule -->
<g id="edge1" class="edge">
<title>RootModule&#45;&gt;RootRoutingModule</title>
<path fill="none" stroke="black" d="M82,-84.91C82,-84.91 82,-103.79 82,-103.79"/>
<polygon fill="black" stroke="black" points="78.5,-103.79 82,-113.79 85.5,-103.79 78.5,-103.79"/>
</g>
</g>
</svg>
