<?xml version="1.0" encoding="UTF-8" standalone="no"?>
<!DOCTYPE svg PUBLIC "-//W3C//DTD SVG 1.1//EN"
 "http://www.w3.org/Graphics/SVG/1.1/DTD/svg11.dtd">
<!-- Generated by graphviz version 2.47.3 (20210619.1520)
 -->
<!-- Title: dependencies Pages: 1 -->
<svg width="622pt" height="312pt"
 viewBox="0.00 0.00 622.00 311.80" xmlns="http://www.w3.org/2000/svg" xmlns:xlink="http://www.w3.org/1999/xlink">
<g id="graph0" class="graph" transform="scale(1 1) rotate(0) translate(4 307.8)">
<title>dependencies</title>
<polygon fill="white" stroke="transparent" points="-4,4 -4,-307.8 618,-307.8 618,4 -4,4"/>
<text text-anchor="middle" x="307" y="-8.2" font-family="sans-serif" font-size="14.00">dependencies</text>
<g id="clust1" class="cluster">
<title>cluster_BlockchainModule</title>
<polygon fill="none" stroke="black" stroke-dasharray="1,5" points="8,-32.8 8,-295.8 606,-295.8 606,-32.8 8,-32.8"/>
</g>
<g id="clust6" class="cluster">
<title>cluster_BlockchainModule_exports</title>
<polygon fill="none" stroke="black" points="189,-235.8 189,-287.8 353,-287.8 353,-235.8 189,-235.8"/>
</g>
<g id="clust3" class="cluster">
<title>cluster_BlockchainModule_BlockchainComponent_providers</title>
<polygon fill="none" stroke="black" points="436,-40.8 436,-157.8 598,-157.8 598,-40.8 436,-40.8"/>
</g>
<g id="clust2" class="cluster">
<title>cluster_BlockchainModule_declarations</title>
<polygon fill="none" stroke="black" points="260,-105.8 260,-157.8 428,-157.8 428,-105.8 260,-105.8"/>
</g>
<g id="clust5" class="cluster">
<title>cluster_BlockchainModule_imports</title>
<polygon fill="none" stroke="black" points="16,-105.8 16,-157.8 252,-157.8 252,-105.8 16,-105.8"/>
</g>
<!-- BlockchainComponent -->
<g id="node1" class="node">
<title>BlockchainComponent</title>
<polygon fill="#ffffb3" stroke="black" points="589.59,-149.8 444.41,-149.8 444.41,-113.8 589.59,-113.8 589.59,-149.8"/>
<text text-anchor="middle" x="517" y="-127.6" font-family="Times,serif" font-size="14.00">BlockchainComponent</text>
</g>
<!-- BlockchainModule -->
<g id="node3" class="node">
<title>BlockchainModule</title>
<polygon fill="#8dd3c7" stroke="black" points="332.81,-214.8 329.81,-218.8 308.81,-218.8 305.81,-214.8 209.19,-214.8 209.19,-178.8 332.81,-178.8 332.81,-214.8"/>
<text text-anchor="middle" x="271" y="-192.6" font-family="Times,serif" font-size="14.00">BlockchainModule</text>
</g>
<!-- BlockchainComponent&#45;&gt;BlockchainModule -->
<g id="edge1" class="edge">
<title>BlockchainComponent&#45;&gt;BlockchainModule</title>
<path fill="none" stroke="black" d="M517,-149.91C517,-169.14 517,-196.8 517,-196.8 517,-196.8 342.76,-196.8 342.76,-196.8"/>
<polygon fill="black" stroke="black" points="342.76,-193.3 332.76,-196.8 342.76,-200.3 342.76,-193.3"/>
</g>
<!-- BlockdetailsComponent -->
<g id="node2" class="node">
<title>BlockdetailsComponent</title>
<polygon fill="#ffffb3" stroke="black" points="419.82,-149.8 268.18,-149.8 268.18,-113.8 419.82,-113.8 419.82,-149.8"/>
<text text-anchor="middle" x="344" y="-127.6" font-family="Times,serif" font-size="14.00">BlockdetailsComponent</text>
</g>
<!-- BlockdetailsComponent&#45;&gt;BlockchainModule -->
<g id="edge3" class="edge">
<title>BlockdetailsComponent&#45;&gt;BlockchainModule</title>
<path fill="none" stroke="black" d="M300.5,-149.91C300.5,-149.91 300.5,-168.79 300.5,-168.79"/>
<polygon fill="black" stroke="black" points="297,-168.79 300.5,-178.79 304,-168.79 297,-168.79"/>
</g>
<!-- BlockchainComponent  -->
<g id="node7" class="node">
<title>BlockchainComponent </title>
<polygon fill="#fb8072" stroke="black" points="345.09,-279.8 196.91,-279.8 196.91,-243.8 345.09,-243.8 345.09,-279.8"/>
<text text-anchor="middle" x="271" y="-257.6" font-family="Times,serif" font-size="14.00">BlockchainComponent </text>
</g>
<!-- BlockchainModule&#45;&gt;BlockchainComponent  -->
<g id="edge6" class="edge">
<title>BlockchainModule&#45;&gt;BlockchainComponent </title>
<path fill="none" stroke="black" stroke-dasharray="5,2" d="M271,-214.91C271,-214.91 271,-233.79 271,-233.79"/>
<polygon fill="black" stroke="black" points="267.5,-233.79 271,-243.79 274.5,-233.79 267.5,-233.79"/>
</g>
<!-- ChartService -->
<g id="node4" class="node">
<title>ChartService</title>
<ellipse fill="#fdb462" stroke="black" cx="517" cy="-66.8" rx="61.39" ry="18"/>
<text text-anchor="middle" x="517" y="-62.6" font-family="Times,serif" font-size="14.00">ChartService</text>
</g>
<!-- ChartService&#45;&gt;BlockchainComponent -->
<g id="edge2" class="edge">
<title>ChartService&#45;&gt;BlockchainComponent</title>
<path fill="none" stroke="black" d="M517,-84.91C517,-84.91 517,-103.79 517,-103.79"/>
<polygon fill="black" stroke="black" points="513.5,-103.79 517,-113.79 520.5,-103.79 513.5,-103.79"/>
</g>
<!-- ChartModule -->
<g id="node5" class="node">
<title>ChartModule</title>
<polygon fill="#8dd3c7" stroke="black" points="244.15,-149.8 241.15,-153.8 220.15,-153.8 217.15,-149.8 153.85,-149.8 153.85,-113.8 244.15,-113.8 244.15,-149.8"/>
<text text-anchor="middle" x="199" y="-127.6" font-family="Times,serif" font-size="14.00">ChartModule</text>
</g>
<!-- ChartModule&#45;&gt;BlockchainModule -->
<g id="edge4" class="edge">
<title>ChartModule&#45;&gt;BlockchainModule</title>
<path fill="none" stroke="black" d="M226.84,-149.91C226.84,-149.91 226.84,-168.79 226.84,-168.79"/>
<polygon fill="black" stroke="black" points="223.34,-168.79 226.84,-178.79 230.34,-168.79 223.34,-168.79"/>
</g>
<!-- TranslateModule -->
<g id="node6" class="node">
<title>TranslateModule</title>
<polygon fill="#8dd3c7" stroke="black" points="135.63,-149.8 132.63,-153.8 111.63,-153.8 108.63,-149.8 24.37,-149.8 24.37,-113.8 135.63,-113.8 135.63,-149.8"/>
<text text-anchor="middle" x="80" y="-127.6" font-family="Times,serif" font-size="14.00">TranslateModule</text>
</g>
<!-- TranslateModule&#45;&gt;BlockchainModule -->
<g id="edge5" class="edge">
<title>TranslateModule&#45;&gt;BlockchainModule</title>
<path fill="none" stroke="black" d="M80,-149.91C80,-169.14 80,-196.8 80,-196.8 80,-196.8 199.25,-196.8 199.25,-196.8"/>
<polygon fill="black" stroke="black" points="199.25,-200.3 209.25,-196.8 199.25,-193.3 199.25,-200.3"/>
</g>
</g>
</svg>
