<?xml version="1.0" encoding="UTF-8" standalone="no"?>
<!DOCTYPE svg PUBLIC "-//W3C//DTD SVG 1.1//EN"
 "http://www.w3.org/Graphics/SVG/1.1/DTD/svg11.dtd">
<!-- Generated by graphviz version 2.47.3 (20210619.1520)
 -->
<!-- Title: dependencies Pages: 1 -->
<svg width="446pt" height="239pt"
 viewBox="0.00 0.00 446.00 238.80" xmlns="http://www.w3.org/2000/svg" xmlns:xlink="http://www.w3.org/1999/xlink">
<g id="graph0" class="graph" transform="scale(1 1) rotate(0) translate(4 234.8)">
<title>dependencies</title>
<polygon fill="white" stroke="transparent" points="-4,4 -4,-234.8 442,-234.8 442,4 -4,4"/>
<text text-anchor="middle" x="219" y="-8.2" font-family="sans-serif" font-size="14.00">dependencies</text>
<g id="clust1" class="cluster">
<title>cluster_BlockchainModule</title>
<polygon fill="none" stroke="black" stroke-dasharray="1,5" points="8,-32.8 8,-222.8 430,-222.8 430,-32.8 8,-32.8"/>
</g>
<g id="clust3" class="cluster">
<title>cluster_BlockchainModule_BlockchainComponent_providers</title>
<polygon fill="none" stroke="black" points="260,-40.8 260,-157.8 422,-157.8 422,-40.8 260,-40.8"/>
</g>
<g id="clust4" class="cluster">
<title>cluster_BlockchainModule_imports</title>
<polygon fill="none" stroke="black" points="16,-105.8 16,-157.8 252,-157.8 252,-105.8 16,-105.8"/>
</g>
<!-- BlockchainComponent -->
<g id="node1" class="node">
<title>BlockchainComponent</title>
<polygon fill="#ffffb3" stroke="black" points="413.59,-149.8 268.41,-149.8 268.41,-113.8 413.59,-113.8 413.59,-149.8"/>
<text text-anchor="middle" x="341" y="-127.6" font-family="Times,serif" font-size="14.00">BlockchainComponent</text>
</g>
<!-- BlockchainModule -->
<g id="node2" class="node">
<title>BlockchainModule</title>
<polygon fill="#8dd3c7" stroke="black" points="260.81,-214.8 257.81,-218.8 236.81,-218.8 233.81,-214.8 137.19,-214.8 137.19,-178.8 260.81,-178.8 260.81,-214.8"/>
<text text-anchor="middle" x="199" y="-192.6" font-family="Times,serif" font-size="14.00">BlockchainModule</text>
</g>
<!-- BlockchainComponent&#45;&gt;BlockchainModule -->
<g id="edge1" class="edge">
<title>BlockchainComponent&#45;&gt;BlockchainModule</title>
<path fill="none" stroke="black" d="M268.31,-131.8C258.92,-131.8 252.49,-131.8 252.49,-131.8 252.49,-131.8 252.49,-168.69 252.49,-168.69"/>
<polygon fill="black" stroke="black" points="248.99,-168.69 252.49,-178.69 255.99,-168.69 248.99,-168.69"/>
</g>
<!-- ChartService -->
<g id="node3" class="node">
<title>ChartService</title>
<ellipse fill="#fdb462" stroke="black" cx="341" cy="-66.8" rx="61.39" ry="18"/>
<text text-anchor="middle" x="341" y="-62.6" font-family="Times,serif" font-size="14.00">ChartService</text>
</g>
<!-- ChartService&#45;&gt;BlockchainComponent -->
<g id="edge2" class="edge">
<title>ChartService&#45;&gt;BlockchainComponent</title>
<path fill="none" stroke="black" d="M341,-84.91C341,-84.91 341,-103.79 341,-103.79"/>
<polygon fill="black" stroke="black" points="337.5,-103.79 341,-113.79 344.5,-103.79 337.5,-103.79"/>
</g>
<!-- ChartModule -->
<g id="node4" class="node">
<title>ChartModule</title>
<polygon fill="#8dd3c7" stroke="black" points="244.15,-149.8 241.15,-153.8 220.15,-153.8 217.15,-149.8 153.85,-149.8 153.85,-113.8 244.15,-113.8 244.15,-149.8"/>
<text text-anchor="middle" x="199" y="-127.6" font-family="Times,serif" font-size="14.00">ChartModule</text>
</g>
<!-- ChartModule&#45;&gt;BlockchainModule -->
<g id="edge3" class="edge">
<title>ChartModule&#45;&gt;BlockchainModule</title>
<path fill="none" stroke="black" d="M199,-149.91C199,-149.91 199,-168.79 199,-168.79"/>
<polygon fill="black" stroke="black" points="195.5,-168.79 199,-178.79 202.5,-168.79 195.5,-168.79"/>
</g>
<!-- TranslateModule -->
<g id="node5" class="node">
<title>TranslateModule</title>
<polygon fill="#8dd3c7" stroke="black" points="135.63,-149.8 132.63,-153.8 111.63,-153.8 108.63,-149.8 24.37,-149.8 24.37,-113.8 135.63,-113.8 135.63,-149.8"/>
<text text-anchor="middle" x="80" y="-127.6" font-family="Times,serif" font-size="14.00">TranslateModule</text>
</g>
<!-- TranslateModule&#45;&gt;BlockchainModule -->
<g id="edge4" class="edge">
<title>TranslateModule&#45;&gt;BlockchainModule</title>
<path fill="none" stroke="black" d="M135.84,-131.8C141.67,-131.8 145.51,-131.8 145.51,-131.8 145.51,-131.8 145.51,-168.69 145.51,-168.69"/>
<polygon fill="black" stroke="black" points="142.01,-168.69 145.51,-178.69 149.01,-168.69 142.01,-168.69"/>
</g>
</g>
</svg>
