<?xml version="1.0" encoding="UTF-8" standalone="no"?>
<!DOCTYPE svg PUBLIC "-//W3C//DTD SVG 1.1//EN"
 "http://www.w3.org/Graphics/SVG/1.1/DTD/svg11.dtd">
<!-- Generated by graphviz version 2.47.3 (20210619.1520)
 -->
<!-- Title: dependencies Pages: 1 -->
<svg width="1510pt" height="247pt"
 viewBox="0.00 0.00 1510.00 246.80" xmlns="http://www.w3.org/2000/svg" xmlns:xlink="http://www.w3.org/1999/xlink">
<g id="graph0" class="graph" transform="scale(1 1) rotate(0) translate(4 242.8)">
<title>dependencies</title>
<polygon fill="white" stroke="transparent" points="-4,4 -4,-242.8 1506,-242.8 1506,4 -4,4"/>
<text text-anchor="middle" x="751" y="-8.2" font-family="sans-serif" font-size="14.00">dependencies</text>
<g id="clust1" class="cluster">
<title>cluster_BlockchainModule</title>
<polygon fill="none" stroke="black" stroke-dasharray="1,5" points="8,-32.8 8,-230.8 1494,-230.8 1494,-32.8 8,-32.8"/>
</g>
<g id="clust10" class="cluster">
<title>cluster_BlockchainModule_exports</title>
<polygon fill="none" stroke="black" points="592,-170.8 592,-222.8 756,-222.8 756,-170.8 592,-170.8"/>
</g>
<g id="clust2" class="cluster">
<title>cluster_BlockchainModule_declarations</title>
<polygon fill="none" stroke="black" points="384,-40.8 384,-92.8 1486,-92.8 1486,-40.8 384,-40.8"/>
</g>
<g id="clust9" class="cluster">
<title>cluster_BlockchainModule_imports</title>
<polygon fill="none" stroke="black" points="16,-40.8 16,-92.8 376,-92.8 376,-40.8 16,-40.8"/>
</g>
<!-- BlockDetailsComponent -->
<g id="node1" class="node">
<title>BlockDetailsComponent</title>
<polygon fill="#ffffb3" stroke="black" points="1478.43,-84.8 1323.57,-84.8 1323.57,-48.8 1478.43,-48.8 1478.43,-84.8"/>
<text text-anchor="middle" x="1401" y="-62.6" font-family="Times,serif" font-size="14.00">BlockDetailsComponent</text>
</g>
<!-- BlockchainModule -->
<g id="node7" class="node">
<title>BlockchainModule</title>
<polygon fill="#8dd3c7" stroke="black" points="735.81,-149.8 732.81,-153.8 711.81,-153.8 708.81,-149.8 612.19,-149.8 612.19,-113.8 735.81,-113.8 735.81,-149.8"/>
<text text-anchor="middle" x="674" y="-127.6" font-family="Times,serif" font-size="14.00">BlockchainModule</text>
</g>
<!-- BlockDetailsComponent&#45;&gt;BlockchainModule -->
<g id="edge1" class="edge">
<title>BlockDetailsComponent&#45;&gt;BlockchainModule</title>
<path fill="none" stroke="black" d="M1401,-84.81C1401,-107.29 1401,-142.8 1401,-142.8 1401,-142.8 745.67,-142.8 745.67,-142.8"/>
<polygon fill="black" stroke="black" points="745.67,-139.3 735.67,-142.8 745.67,-146.3 745.67,-139.3"/>
</g>
<!-- BlockLedgerComponent -->
<g id="node2" class="node">
<title>BlockLedgerComponent</title>
<polygon fill="#ffffb3" stroke="black" points="1306.42,-84.8 1151.58,-84.8 1151.58,-48.8 1306.42,-48.8 1306.42,-84.8"/>
<text text-anchor="middle" x="1229" y="-62.6" font-family="Times,serif" font-size="14.00">BlockLedgerComponent</text>
</g>
<!-- BlockLedgerComponent&#45;&gt;BlockchainModule -->
<g id="edge2" class="edge">
<title>BlockLedgerComponent&#45;&gt;BlockchainModule</title>
<path fill="none" stroke="black" d="M1229,-84.93C1229,-105.37 1229,-135.8 1229,-135.8 1229,-135.8 745.78,-135.8 745.78,-135.8"/>
<polygon fill="black" stroke="black" points="745.78,-132.3 735.78,-135.8 745.78,-139.3 745.78,-132.3"/>
</g>
<!-- BlockTransactionsComponent -->
<g id="node3" class="node">
<title>BlockTransactionsComponent</title>
<polygon fill="#ffffb3" stroke="black" points="1134.3,-84.8 947.7,-84.8 947.7,-48.8 1134.3,-48.8 1134.3,-84.8"/>
<text text-anchor="middle" x="1041" y="-62.6" font-family="Times,serif" font-size="14.00">BlockTransactionsComponent</text>
</g>
<!-- BlockTransactionsComponent&#45;&gt;BlockchainModule -->
<g id="edge3" class="edge">
<title>BlockTransactionsComponent&#45;&gt;BlockchainModule</title>
<path fill="none" stroke="black" d="M1041,-85.07C1041,-103.36 1041,-128.8 1041,-128.8 1041,-128.8 745.84,-128.8 745.84,-128.8"/>
<polygon fill="black" stroke="black" points="745.84,-125.3 735.84,-128.8 745.84,-132.3 745.84,-125.3"/>
</g>
<!-- BlockchainComponent -->
<g id="node4" class="node">
<title>BlockchainComponent</title>
<polygon fill="#ffffb3" stroke="black" points="929.59,-84.8 784.41,-84.8 784.41,-48.8 929.59,-48.8 929.59,-84.8"/>
<text text-anchor="middle" x="857" y="-62.6" font-family="Times,serif" font-size="14.00">BlockchainComponent</text>
</g>
<!-- BlockchainComponent&#45;&gt;BlockchainModule -->
<g id="edge4" class="edge">
<title>BlockchainComponent&#45;&gt;BlockchainModule</title>
<path fill="none" stroke="black" d="M857,-84.81C857,-100.85 857,-121.8 857,-121.8 857,-121.8 745.7,-121.8 745.7,-121.8"/>
<polygon fill="black" stroke="black" points="745.7,-118.3 735.7,-121.8 745.7,-125.3 745.7,-118.3"/>
</g>
<!-- BlockchainConfigComponent -->
<g id="node5" class="node">
<title>BlockchainConfigComponent</title>
<polygon fill="#ffffb3" stroke="black" points="765.98,-84.8 582.02,-84.8 582.02,-48.8 765.98,-48.8 765.98,-84.8"/>
<text text-anchor="middle" x="674" y="-62.6" font-family="Times,serif" font-size="14.00">BlockchainConfigComponent</text>
</g>
<!-- BlockchainConfigComponent&#45;&gt;BlockchainModule -->
<g id="edge5" class="edge">
<title>BlockchainConfigComponent&#45;&gt;BlockchainModule</title>
<path fill="none" stroke="black" d="M674,-84.91C674,-84.91 674,-103.79 674,-103.79"/>
<polygon fill="black" stroke="black" points="670.5,-103.79 674,-113.79 677.5,-103.79 670.5,-103.79"/>
</g>
<!-- BlockchainStatsComponent -->
<g id="node6" class="node">
<title>BlockchainStatsComponent</title>
<polygon fill="#ffffb3" stroke="black" points="564.32,-84.8 391.68,-84.8 391.68,-48.8 564.32,-48.8 564.32,-84.8"/>
<text text-anchor="middle" x="478" y="-62.6" font-family="Times,serif" font-size="14.00">BlockchainStatsComponent</text>
</g>
<!-- BlockchainStatsComponent&#45;&gt;BlockchainModule -->
<g id="edge6" class="edge">
<title>BlockchainStatsComponent&#45;&gt;BlockchainModule</title>
<path fill="none" stroke="black" d="M478,-84.81C478,-100.85 478,-121.8 478,-121.8 478,-121.8 602.25,-121.8 602.25,-121.8"/>
<polygon fill="black" stroke="black" points="602.25,-125.3 612.25,-121.8 602.25,-118.3 602.25,-125.3"/>
</g>
<!-- BlockchainComponent  -->
<g id="node11" class="node">
<title>BlockchainComponent </title>
<polygon fill="#fb8072" stroke="black" points="748.09,-214.8 599.91,-214.8 599.91,-178.8 748.09,-178.8 748.09,-214.8"/>
<text text-anchor="middle" x="674" y="-192.6" font-family="Times,serif" font-size="14.00">BlockchainComponent </text>
</g>
<!-- BlockchainModule&#45;&gt;BlockchainComponent  -->
<g id="edge10" class="edge">
<title>BlockchainModule&#45;&gt;BlockchainComponent </title>
<path fill="none" stroke="black" stroke-dasharray="5,2" d="M674,-149.91C674,-149.91 674,-168.79 674,-168.79"/>
<polygon fill="black" stroke="black" points="670.5,-168.79 674,-178.79 677.5,-168.79 670.5,-168.79"/>
</g>
<!-- ChartModule -->
<g id="node8" class="node">
<title>ChartModule</title>
<polygon fill="#8dd3c7" stroke="black" points="368.15,-84.8 365.15,-88.8 344.15,-88.8 341.15,-84.8 277.85,-84.8 277.85,-48.8 368.15,-48.8 368.15,-84.8"/>
<text text-anchor="middle" x="323" y="-62.6" font-family="Times,serif" font-size="14.00">ChartModule</text>
</g>
<!-- ChartModule&#45;&gt;BlockchainModule -->
<g id="edge7" class="edge">
<title>ChartModule&#45;&gt;BlockchainModule</title>
<path fill="none" stroke="black" d="M323,-85.07C323,-103.36 323,-128.8 323,-128.8 323,-128.8 602.06,-128.8 602.06,-128.8"/>
<polygon fill="black" stroke="black" points="602.06,-132.3 612.06,-128.8 602.06,-125.3 602.06,-132.3"/>
</g>
<!-- ConsoleModule -->
<g id="node9" class="node">
<title>ConsoleModule</title>
<polygon fill="#8dd3c7" stroke="black" points="259.94,-84.8 256.94,-88.8 235.94,-88.8 232.94,-84.8 154.06,-84.8 154.06,-48.8 259.94,-48.8 259.94,-84.8"/>
<text text-anchor="middle" x="207" y="-62.6" font-family="Times,serif" font-size="14.00">ConsoleModule</text>
</g>
<!-- ConsoleModule&#45;&gt;BlockchainModule -->
<g id="edge8" class="edge">
<title>ConsoleModule&#45;&gt;BlockchainModule</title>
<path fill="none" stroke="black" d="M207,-84.93C207,-105.37 207,-135.8 207,-135.8 207,-135.8 601.99,-135.8 601.99,-135.8"/>
<polygon fill="black" stroke="black" points="601.99,-139.3 611.99,-135.8 601.99,-132.3 601.99,-139.3"/>
</g>
<!-- TranslateModule -->
<g id="node10" class="node">
<title>TranslateModule</title>
<polygon fill="#8dd3c7" stroke="black" points="135.63,-84.8 132.63,-88.8 111.63,-88.8 108.63,-84.8 24.37,-84.8 24.37,-48.8 135.63,-48.8 135.63,-84.8"/>
<text text-anchor="middle" x="80" y="-62.6" font-family="Times,serif" font-size="14.00">TranslateModule</text>
</g>
<!-- TranslateModule&#45;&gt;BlockchainModule -->
<g id="edge9" class="edge">
<title>TranslateModule&#45;&gt;BlockchainModule</title>
<path fill="none" stroke="black" d="M80,-84.81C80,-107.29 80,-142.8 80,-142.8 80,-142.8 602.11,-142.8 602.11,-142.8"/>
<polygon fill="black" stroke="black" points="602.11,-146.3 612.11,-142.8 602.11,-139.3 602.11,-146.3"/>
</g>
</g>
</svg>
