<?xml version="1.0" encoding="UTF-8" standalone="no"?>
<!DOCTYPE svg PUBLIC "-//W3C//DTD SVG 1.1//EN"
 "http://www.w3.org/Graphics/SVG/1.1/DTD/svg11.dtd">
<!-- Generated by graphviz version 2.47.3 (20210619.1520)
 -->
<!-- Title: dependencies Pages: 1 -->
<svg width="446pt" height="312pt"
 viewBox="0.00 0.00 446.00 311.80" xmlns="http://www.w3.org/2000/svg" xmlns:xlink="http://www.w3.org/1999/xlink">
<g id="graph0" class="graph" transform="scale(1 1) rotate(0) translate(4 307.8)">
<title>dependencies</title>
<polygon fill="white" stroke="transparent" points="-4,4 -4,-307.8 442,-307.8 442,4 -4,4"/>
<text text-anchor="middle" x="219" y="-8.2" font-family="sans-serif" font-size="14.00">dependencies</text>
<g id="clust1" class="cluster">
<title>cluster_BlockchainModule</title>
<polygon fill="none" stroke="black" stroke-dasharray="1,5" points="8,-32.8 8,-295.8 430,-295.8 430,-32.8 8,-32.8"/>
</g>
<g id="clust4" class="cluster">
<title>cluster_BlockchainModule_imports</title>
<polygon fill="none" stroke="black" points="186,-105.8 186,-157.8 422,-157.8 422,-105.8 186,-105.8"/>
</g>
<g id="clust3" class="cluster">
<title>cluster_BlockchainModule_BlockchainComponent_providers</title>
<polygon fill="none" stroke="black" points="16,-40.8 16,-157.8 178,-157.8 178,-40.8 16,-40.8"/>
</g>
<g id="clust5" class="cluster">
<title>cluster_BlockchainModule_exports</title>
<polygon fill="none" stroke="black" points="168,-235.8 168,-287.8 332,-287.8 332,-235.8 168,-235.8"/>
</g>
<!-- BlockchainComponent -->
<g id="node1" class="node">
<title>BlockchainComponent</title>
<polygon fill="#ffffb3" stroke="black" points="169.59,-149.8 24.41,-149.8 24.41,-113.8 169.59,-113.8 169.59,-149.8"/>
<text text-anchor="middle" x="97" y="-127.6" font-family="Times,serif" font-size="14.00">BlockchainComponent</text>
</g>
<!-- BlockchainModule -->
<g id="node2" class="node">
<title>BlockchainModule</title>
<polygon fill="#8dd3c7" stroke="black" points="311.81,-214.8 308.81,-218.8 287.81,-218.8 284.81,-214.8 188.19,-214.8 188.19,-178.8 311.81,-178.8 311.81,-214.8"/>
<text text-anchor="middle" x="250" y="-192.6" font-family="Times,serif" font-size="14.00">BlockchainModule</text>
</g>
<!-- BlockchainComponent&#45;&gt;BlockchainModule -->
<g id="edge1" class="edge">
<title>BlockchainComponent&#45;&gt;BlockchainModule</title>
<path fill="none" stroke="black" d="M97,-149.91C97,-169.14 97,-196.8 97,-196.8 97,-196.8 178.21,-196.8 178.21,-196.8"/>
<polygon fill="black" stroke="black" points="178.21,-200.3 188.21,-196.8 178.21,-193.3 178.21,-200.3"/>
</g>
<!-- BlockchainComponent  -->
<g id="node6" class="node">
<title>BlockchainComponent </title>
<polygon fill="#fb8072" stroke="black" points="324.09,-279.8 175.91,-279.8 175.91,-243.8 324.09,-243.8 324.09,-279.8"/>
<text text-anchor="middle" x="250" y="-257.6" font-family="Times,serif" font-size="14.00">BlockchainComponent </text>
</g>
<!-- BlockchainModule&#45;&gt;BlockchainComponent  -->
<g id="edge5" class="edge">
<title>BlockchainModule&#45;&gt;BlockchainComponent </title>
<path fill="none" stroke="black" stroke-dasharray="5,2" d="M250,-214.91C250,-214.91 250,-233.79 250,-233.79"/>
<polygon fill="black" stroke="black" points="246.5,-233.79 250,-243.79 253.5,-233.79 246.5,-233.79"/>
</g>
<!-- ChartService -->
<g id="node3" class="node">
<title>ChartService</title>
<ellipse fill="#fdb462" stroke="black" cx="97" cy="-66.8" rx="61.39" ry="18"/>
<text text-anchor="middle" x="97" y="-62.6" font-family="Times,serif" font-size="14.00">ChartService</text>
</g>
<!-- ChartService&#45;&gt;BlockchainComponent -->
<g id="edge2" class="edge">
<title>ChartService&#45;&gt;BlockchainComponent</title>
<path fill="none" stroke="black" d="M97,-84.91C97,-84.91 97,-103.79 97,-103.79"/>
<polygon fill="black" stroke="black" points="93.5,-103.79 97,-113.79 100.5,-103.79 93.5,-103.79"/>
</g>
<!-- ChartModule -->
<g id="node4" class="node">
<title>ChartModule</title>
<polygon fill="#8dd3c7" stroke="black" points="414.15,-149.8 411.15,-153.8 390.15,-153.8 387.15,-149.8 323.85,-149.8 323.85,-113.8 414.15,-113.8 414.15,-149.8"/>
<text text-anchor="middle" x="369" y="-127.6" font-family="Times,serif" font-size="14.00">ChartModule</text>
</g>
<!-- ChartModule&#45;&gt;BlockchainModule -->
<g id="edge3" class="edge">
<title>ChartModule&#45;&gt;BlockchainModule</title>
<path fill="none" stroke="black" d="M369.31,-149.91C369.31,-169.14 369.31,-196.8 369.31,-196.8 369.31,-196.8 321.75,-196.8 321.75,-196.8"/>
<polygon fill="black" stroke="black" points="321.75,-193.3 311.75,-196.8 321.75,-200.3 321.75,-193.3"/>
</g>
<!-- TranslateModule -->
<g id="node5" class="node">
<title>TranslateModule</title>
<polygon fill="#8dd3c7" stroke="black" points="305.63,-149.8 302.63,-153.8 281.63,-153.8 278.63,-149.8 194.37,-149.8 194.37,-113.8 305.63,-113.8 305.63,-149.8"/>
<text text-anchor="middle" x="250" y="-127.6" font-family="Times,serif" font-size="14.00">TranslateModule</text>
</g>
<!-- TranslateModule&#45;&gt;BlockchainModule -->
<g id="edge4" class="edge">
<title>TranslateModule&#45;&gt;BlockchainModule</title>
<path fill="none" stroke="black" d="M250,-149.91C250,-149.91 250,-168.79 250,-168.79"/>
<polygon fill="black" stroke="black" points="246.5,-168.79 250,-178.79 253.5,-168.79 246.5,-168.79"/>
</g>
</g>
</svg>
