<?xml version="1.0" encoding="UTF-8" standalone="no"?>
<!DOCTYPE svg PUBLIC "-//W3C//DTD SVG 1.1//EN"
 "http://www.w3.org/Graphics/SVG/1.1/DTD/svg11.dtd">
<!-- Generated by graphviz version 2.47.3 (20210619.1520)
 -->
<!-- Title: dependencies Pages: 1 -->
<svg width="1182pt" height="247pt"
 viewBox="0.00 0.00 1182.00 246.80" xmlns="http://www.w3.org/2000/svg" xmlns:xlink="http://www.w3.org/1999/xlink">
<g id="graph0" class="graph" transform="scale(1 1) rotate(0) translate(4 242.8)">
<title>dependencies</title>
<polygon fill="white" stroke="transparent" points="-4,4 -4,-242.8 1178,-242.8 1178,4 -4,4"/>
<text text-anchor="middle" x="587" y="-8.2" font-family="sans-serif" font-size="14.00">dependencies</text>
<g id="clust1" class="cluster">
<title>cluster_BlockchainModule</title>
<polygon fill="none" stroke="black" stroke-dasharray="1,5" points="8,-32.8 8,-230.8 1166,-230.8 1166,-32.8 8,-32.8"/>
</g>
<g id="clust8" class="cluster">
<title>cluster_BlockchainModule_imports</title>
<polygon fill="none" stroke="black" points="922,-40.8 922,-92.8 1158,-92.8 1158,-40.8 922,-40.8"/>
</g>
<g id="clust2" class="cluster">
<title>cluster_BlockchainModule_declarations</title>
<polygon fill="none" stroke="black" points="16,-40.8 16,-92.8 914,-92.8 914,-40.8 16,-40.8"/>
</g>
<g id="clust9" class="cluster">
<title>cluster_BlockchainModule_exports</title>
<polygon fill="none" stroke="black" points="575,-170.8 575,-222.8 739,-222.8 739,-170.8 575,-170.8"/>
</g>
<!-- BlockDetailsComponent -->
<g id="node1" class="node">
<title>BlockDetailsComponent</title>
<polygon fill="#ffffb3" stroke="black" points="906.43,-84.8 751.57,-84.8 751.57,-48.8 906.43,-48.8 906.43,-84.8"/>
<text text-anchor="middle" x="829" y="-62.6" font-family="Times,serif" font-size="14.00">BlockDetailsComponent</text>
</g>
<!-- BlockchainModule -->
<g id="node6" class="node">
<title>BlockchainModule</title>
<polygon fill="#8dd3c7" stroke="black" points="718.81,-149.8 715.81,-153.8 694.81,-153.8 691.81,-149.8 595.19,-149.8 595.19,-113.8 718.81,-113.8 718.81,-149.8"/>
<text text-anchor="middle" x="657" y="-127.6" font-family="Times,serif" font-size="14.00">BlockchainModule</text>
</g>
<!-- BlockDetailsComponent&#45;&gt;BlockchainModule -->
<g id="edge1" class="edge">
<title>BlockDetailsComponent&#45;&gt;BlockchainModule</title>
<path fill="none" stroke="black" d="M829,-84.83C829,-101.2 829,-122.8 829,-122.8 829,-122.8 729.1,-122.8 729.1,-122.8"/>
<polygon fill="black" stroke="black" points="729.1,-119.3 719.1,-122.8 729.1,-126.3 729.1,-119.3"/>
</g>
<!-- BlockLedgerComponent -->
<g id="node2" class="node">
<title>BlockLedgerComponent</title>
<polygon fill="#ffffb3" stroke="black" points="734.42,-84.8 579.58,-84.8 579.58,-48.8 734.42,-48.8 734.42,-84.8"/>
<text text-anchor="middle" x="657" y="-62.6" font-family="Times,serif" font-size="14.00">BlockLedgerComponent</text>
</g>
<!-- BlockLedgerComponent&#45;&gt;BlockchainModule -->
<g id="edge2" class="edge">
<title>BlockLedgerComponent&#45;&gt;BlockchainModule</title>
<path fill="none" stroke="black" d="M657,-84.91C657,-84.91 657,-103.79 657,-103.79"/>
<polygon fill="black" stroke="black" points="653.5,-103.79 657,-113.79 660.5,-103.79 653.5,-103.79"/>
</g>
<!-- BlockchainComponent -->
<g id="node3" class="node">
<title>BlockchainComponent</title>
<polygon fill="#ffffb3" stroke="black" points="561.59,-84.8 416.41,-84.8 416.41,-48.8 561.59,-48.8 561.59,-84.8"/>
<text text-anchor="middle" x="489" y="-62.6" font-family="Times,serif" font-size="14.00">BlockchainComponent</text>
</g>
<!-- BlockchainComponent&#45;&gt;BlockchainModule -->
<g id="edge3" class="edge">
<title>BlockchainComponent&#45;&gt;BlockchainModule</title>
<path fill="none" stroke="black" d="M489,-84.83C489,-101.2 489,-122.8 489,-122.8 489,-122.8 584.92,-122.8 584.92,-122.8"/>
<polygon fill="black" stroke="black" points="584.92,-126.3 594.92,-122.8 584.92,-119.3 584.92,-126.3"/>
</g>
<!-- BlockchainConfigComponent -->
<g id="node4" class="node">
<title>BlockchainConfigComponent</title>
<polygon fill="#ffffb3" stroke="black" points="397.98,-84.8 214.02,-84.8 214.02,-48.8 397.98,-48.8 397.98,-84.8"/>
<text text-anchor="middle" x="306" y="-62.6" font-family="Times,serif" font-size="14.00">BlockchainConfigComponent</text>
</g>
<!-- BlockchainConfigComponent&#45;&gt;BlockchainModule -->
<g id="edge4" class="edge">
<title>BlockchainConfigComponent&#45;&gt;BlockchainModule</title>
<path fill="none" stroke="black" d="M306,-84.91C306,-104.14 306,-131.8 306,-131.8 306,-131.8 585.06,-131.8 585.06,-131.8"/>
<polygon fill="black" stroke="black" points="585.06,-135.3 595.06,-131.8 585.06,-128.3 585.06,-135.3"/>
</g>
<!-- BlockchainStatsComponent -->
<g id="node5" class="node">
<title>BlockchainStatsComponent</title>
<polygon fill="#ffffb3" stroke="black" points="196.32,-84.8 23.68,-84.8 23.68,-48.8 196.32,-48.8 196.32,-84.8"/>
<text text-anchor="middle" x="110" y="-62.6" font-family="Times,serif" font-size="14.00">BlockchainStatsComponent</text>
</g>
<!-- BlockchainStatsComponent&#45;&gt;BlockchainModule -->
<g id="edge5" class="edge">
<title>BlockchainStatsComponent&#45;&gt;BlockchainModule</title>
<path fill="none" stroke="black" d="M110,-85.09C110,-107.01 110,-140.8 110,-140.8 110,-140.8 585.32,-140.8 585.32,-140.8"/>
<polygon fill="black" stroke="black" points="585.32,-144.3 595.32,-140.8 585.32,-137.3 585.32,-144.3"/>
</g>
<!-- BlockchainComponent  -->
<g id="node9" class="node">
<title>BlockchainComponent </title>
<polygon fill="#fb8072" stroke="black" points="731.09,-214.8 582.91,-214.8 582.91,-178.8 731.09,-178.8 731.09,-214.8"/>
<text text-anchor="middle" x="657" y="-192.6" font-family="Times,serif" font-size="14.00">BlockchainComponent </text>
</g>
<!-- BlockchainModule&#45;&gt;BlockchainComponent  -->
<g id="edge8" class="edge">
<title>BlockchainModule&#45;&gt;BlockchainComponent </title>
<path fill="none" stroke="black" stroke-dasharray="5,2" d="M657,-149.91C657,-149.91 657,-168.79 657,-168.79"/>
<polygon fill="black" stroke="black" points="653.5,-168.79 657,-178.79 660.5,-168.79 653.5,-168.79"/>
</g>
<!-- ChartModule -->
<g id="node7" class="node">
<title>ChartModule</title>
<polygon fill="#8dd3c7" stroke="black" points="1150.15,-84.8 1147.15,-88.8 1126.15,-88.8 1123.15,-84.8 1059.85,-84.8 1059.85,-48.8 1150.15,-48.8 1150.15,-84.8"/>
<text text-anchor="middle" x="1105" y="-62.6" font-family="Times,serif" font-size="14.00">ChartModule</text>
</g>
<!-- ChartModule&#45;&gt;BlockchainModule -->
<g id="edge6" class="edge">
<title>ChartModule&#45;&gt;BlockchainModule</title>
<path fill="none" stroke="black" d="M1105,-85.09C1105,-107.01 1105,-140.8 1105,-140.8 1105,-140.8 728.82,-140.8 728.82,-140.8"/>
<polygon fill="black" stroke="black" points="728.82,-137.3 718.82,-140.8 728.82,-144.3 728.82,-137.3"/>
</g>
<!-- TranslateModule -->
<g id="node8" class="node">
<title>TranslateModule</title>
<polygon fill="#8dd3c7" stroke="black" points="1041.63,-84.8 1038.63,-88.8 1017.63,-88.8 1014.63,-84.8 930.37,-84.8 930.37,-48.8 1041.63,-48.8 1041.63,-84.8"/>
<text text-anchor="middle" x="986" y="-62.6" font-family="Times,serif" font-size="14.00">TranslateModule</text>
</g>
<!-- TranslateModule&#45;&gt;BlockchainModule -->
<g id="edge7" class="edge">
<title>TranslateModule&#45;&gt;BlockchainModule</title>
<path fill="none" stroke="black" d="M986,-84.91C986,-104.14 986,-131.8 986,-131.8 986,-131.8 728.88,-131.8 728.88,-131.8"/>
<polygon fill="black" stroke="black" points="728.88,-128.3 718.88,-131.8 728.88,-135.3 728.88,-128.3"/>
</g>
</g>
</svg>
