<?xml version="1.0" encoding="UTF-8" standalone="no"?>
<!DOCTYPE svg PUBLIC "-//W3C//DTD SVG 1.1//EN"
 "http://www.w3.org/Graphics/SVG/1.1/DTD/svg11.dtd">
<!-- Generated by graphviz version 2.47.3 (20210619.1520)
 -->
<!-- Title: dependencies Pages: 1 -->
<svg width="1510pt" height="247pt"
 viewBox="0.00 0.00 1510.00 246.80" xmlns="http://www.w3.org/2000/svg" xmlns:xlink="http://www.w3.org/1999/xlink">
<g id="graph0" class="graph" transform="scale(1 1) rotate(0) translate(4 242.8)">
<title>dependencies</title>
<polygon fill="white" stroke="transparent" points="-4,4 -4,-242.8 1506,-242.8 1506,4 -4,4"/>
<text text-anchor="middle" x="751" y="-8.2" font-family="sans-serif" font-size="14.00">dependencies</text>
<g id="clust1" class="cluster">
<title>cluster_BlockchainModule</title>
<polygon fill="none" stroke="black" stroke-dasharray="1,5" points="8,-32.8 8,-230.8 1494,-230.8 1494,-32.8 8,-32.8"/>
</g>
<g id="clust9" class="cluster">
<title>cluster_BlockchainModule_imports</title>
<polygon fill="none" stroke="black" points="1126,-40.8 1126,-92.8 1486,-92.8 1486,-40.8 1126,-40.8"/>
</g>
<g id="clust10" class="cluster">
<title>cluster_BlockchainModule_exports</title>
<polygon fill="none" stroke="black" points="779,-170.8 779,-222.8 943,-222.8 943,-170.8 779,-170.8"/>
</g>
<g id="clust2" class="cluster">
<title>cluster_BlockchainModule_declarations</title>
<polygon fill="none" stroke="black" points="16,-40.8 16,-92.8 1118,-92.8 1118,-40.8 16,-40.8"/>
</g>
<!-- BlockDetailsComponent -->
<g id="node1" class="node">
<title>BlockDetailsComponent</title>
<polygon fill="#ffffb3" stroke="black" points="1110.43,-84.8 955.57,-84.8 955.57,-48.8 1110.43,-48.8 1110.43,-84.8"/>
<text text-anchor="middle" x="1033" y="-62.6" font-family="Times,serif" font-size="14.00">BlockDetailsComponent</text>
</g>
<!-- BlockchainModule -->
<g id="node7" class="node">
<title>BlockchainModule</title>
<polygon fill="#8dd3c7" stroke="black" points="922.81,-149.8 919.81,-153.8 898.81,-153.8 895.81,-149.8 799.19,-149.8 799.19,-113.8 922.81,-113.8 922.81,-149.8"/>
<text text-anchor="middle" x="861" y="-127.6" font-family="Times,serif" font-size="14.00">BlockchainModule</text>
</g>
<!-- BlockDetailsComponent&#45;&gt;BlockchainModule -->
<g id="edge1" class="edge">
<title>BlockDetailsComponent&#45;&gt;BlockchainModule</title>
<path fill="none" stroke="black" d="M1033,-84.81C1033,-100.85 1033,-121.8 1033,-121.8 1033,-121.8 933.1,-121.8 933.1,-121.8"/>
<polygon fill="black" stroke="black" points="933.1,-118.3 923.1,-121.8 933.1,-125.3 933.1,-118.3"/>
</g>
<!-- BlockLedgerComponent -->
<g id="node2" class="node">
<title>BlockLedgerComponent</title>
<polygon fill="#ffffb3" stroke="black" points="938.42,-84.8 783.58,-84.8 783.58,-48.8 938.42,-48.8 938.42,-84.8"/>
<text text-anchor="middle" x="861" y="-62.6" font-family="Times,serif" font-size="14.00">BlockLedgerComponent</text>
</g>
<!-- BlockLedgerComponent&#45;&gt;BlockchainModule -->
<g id="edge2" class="edge">
<title>BlockLedgerComponent&#45;&gt;BlockchainModule</title>
<path fill="none" stroke="black" d="M861,-84.91C861,-84.91 861,-103.79 861,-103.79"/>
<polygon fill="black" stroke="black" points="857.5,-103.79 861,-113.79 864.5,-103.79 857.5,-103.79"/>
</g>
<!-- BlockTransactionsComponent -->
<g id="node3" class="node">
<title>BlockTransactionsComponent</title>
<polygon fill="#ffffb3" stroke="black" points="766.3,-84.8 579.7,-84.8 579.7,-48.8 766.3,-48.8 766.3,-84.8"/>
<text text-anchor="middle" x="673" y="-62.6" font-family="Times,serif" font-size="14.00">BlockTransactionsComponent</text>
</g>
<!-- BlockTransactionsComponent&#45;&gt;BlockchainModule -->
<g id="edge3" class="edge">
<title>BlockTransactionsComponent&#45;&gt;BlockchainModule</title>
<path fill="none" stroke="black" d="M673,-84.81C673,-100.85 673,-121.8 673,-121.8 673,-121.8 789.18,-121.8 789.18,-121.8"/>
<polygon fill="black" stroke="black" points="789.18,-125.3 799.18,-121.8 789.18,-118.3 789.18,-125.3"/>
</g>
<!-- BlockchainComponent -->
<g id="node4" class="node">
<title>BlockchainComponent</title>
<polygon fill="#ffffb3" stroke="black" points="561.59,-84.8 416.41,-84.8 416.41,-48.8 561.59,-48.8 561.59,-84.8"/>
<text text-anchor="middle" x="489" y="-62.6" font-family="Times,serif" font-size="14.00">BlockchainComponent</text>
</g>
<!-- BlockchainComponent&#45;&gt;BlockchainModule -->
<g id="edge4" class="edge">
<title>BlockchainComponent&#45;&gt;BlockchainModule</title>
<path fill="none" stroke="black" d="M489,-85.07C489,-103.36 489,-128.8 489,-128.8 489,-128.8 789.15,-128.8 789.15,-128.8"/>
<polygon fill="black" stroke="black" points="789.15,-132.3 799.15,-128.8 789.15,-125.3 789.15,-132.3"/>
</g>
<!-- BlockchainConfigComponent -->
<g id="node5" class="node">
<title>BlockchainConfigComponent</title>
<polygon fill="#ffffb3" stroke="black" points="397.98,-84.8 214.02,-84.8 214.02,-48.8 397.98,-48.8 397.98,-84.8"/>
<text text-anchor="middle" x="306" y="-62.6" font-family="Times,serif" font-size="14.00">BlockchainConfigComponent</text>
</g>
<!-- BlockchainConfigComponent&#45;&gt;BlockchainModule -->
<g id="edge5" class="edge">
<title>BlockchainConfigComponent&#45;&gt;BlockchainModule</title>
<path fill="none" stroke="black" d="M306,-84.93C306,-105.37 306,-135.8 306,-135.8 306,-135.8 789.22,-135.8 789.22,-135.8"/>
<polygon fill="black" stroke="black" points="789.22,-139.3 799.22,-135.8 789.22,-132.3 789.22,-139.3"/>
</g>
<!-- BlockchainStatsComponent -->
<g id="node6" class="node">
<title>BlockchainStatsComponent</title>
<polygon fill="#ffffb3" stroke="black" points="196.32,-84.8 23.68,-84.8 23.68,-48.8 196.32,-48.8 196.32,-84.8"/>
<text text-anchor="middle" x="110" y="-62.6" font-family="Times,serif" font-size="14.00">BlockchainStatsComponent</text>
</g>
<!-- BlockchainStatsComponent&#45;&gt;BlockchainModule -->
<g id="edge6" class="edge">
<title>BlockchainStatsComponent&#45;&gt;BlockchainModule</title>
<path fill="none" stroke="black" d="M110,-84.81C110,-107.29 110,-142.8 110,-142.8 110,-142.8 789.22,-142.8 789.22,-142.8"/>
<polygon fill="black" stroke="black" points="789.22,-146.3 799.22,-142.8 789.22,-139.3 789.22,-146.3"/>
</g>
<!-- BlockchainComponent  -->
<g id="node11" class="node">
<title>BlockchainComponent </title>
<polygon fill="#fb8072" stroke="black" points="935.09,-214.8 786.91,-214.8 786.91,-178.8 935.09,-178.8 935.09,-214.8"/>
<text text-anchor="middle" x="861" y="-192.6" font-family="Times,serif" font-size="14.00">BlockchainComponent </text>
</g>
<!-- BlockchainModule&#45;&gt;BlockchainComponent  -->
<g id="edge10" class="edge">
<title>BlockchainModule&#45;&gt;BlockchainComponent </title>
<path fill="none" stroke="black" stroke-dasharray="5,2" d="M861,-149.91C861,-149.91 861,-168.79 861,-168.79"/>
<polygon fill="black" stroke="black" points="857.5,-168.79 861,-178.79 864.5,-168.79 857.5,-168.79"/>
</g>
<!-- ChartModule -->
<g id="node8" class="node">
<title>ChartModule</title>
<polygon fill="#8dd3c7" stroke="black" points="1478.15,-84.8 1475.15,-88.8 1454.15,-88.8 1451.15,-84.8 1387.85,-84.8 1387.85,-48.8 1478.15,-48.8 1478.15,-84.8"/>
<text text-anchor="middle" x="1433" y="-62.6" font-family="Times,serif" font-size="14.00">ChartModule</text>
</g>
<!-- ChartModule&#45;&gt;BlockchainModule -->
<g id="edge7" class="edge">
<title>ChartModule&#45;&gt;BlockchainModule</title>
<path fill="none" stroke="black" d="M1433,-84.81C1433,-107.29 1433,-142.8 1433,-142.8 1433,-142.8 932.76,-142.8 932.76,-142.8"/>
<polygon fill="black" stroke="black" points="932.76,-139.3 922.76,-142.8 932.76,-146.3 932.76,-139.3"/>
</g>
<!-- ConsoleModule -->
<g id="node9" class="node">
<title>ConsoleModule</title>
<polygon fill="#8dd3c7" stroke="black" points="1369.94,-84.8 1366.94,-88.8 1345.94,-88.8 1342.94,-84.8 1264.06,-84.8 1264.06,-48.8 1369.94,-48.8 1369.94,-84.8"/>
<text text-anchor="middle" x="1317" y="-62.6" font-family="Times,serif" font-size="14.00">ConsoleModule</text>
</g>
<!-- ConsoleModule&#45;&gt;BlockchainModule -->
<g id="edge8" class="edge">
<title>ConsoleModule&#45;&gt;BlockchainModule</title>
<path fill="none" stroke="black" d="M1317,-84.93C1317,-105.37 1317,-135.8 1317,-135.8 1317,-135.8 932.97,-135.8 932.97,-135.8"/>
<polygon fill="black" stroke="black" points="932.97,-132.3 922.97,-135.8 932.97,-139.3 932.97,-132.3"/>
</g>
<!-- TranslateModule -->
<g id="node10" class="node">
<title>TranslateModule</title>
<polygon fill="#8dd3c7" stroke="black" points="1245.63,-84.8 1242.63,-88.8 1221.63,-88.8 1218.63,-84.8 1134.37,-84.8 1134.37,-48.8 1245.63,-48.8 1245.63,-84.8"/>
<text text-anchor="middle" x="1190" y="-62.6" font-family="Times,serif" font-size="14.00">TranslateModule</text>
</g>
<!-- TranslateModule&#45;&gt;BlockchainModule -->
<g id="edge9" class="edge">
<title>TranslateModule&#45;&gt;BlockchainModule</title>
<path fill="none" stroke="black" d="M1190,-85.07C1190,-103.36 1190,-128.8 1190,-128.8 1190,-128.8 932.88,-128.8 932.88,-128.8"/>
<polygon fill="black" stroke="black" points="932.88,-125.3 922.88,-128.8 932.88,-132.3 932.88,-125.3"/>
</g>
</g>
</svg>
