<?xml version="1.0" encoding="UTF-8" standalone="no"?>
<!DOCTYPE svg PUBLIC "-//W3C//DTD SVG 1.1//EN"
 "http://www.w3.org/Graphics/SVG/1.1/DTD/svg11.dtd">
<!-- Generated by graphviz version 2.47.3 (20210619.1520)
 -->
<!-- Title: dependencies Pages: 1 -->
<svg width="1386pt" height="247pt"
 viewBox="0.00 0.00 1386.00 246.80" xmlns="http://www.w3.org/2000/svg" xmlns:xlink="http://www.w3.org/1999/xlink">
<g id="graph0" class="graph" transform="scale(1 1) rotate(0) translate(4 242.8)">
<title>dependencies</title>
<polygon fill="white" stroke="transparent" points="-4,4 -4,-242.8 1382,-242.8 1382,4 -4,4"/>
<text text-anchor="middle" x="689" y="-8.2" font-family="sans-serif" font-size="14.00">dependencies</text>
<g id="clust1" class="cluster">
<title>cluster_BlockchainModule</title>
<polygon fill="none" stroke="black" stroke-dasharray="1,5" points="8,-32.8 8,-230.8 1370,-230.8 1370,-32.8 8,-32.8"/>
</g>
<g id="clust2" class="cluster">
<title>cluster_BlockchainModule_declarations</title>
<polygon fill="none" stroke="black" points="260,-40.8 260,-92.8 1362,-92.8 1362,-40.8 260,-40.8"/>
</g>
<g id="clust10" class="cluster">
<title>cluster_BlockchainModule_exports</title>
<polygon fill="none" stroke="black" points="559,-170.8 559,-222.8 723,-222.8 723,-170.8 559,-170.8"/>
</g>
<g id="clust9" class="cluster">
<title>cluster_BlockchainModule_imports</title>
<polygon fill="none" stroke="black" points="16,-40.8 16,-92.8 252,-92.8 252,-40.8 16,-40.8"/>
</g>
<!-- BlockDetailsComponent -->
<g id="node1" class="node">
<title>BlockDetailsComponent</title>
<polygon fill="#ffffb3" stroke="black" points="1354.43,-84.8 1199.57,-84.8 1199.57,-48.8 1354.43,-48.8 1354.43,-84.8"/>
<text text-anchor="middle" x="1277" y="-62.6" font-family="Times,serif" font-size="14.00">BlockDetailsComponent</text>
</g>
<!-- BlockchainModule -->
<g id="node7" class="node">
<title>BlockchainModule</title>
<polygon fill="#8dd3c7" stroke="black" points="702.81,-149.8 699.81,-153.8 678.81,-153.8 675.81,-149.8 579.19,-149.8 579.19,-113.8 702.81,-113.8 702.81,-149.8"/>
<text text-anchor="middle" x="641" y="-127.6" font-family="Times,serif" font-size="14.00">BlockchainModule</text>
</g>
<!-- BlockDetailsComponent&#45;&gt;BlockchainModule -->
<g id="edge1" class="edge">
<title>BlockDetailsComponent&#45;&gt;BlockchainModule</title>
<path fill="none" stroke="black" d="M1277,-85.09C1277,-107.01 1277,-140.8 1277,-140.8 1277,-140.8 712.85,-140.8 712.85,-140.8"/>
<polygon fill="black" stroke="black" points="712.85,-137.3 702.85,-140.8 712.85,-144.3 712.85,-137.3"/>
</g>
<!-- BlockLedgerComponent -->
<g id="node2" class="node">
<title>BlockLedgerComponent</title>
<polygon fill="#ffffb3" stroke="black" points="1182.42,-84.8 1027.58,-84.8 1027.58,-48.8 1182.42,-48.8 1182.42,-84.8"/>
<text text-anchor="middle" x="1105" y="-62.6" font-family="Times,serif" font-size="14.00">BlockLedgerComponent</text>
</g>
<!-- BlockLedgerComponent&#45;&gt;BlockchainModule -->
<g id="edge2" class="edge">
<title>BlockLedgerComponent&#45;&gt;BlockchainModule</title>
<path fill="none" stroke="black" d="M1105,-84.91C1105,-104.14 1105,-131.8 1105,-131.8 1105,-131.8 713.1,-131.8 713.1,-131.8"/>
<polygon fill="black" stroke="black" points="713.1,-128.3 703.1,-131.8 713.1,-135.3 713.1,-128.3"/>
</g>
<!-- BlockTransactionsComponent -->
<g id="node3" class="node">
<title>BlockTransactionsComponent</title>
<polygon fill="#ffffb3" stroke="black" points="1010.3,-84.8 823.7,-84.8 823.7,-48.8 1010.3,-48.8 1010.3,-84.8"/>
<text text-anchor="middle" x="917" y="-62.6" font-family="Times,serif" font-size="14.00">BlockTransactionsComponent</text>
</g>
<!-- BlockTransactionsComponent&#45;&gt;BlockchainModule -->
<g id="edge3" class="edge">
<title>BlockTransactionsComponent&#45;&gt;BlockchainModule</title>
<path fill="none" stroke="black" d="M917,-84.83C917,-101.2 917,-122.8 917,-122.8 917,-122.8 712.94,-122.8 712.94,-122.8"/>
<polygon fill="black" stroke="black" points="712.94,-119.3 702.94,-122.8 712.94,-126.3 712.94,-119.3"/>
</g>
<!-- BlockchainComponent -->
<g id="node4" class="node">
<title>BlockchainComponent</title>
<polygon fill="#ffffb3" stroke="black" points="805.59,-84.8 660.41,-84.8 660.41,-48.8 805.59,-48.8 805.59,-84.8"/>
<text text-anchor="middle" x="733" y="-62.6" font-family="Times,serif" font-size="14.00">BlockchainComponent</text>
</g>
<!-- BlockchainComponent&#45;&gt;BlockchainModule -->
<g id="edge4" class="edge">
<title>BlockchainComponent&#45;&gt;BlockchainModule</title>
<path fill="none" stroke="black" d="M681.55,-84.91C681.55,-84.91 681.55,-103.79 681.55,-103.79"/>
<polygon fill="black" stroke="black" points="678.05,-103.79 681.55,-113.79 685.05,-103.79 678.05,-103.79"/>
</g>
<!-- BlockchainConfigComponent -->
<g id="node5" class="node">
<title>BlockchainConfigComponent</title>
<polygon fill="#ffffb3" stroke="black" points="641.98,-84.8 458.02,-84.8 458.02,-48.8 641.98,-48.8 641.98,-84.8"/>
<text text-anchor="middle" x="550" y="-62.6" font-family="Times,serif" font-size="14.00">BlockchainConfigComponent</text>
</g>
<!-- BlockchainConfigComponent&#45;&gt;BlockchainModule -->
<g id="edge5" class="edge">
<title>BlockchainConfigComponent&#45;&gt;BlockchainModule</title>
<path fill="none" stroke="black" d="M610.67,-84.91C610.67,-84.91 610.67,-103.79 610.67,-103.79"/>
<polygon fill="black" stroke="black" points="607.17,-103.79 610.67,-113.79 614.17,-103.79 607.17,-103.79"/>
</g>
<!-- BlockchainStatsComponent -->
<g id="node6" class="node">
<title>BlockchainStatsComponent</title>
<polygon fill="#ffffb3" stroke="black" points="440.32,-84.8 267.68,-84.8 267.68,-48.8 440.32,-48.8 440.32,-84.8"/>
<text text-anchor="middle" x="354" y="-62.6" font-family="Times,serif" font-size="14.00">BlockchainStatsComponent</text>
</g>
<!-- BlockchainStatsComponent&#45;&gt;BlockchainModule -->
<g id="edge6" class="edge">
<title>BlockchainStatsComponent&#45;&gt;BlockchainModule</title>
<path fill="none" stroke="black" d="M354,-84.83C354,-101.2 354,-122.8 354,-122.8 354,-122.8 569.08,-122.8 569.08,-122.8"/>
<polygon fill="black" stroke="black" points="569.08,-126.3 579.08,-122.8 569.08,-119.3 569.08,-126.3"/>
</g>
<!-- BlockchainComponent  -->
<g id="node10" class="node">
<title>BlockchainComponent </title>
<polygon fill="#fb8072" stroke="black" points="715.09,-214.8 566.91,-214.8 566.91,-178.8 715.09,-178.8 715.09,-214.8"/>
<text text-anchor="middle" x="641" y="-192.6" font-family="Times,serif" font-size="14.00">BlockchainComponent </text>
</g>
<!-- BlockchainModule&#45;&gt;BlockchainComponent  -->
<g id="edge9" class="edge">
<title>BlockchainModule&#45;&gt;BlockchainComponent </title>
<path fill="none" stroke="black" stroke-dasharray="5,2" d="M641,-149.91C641,-149.91 641,-168.79 641,-168.79"/>
<polygon fill="black" stroke="black" points="637.5,-168.79 641,-178.79 644.5,-168.79 637.5,-168.79"/>
</g>
<!-- ChartModule -->
<g id="node8" class="node">
<title>ChartModule</title>
<polygon fill="#8dd3c7" stroke="black" points="244.15,-84.8 241.15,-88.8 220.15,-88.8 217.15,-84.8 153.85,-84.8 153.85,-48.8 244.15,-48.8 244.15,-84.8"/>
<text text-anchor="middle" x="199" y="-62.6" font-family="Times,serif" font-size="14.00">ChartModule</text>
</g>
<!-- ChartModule&#45;&gt;BlockchainModule -->
<g id="edge7" class="edge">
<title>ChartModule&#45;&gt;BlockchainModule</title>
<path fill="none" stroke="black" d="M199,-84.91C199,-104.14 199,-131.8 199,-131.8 199,-131.8 569.08,-131.8 569.08,-131.8"/>
<polygon fill="black" stroke="black" points="569.08,-135.3 579.08,-131.8 569.08,-128.3 569.08,-135.3"/>
</g>
<!-- TranslateModule -->
<g id="node9" class="node">
<title>TranslateModule</title>
<polygon fill="#8dd3c7" stroke="black" points="135.63,-84.8 132.63,-88.8 111.63,-88.8 108.63,-84.8 24.37,-84.8 24.37,-48.8 135.63,-48.8 135.63,-84.8"/>
<text text-anchor="middle" x="80" y="-62.6" font-family="Times,serif" font-size="14.00">TranslateModule</text>
</g>
<!-- TranslateModule&#45;&gt;BlockchainModule -->
<g id="edge8" class="edge">
<title>TranslateModule&#45;&gt;BlockchainModule</title>
<path fill="none" stroke="black" d="M80,-85.09C80,-107.01 80,-140.8 80,-140.8 80,-140.8 569.09,-140.8 569.09,-140.8"/>
<polygon fill="black" stroke="black" points="569.09,-144.3 579.09,-140.8 569.09,-137.3 569.09,-144.3"/>
</g>
</g>
</svg>
