<?xml version="1.0" encoding="UTF-8" standalone="no"?>
<!DOCTYPE svg PUBLIC "-//W3C//DTD SVG 1.1//EN"
 "http://www.w3.org/Graphics/SVG/1.1/DTD/svg11.dtd">
<!-- Generated by graphviz version 2.47.3 (20210619.1520)
 -->
<!-- Title: dependencies Pages: 1 -->
<svg width="276pt" height="174pt"
 viewBox="0.00 0.00 276.00 173.80" xmlns="http://www.w3.org/2000/svg" xmlns:xlink="http://www.w3.org/1999/xlink">
<g id="graph0" class="graph" transform="scale(1 1) rotate(0) translate(4 169.8)">
<title>dependencies</title>
<polygon fill="white" stroke="transparent" points="-4,4 -4,-169.8 272,-169.8 272,4 -4,4"/>
<text text-anchor="middle" x="134" y="-8.2" font-family="sans-serif" font-size="14.00">dependencies</text>
<g id="clust1" class="cluster">
<title>cluster_UserModule</title>
<polygon fill="none" stroke="black" stroke-dasharray="1,5" points="8,-32.8 8,-157.8 260,-157.8 260,-32.8 8,-32.8"/>
</g>
<g id="clust2" class="cluster">
<title>cluster_UserModule_declarations</title>
<polygon fill="none" stroke="black" points="128,-40.8 128,-92.8 252,-92.8 252,-40.8 128,-40.8"/>
</g>
<g id="clust4" class="cluster">
<title>cluster_UserModule_imports</title>
<polygon fill="none" stroke="black" points="16,-40.8 16,-92.8 120,-92.8 120,-40.8 16,-40.8"/>
</g>
<!-- UserComponent -->
<g id="node1" class="node">
<title>UserComponent</title>
<polygon fill="#ffffb3" stroke="black" points="243.76,-84.8 136.24,-84.8 136.24,-48.8 243.76,-48.8 243.76,-84.8"/>
<text text-anchor="middle" x="190" y="-62.6" font-family="Times,serif" font-size="14.00">UserComponent</text>
</g>
<!-- UserModule -->
<g id="node2" class="node">
<title>UserModule</title>
<polygon fill="#8dd3c7" stroke="black" points="171.98,-149.8 168.98,-153.8 147.98,-153.8 144.98,-149.8 86.02,-149.8 86.02,-113.8 171.98,-113.8 171.98,-149.8"/>
<text text-anchor="middle" x="129" y="-127.6" font-family="Times,serif" font-size="14.00">UserModule</text>
</g>
<!-- UserComponent&#45;&gt;UserModule -->
<g id="edge1" class="edge">
<title>UserComponent&#45;&gt;UserModule</title>
<path fill="none" stroke="black" d="M154.05,-84.91C154.05,-84.91 154.05,-103.79 154.05,-103.79"/>
<polygon fill="black" stroke="black" points="150.55,-103.79 154.05,-113.79 157.55,-103.79 150.55,-103.79"/>
</g>
<!-- AuthModule -->
<g id="node3" class="node">
<title>AuthModule</title>
<polygon fill="#8dd3c7" stroke="black" points="111.55,-84.8 108.55,-88.8 87.55,-88.8 84.55,-84.8 24.45,-84.8 24.45,-48.8 111.55,-48.8 111.55,-84.8"/>
<text text-anchor="middle" x="68" y="-62.6" font-family="Times,serif" font-size="14.00">AuthModule</text>
</g>
<!-- AuthModule&#45;&gt;UserModule -->
<g id="edge2" class="edge">
<title>AuthModule&#45;&gt;UserModule</title>
<path fill="none" stroke="black" d="M98.89,-84.91C98.89,-84.91 98.89,-103.79 98.89,-103.79"/>
<polygon fill="black" stroke="black" points="95.39,-103.79 98.89,-113.79 102.39,-103.79 95.39,-103.79"/>
</g>
</g>
</svg>
