<?xml version="1.0" encoding="UTF-8" standalone="no"?>
<!DOCTYPE svg PUBLIC "-//W3C//DTD SVG 1.1//EN"
 "http://www.w3.org/Graphics/SVG/1.1/DTD/svg11.dtd">
<!-- Generated by graphviz version 2.47.3 (20210619.1520)
 -->
<!-- Title: dependencies Pages: 1 -->
<svg width="889pt" height="247pt"
 viewBox="0.00 0.00 889.00 246.80" xmlns="http://www.w3.org/2000/svg" xmlns:xlink="http://www.w3.org/1999/xlink">
<g id="graph0" class="graph" transform="scale(1 1) rotate(0) translate(4 242.8)">
<title>dependencies</title>
<polygon fill="white" stroke="transparent" points="-4,4 -4,-242.8 885,-242.8 885,4 -4,4"/>
<text text-anchor="middle" x="440.5" y="-8.2" font-family="sans-serif" font-size="14.00">dependencies</text>
<g id="clust1" class="cluster">
<title>cluster_AppModule</title>
<polygon fill="none" stroke="black" stroke-dasharray="1,5" points="8,-32.8 8,-230.8 873,-230.8 873,-32.8 8,-32.8"/>
</g>
<g id="clust4" class="cluster">
<title>cluster_AppModule_imports</title>
<polygon fill="none" stroke="black" points="146,-40.8 146,-92.8 865,-92.8 865,-40.8 146,-40.8"/>
</g>
<g id="clust6" class="cluster">
<title>cluster_AppModule_bootstrap</title>
<polygon fill="none" stroke="black" points="377,-170.8 377,-222.8 501,-222.8 501,-170.8 377,-170.8"/>
</g>
<g id="clust2" class="cluster">
<title>cluster_AppModule_declarations</title>
<polygon fill="none" stroke="black" points="16,-40.8 16,-92.8 138,-92.8 138,-40.8 16,-40.8"/>
</g>
<!-- AppComponent -->
<g id="node1" class="node">
<title>AppComponent</title>
<polygon fill="#ffffb3" stroke="black" points="129.94,-84.8 24.06,-84.8 24.06,-48.8 129.94,-48.8 129.94,-84.8"/>
<text text-anchor="middle" x="77" y="-62.6" font-family="Times,serif" font-size="14.00">AppComponent</text>
</g>
<!-- AppModule -->
<g id="node2" class="node">
<title>AppModule</title>
<polygon fill="#8dd3c7" stroke="black" points="480.66,-149.8 477.66,-153.8 456.66,-153.8 453.66,-149.8 397.34,-149.8 397.34,-113.8 480.66,-113.8 480.66,-149.8"/>
<text text-anchor="middle" x="439" y="-127.6" font-family="Times,serif" font-size="14.00">AppModule</text>
</g>
<!-- AppComponent&#45;&gt;AppModule -->
<g id="edge1" class="edge">
<title>AppComponent&#45;&gt;AppModule</title>
<path fill="none" stroke="black" d="M77,-85.09C77,-107.01 77,-140.8 77,-140.8 77,-140.8 387.12,-140.8 387.12,-140.8"/>
<polygon fill="black" stroke="black" points="387.12,-144.3 397.12,-140.8 387.12,-137.3 387.12,-144.3"/>
</g>
<!-- AppComponent  -->
<g id="node9" class="node">
<title>AppComponent </title>
<polygon fill="#80b1d3" stroke="black" points="493.44,-214.8 384.56,-214.8 384.56,-178.8 493.44,-178.8 493.44,-214.8"/>
<text text-anchor="middle" x="439" y="-192.6" font-family="Times,serif" font-size="14.00">AppComponent </text>
</g>
<!-- AppModule&#45;&gt;AppComponent  -->
<g id="edge8" class="edge">
<title>AppModule&#45;&gt;AppComponent </title>
<path fill="none" stroke="black" stroke-dasharray="1,5" d="M439,-149.91C439,-149.91 439,-168.79 439,-168.79"/>
<polygon fill="black" stroke="black" points="435.5,-168.79 439,-178.79 442.5,-168.79 435.5,-168.79"/>
</g>
<!-- AppRoutingModule -->
<g id="node3" class="node">
<title>AppRoutingModule</title>
<polygon fill="#8dd3c7" stroke="black" points="857.27,-84.8 854.27,-88.8 833.27,-88.8 830.27,-84.8 728.73,-84.8 728.73,-48.8 857.27,-48.8 857.27,-84.8"/>
<text text-anchor="middle" x="793" y="-62.6" font-family="Times,serif" font-size="14.00">AppRoutingModule</text>
</g>
<!-- AppRoutingModule&#45;&gt;AppModule -->
<g id="edge2" class="edge">
<title>AppRoutingModule&#45;&gt;AppModule</title>
<path fill="none" stroke="black" d="M793,-85.09C793,-107.01 793,-140.8 793,-140.8 793,-140.8 491,-140.8 491,-140.8"/>
<polygon fill="black" stroke="black" points="491,-137.3 481,-140.8 491,-144.3 491,-137.3"/>
</g>
<!-- AuthModule -->
<g id="node4" class="node">
<title>AuthModule</title>
<polygon fill="#8dd3c7" stroke="black" points="710.55,-84.8 707.55,-88.8 686.55,-88.8 683.55,-84.8 623.45,-84.8 623.45,-48.8 710.55,-48.8 710.55,-84.8"/>
<text text-anchor="middle" x="667" y="-62.6" font-family="Times,serif" font-size="14.00">AuthModule</text>
</g>
<!-- AuthModule&#45;&gt;AppModule -->
<g id="edge3" class="edge">
<title>AuthModule&#45;&gt;AppModule</title>
<path fill="none" stroke="black" d="M667,-84.91C667,-104.14 667,-131.8 667,-131.8 667,-131.8 490.82,-131.8 490.82,-131.8"/>
<polygon fill="black" stroke="black" points="490.82,-128.3 480.82,-131.8 490.82,-135.3 490.82,-128.3"/>
</g>
<!-- ConsoleModule -->
<g id="node5" class="node">
<title>ConsoleModule</title>
<polygon fill="#8dd3c7" stroke="black" points="605.94,-84.8 602.94,-88.8 581.94,-88.8 578.94,-84.8 500.06,-84.8 500.06,-48.8 605.94,-48.8 605.94,-84.8"/>
<text text-anchor="middle" x="553" y="-62.6" font-family="Times,serif" font-size="14.00">ConsoleModule</text>
</g>
<!-- ConsoleModule&#45;&gt;AppModule -->
<g id="edge4" class="edge">
<title>ConsoleModule&#45;&gt;AppModule</title>
<path fill="none" stroke="black" d="M553,-84.83C553,-101.2 553,-122.8 553,-122.8 553,-122.8 490.8,-122.8 490.8,-122.8"/>
<polygon fill="black" stroke="black" points="490.8,-119.3 480.8,-122.8 490.8,-126.3 490.8,-119.3"/>
</g>
<!-- DataModule -->
<g id="node6" class="node">
<title>DataModule</title>
<polygon fill="#8dd3c7" stroke="black" points="481.98,-84.8 478.98,-88.8 457.98,-88.8 454.98,-84.8 396.02,-84.8 396.02,-48.8 481.98,-48.8 481.98,-84.8"/>
<text text-anchor="middle" x="439" y="-62.6" font-family="Times,serif" font-size="14.00">DataModule</text>
</g>
<!-- DataModule&#45;&gt;AppModule -->
<g id="edge5" class="edge">
<title>DataModule&#45;&gt;AppModule</title>
<path fill="none" stroke="black" d="M439,-84.91C439,-84.91 439,-103.79 439,-103.79"/>
<polygon fill="black" stroke="black" points="435.5,-103.79 439,-113.79 442.5,-103.79 435.5,-103.79"/>
</g>
<!-- StatusModule -->
<g id="node7" class="node">
<title>StatusModule</title>
<polygon fill="#8dd3c7" stroke="black" points="377.77,-84.8 374.77,-88.8 353.77,-88.8 350.77,-84.8 284.23,-84.8 284.23,-48.8 377.77,-48.8 377.77,-84.8"/>
<text text-anchor="middle" x="331" y="-62.6" font-family="Times,serif" font-size="14.00">StatusModule</text>
</g>
<!-- StatusModule&#45;&gt;AppModule -->
<g id="edge6" class="edge">
<title>StatusModule&#45;&gt;AppModule</title>
<path fill="none" stroke="black" d="M331,-84.83C331,-101.2 331,-122.8 331,-122.8 331,-122.8 387.24,-122.8 387.24,-122.8"/>
<polygon fill="black" stroke="black" points="387.24,-126.3 397.24,-122.8 387.24,-119.3 387.24,-126.3"/>
</g>
<!-- TranslateModule -->
<g id="node8" class="node">
<title>TranslateModule</title>
<polygon fill="#8dd3c7" stroke="black" points="265.63,-84.8 262.63,-88.8 241.63,-88.8 238.63,-84.8 154.37,-84.8 154.37,-48.8 265.63,-48.8 265.63,-84.8"/>
<text text-anchor="middle" x="210" y="-62.6" font-family="Times,serif" font-size="14.00">TranslateModule</text>
</g>
<!-- TranslateModule&#45;&gt;AppModule -->
<g id="edge7" class="edge">
<title>TranslateModule&#45;&gt;AppModule</title>
<path fill="none" stroke="black" d="M210,-84.91C210,-104.14 210,-131.8 210,-131.8 210,-131.8 387.26,-131.8 387.26,-131.8"/>
<polygon fill="black" stroke="black" points="387.26,-135.3 397.26,-131.8 387.26,-128.3 387.26,-135.3"/>
</g>
</g>
</svg>
