<?xml version="1.0" encoding="UTF-8" standalone="no"?>
<!DOCTYPE svg PUBLIC "-//W3C//DTD SVG 1.1//EN"
 "http://www.w3.org/Graphics/SVG/1.1/DTD/svg11.dtd">
<!-- Generated by graphviz version 2.47.3 (20210619.1520)
 -->
<!-- Title: dependencies Pages: 1 -->
<svg width="889pt" height="247pt"
 viewBox="0.00 0.00 889.00 246.80" xmlns="http://www.w3.org/2000/svg" xmlns:xlink="http://www.w3.org/1999/xlink">
<g id="graph0" class="graph" transform="scale(1 1) rotate(0) translate(4 242.8)">
<title>dependencies</title>
<polygon fill="white" stroke="transparent" points="-4,4 -4,-242.8 885,-242.8 885,4 -4,4"/>
<text text-anchor="middle" x="440.5" y="-8.2" font-family="sans-serif" font-size="14.00">dependencies</text>
<g id="clust1" class="cluster">
<title>cluster_AppModule</title>
<polygon fill="none" stroke="black" stroke-dasharray="1,5" points="8,-32.8 8,-230.8 873,-230.8 873,-32.8 8,-32.8"/>
</g>
<g id="clust2" class="cluster">
<title>cluster_AppModule_declarations</title>
<polygon fill="none" stroke="black" points="743,-40.8 743,-92.8 865,-92.8 865,-40.8 743,-40.8"/>
</g>
<g id="clust6" class="cluster">
<title>cluster_AppModule_bootstrap</title>
<polygon fill="none" stroke="black" points="361,-170.8 361,-222.8 485,-222.8 485,-170.8 361,-170.8"/>
</g>
<g id="clust4" class="cluster">
<title>cluster_AppModule_imports</title>
<polygon fill="none" stroke="black" points="16,-40.8 16,-92.8 735,-92.8 735,-40.8 16,-40.8"/>
</g>
<!-- AppComponent -->
<g id="node1" class="node">
<title>AppComponent</title>
<polygon fill="#ffffb3" stroke="black" points="856.94,-84.8 751.06,-84.8 751.06,-48.8 856.94,-48.8 856.94,-84.8"/>
<text text-anchor="middle" x="804" y="-62.6" font-family="Times,serif" font-size="14.00">AppComponent</text>
</g>
<!-- AppModule -->
<g id="node2" class="node">
<title>AppModule</title>
<polygon fill="#8dd3c7" stroke="black" points="464.66,-149.8 461.66,-153.8 440.66,-153.8 437.66,-149.8 381.34,-149.8 381.34,-113.8 464.66,-113.8 464.66,-149.8"/>
<text text-anchor="middle" x="423" y="-127.6" font-family="Times,serif" font-size="14.00">AppModule</text>
</g>
<!-- AppComponent&#45;&gt;AppModule -->
<g id="edge1" class="edge">
<title>AppComponent&#45;&gt;AppModule</title>
<path fill="none" stroke="black" d="M804,-85.09C804,-107.01 804,-140.8 804,-140.8 804,-140.8 474.86,-140.8 474.86,-140.8"/>
<polygon fill="black" stroke="black" points="474.86,-137.3 464.86,-140.8 474.86,-144.3 474.86,-137.3"/>
</g>
<!-- AppComponent  -->
<g id="node9" class="node">
<title>AppComponent </title>
<polygon fill="#80b1d3" stroke="black" points="477.44,-214.8 368.56,-214.8 368.56,-178.8 477.44,-178.8 477.44,-214.8"/>
<text text-anchor="middle" x="423" y="-192.6" font-family="Times,serif" font-size="14.00">AppComponent </text>
</g>
<!-- AppModule&#45;&gt;AppComponent  -->
<g id="edge8" class="edge">
<title>AppModule&#45;&gt;AppComponent </title>
<path fill="none" stroke="black" stroke-dasharray="1,5" d="M423,-149.91C423,-149.91 423,-168.79 423,-168.79"/>
<polygon fill="black" stroke="black" points="419.5,-168.79 423,-178.79 426.5,-168.79 419.5,-168.79"/>
</g>
<!-- AppRoutingModule -->
<g id="node3" class="node">
<title>AppRoutingModule</title>
<polygon fill="#8dd3c7" stroke="black" points="727.27,-84.8 724.27,-88.8 703.27,-88.8 700.27,-84.8 598.73,-84.8 598.73,-48.8 727.27,-48.8 727.27,-84.8"/>
<text text-anchor="middle" x="663" y="-62.6" font-family="Times,serif" font-size="14.00">AppRoutingModule</text>
</g>
<!-- AppRoutingModule&#45;&gt;AppModule -->
<g id="edge2" class="edge">
<title>AppRoutingModule&#45;&gt;AppModule</title>
<path fill="none" stroke="black" d="M663,-84.91C663,-104.14 663,-131.8 663,-131.8 663,-131.8 474.8,-131.8 474.8,-131.8"/>
<polygon fill="black" stroke="black" points="474.8,-128.3 464.8,-131.8 474.8,-135.3 474.8,-128.3"/>
</g>
<!-- AuthModule -->
<g id="node4" class="node">
<title>AuthModule</title>
<polygon fill="#8dd3c7" stroke="black" points="580.55,-84.8 577.55,-88.8 556.55,-88.8 553.55,-84.8 493.45,-84.8 493.45,-48.8 580.55,-48.8 580.55,-84.8"/>
<text text-anchor="middle" x="537" y="-62.6" font-family="Times,serif" font-size="14.00">AuthModule</text>
</g>
<!-- AuthModule&#45;&gt;AppModule -->
<g id="edge3" class="edge">
<title>AuthModule&#45;&gt;AppModule</title>
<path fill="none" stroke="black" d="M537,-84.83C537,-101.2 537,-122.8 537,-122.8 537,-122.8 474.8,-122.8 474.8,-122.8"/>
<polygon fill="black" stroke="black" points="474.8,-119.3 464.8,-122.8 474.8,-126.3 474.8,-119.3"/>
</g>
<!-- ConsoleModule -->
<g id="node5" class="node">
<title>ConsoleModule</title>
<polygon fill="#8dd3c7" stroke="black" points="475.94,-84.8 472.94,-88.8 451.94,-88.8 448.94,-84.8 370.06,-84.8 370.06,-48.8 475.94,-48.8 475.94,-84.8"/>
<text text-anchor="middle" x="423" y="-62.6" font-family="Times,serif" font-size="14.00">ConsoleModule</text>
</g>
<!-- ConsoleModule&#45;&gt;AppModule -->
<g id="edge4" class="edge">
<title>ConsoleModule&#45;&gt;AppModule</title>
<path fill="none" stroke="black" d="M423,-84.91C423,-84.91 423,-103.79 423,-103.79"/>
<polygon fill="black" stroke="black" points="419.5,-103.79 423,-113.79 426.5,-103.79 419.5,-103.79"/>
</g>
<!-- DataModule -->
<g id="node6" class="node">
<title>DataModule</title>
<polygon fill="#8dd3c7" stroke="black" points="351.98,-84.8 348.98,-88.8 327.98,-88.8 324.98,-84.8 266.02,-84.8 266.02,-48.8 351.98,-48.8 351.98,-84.8"/>
<text text-anchor="middle" x="309" y="-62.6" font-family="Times,serif" font-size="14.00">DataModule</text>
</g>
<!-- DataModule&#45;&gt;AppModule -->
<g id="edge5" class="edge">
<title>DataModule&#45;&gt;AppModule</title>
<path fill="none" stroke="black" d="M309,-84.83C309,-101.2 309,-122.8 309,-122.8 309,-122.8 371.2,-122.8 371.2,-122.8"/>
<polygon fill="black" stroke="black" points="371.2,-126.3 381.2,-122.8 371.2,-119.3 371.2,-126.3"/>
</g>
<!-- StatusModule -->
<g id="node7" class="node">
<title>StatusModule</title>
<polygon fill="#8dd3c7" stroke="black" points="247.77,-84.8 244.77,-88.8 223.77,-88.8 220.77,-84.8 154.23,-84.8 154.23,-48.8 247.77,-48.8 247.77,-84.8"/>
<text text-anchor="middle" x="201" y="-62.6" font-family="Times,serif" font-size="14.00">StatusModule</text>
</g>
<!-- StatusModule&#45;&gt;AppModule -->
<g id="edge6" class="edge">
<title>StatusModule&#45;&gt;AppModule</title>
<path fill="none" stroke="black" d="M201,-84.91C201,-104.14 201,-131.8 201,-131.8 201,-131.8 371.24,-131.8 371.24,-131.8"/>
<polygon fill="black" stroke="black" points="371.24,-135.3 381.24,-131.8 371.24,-128.3 371.24,-135.3"/>
</g>
<!-- TranslateModule -->
<g id="node8" class="node">
<title>TranslateModule</title>
<polygon fill="#8dd3c7" stroke="black" points="135.63,-84.8 132.63,-88.8 111.63,-88.8 108.63,-84.8 24.37,-84.8 24.37,-48.8 135.63,-48.8 135.63,-84.8"/>
<text text-anchor="middle" x="80" y="-62.6" font-family="Times,serif" font-size="14.00">TranslateModule</text>
</g>
<!-- TranslateModule&#45;&gt;AppModule -->
<g id="edge7" class="edge">
<title>TranslateModule&#45;&gt;AppModule</title>
<path fill="none" stroke="black" d="M80,-85.09C80,-107.01 80,-140.8 80,-140.8 80,-140.8 371.28,-140.8 371.28,-140.8"/>
<polygon fill="black" stroke="black" points="371.28,-144.3 381.28,-140.8 371.28,-137.3 371.28,-144.3"/>
</g>
</g>
</svg>
