<?xml version="1.0" encoding="UTF-8" standalone="no"?>
<!DOCTYPE svg PUBLIC "-//W3C//DTD SVG 1.1//EN"
 "http://www.w3.org/Graphics/SVG/1.1/DTD/svg11.dtd">
<!-- Generated by graphviz version 2.47.3 (20210619.1520)
 -->
<!-- Title: dependencies Pages: 1 -->
<svg width="766pt" height="247pt"
 viewBox="0.00 0.00 766.00 246.80" xmlns="http://www.w3.org/2000/svg" xmlns:xlink="http://www.w3.org/1999/xlink">
<g id="graph0" class="graph" transform="scale(1 1) rotate(0) translate(4 242.8)">
<title>dependencies</title>
<polygon fill="white" stroke="transparent" points="-4,4 -4,-242.8 762,-242.8 762,4 -4,4"/>
<text text-anchor="middle" x="379" y="-8.2" font-family="sans-serif" font-size="14.00">dependencies</text>
<g id="clust1" class="cluster">
<title>cluster_AppModule</title>
<polygon fill="none" stroke="black" stroke-dasharray="1,5" points="8,-32.8 8,-230.8 750,-230.8 750,-32.8 8,-32.8"/>
</g>
<g id="clust4" class="cluster">
<title>cluster_AppModule_imports</title>
<polygon fill="none" stroke="black" points="146,-40.8 146,-92.8 742,-92.8 742,-40.8 146,-40.8"/>
</g>
<g id="clust6" class="cluster">
<title>cluster_AppModule_bootstrap</title>
<polygon fill="none" stroke="black" points="323,-170.8 323,-222.8 447,-222.8 447,-170.8 323,-170.8"/>
</g>
<g id="clust2" class="cluster">
<title>cluster_AppModule_declarations</title>
<polygon fill="none" stroke="black" points="16,-40.8 16,-92.8 138,-92.8 138,-40.8 16,-40.8"/>
</g>
<!-- AppComponent -->
<g id="node1" class="node">
<title>AppComponent</title>
<polygon fill="#ffffb3" stroke="black" points="129.94,-84.8 24.06,-84.8 24.06,-48.8 129.94,-48.8 129.94,-84.8"/>
<text text-anchor="middle" x="77" y="-62.6" font-family="Times,serif" font-size="14.00">AppComponent</text>
</g>
<!-- AppModule -->
<g id="node2" class="node">
<title>AppModule</title>
<polygon fill="#8dd3c7" stroke="black" points="426.66,-149.8 423.66,-153.8 402.66,-153.8 399.66,-149.8 343.34,-149.8 343.34,-113.8 426.66,-113.8 426.66,-149.8"/>
<text text-anchor="middle" x="385" y="-127.6" font-family="Times,serif" font-size="14.00">AppModule</text>
</g>
<!-- AppComponent&#45;&gt;AppModule -->
<g id="edge1" class="edge">
<title>AppComponent&#45;&gt;AppModule</title>
<path fill="none" stroke="black" d="M77,-85.08C77,-106.12 77,-137.8 77,-137.8 77,-137.8 333.14,-137.8 333.14,-137.8"/>
<polygon fill="black" stroke="black" points="333.14,-141.3 343.14,-137.8 333.14,-134.3 333.14,-141.3"/>
</g>
<!-- AppComponent  -->
<g id="node8" class="node">
<title>AppComponent </title>
<polygon fill="#80b1d3" stroke="black" points="439.44,-214.8 330.56,-214.8 330.56,-178.8 439.44,-178.8 439.44,-214.8"/>
<text text-anchor="middle" x="385" y="-192.6" font-family="Times,serif" font-size="14.00">AppComponent </text>
</g>
<!-- AppModule&#45;&gt;AppComponent  -->
<g id="edge7" class="edge">
<title>AppModule&#45;&gt;AppComponent </title>
<path fill="none" stroke="black" stroke-dasharray="1,5" d="M385,-149.91C385,-149.91 385,-168.79 385,-168.79"/>
<polygon fill="black" stroke="black" points="381.5,-168.79 385,-178.79 388.5,-168.79 381.5,-168.79"/>
</g>
<!-- AppRoutingModule -->
<g id="node3" class="node">
<title>AppRoutingModule</title>
<polygon fill="#8dd3c7" stroke="black" points="734.27,-84.8 731.27,-88.8 710.27,-88.8 707.27,-84.8 605.73,-84.8 605.73,-48.8 734.27,-48.8 734.27,-84.8"/>
<text text-anchor="middle" x="670" y="-62.6" font-family="Times,serif" font-size="14.00">AppRoutingModule</text>
</g>
<!-- AppRoutingModule&#45;&gt;AppModule -->
<g id="edge2" class="edge">
<title>AppRoutingModule&#45;&gt;AppModule</title>
<path fill="none" stroke="black" d="M670,-85.08C670,-106.12 670,-137.8 670,-137.8 670,-137.8 436.75,-137.8 436.75,-137.8"/>
<polygon fill="black" stroke="black" points="436.75,-134.3 426.75,-137.8 436.75,-141.3 436.75,-134.3"/>
</g>
<!-- AuthModule -->
<g id="node4" class="node">
<title>AuthModule</title>
<polygon fill="#8dd3c7" stroke="black" points="587.55,-84.8 584.55,-88.8 563.55,-88.8 560.55,-84.8 500.45,-84.8 500.45,-48.8 587.55,-48.8 587.55,-84.8"/>
<text text-anchor="middle" x="544" y="-62.6" font-family="Times,serif" font-size="14.00">AuthModule</text>
</g>
<!-- AuthModule&#45;&gt;AppModule -->
<g id="edge3" class="edge">
<title>AuthModule&#45;&gt;AppModule</title>
<path fill="none" stroke="black" d="M544,-84.82C544,-102.17 544,-125.8 544,-125.8 544,-125.8 436.78,-125.8 436.78,-125.8"/>
<polygon fill="black" stroke="black" points="436.78,-122.3 426.78,-125.8 436.78,-129.3 436.78,-122.3"/>
</g>
<!-- DataModule -->
<g id="node5" class="node">
<title>DataModule</title>
<polygon fill="#8dd3c7" stroke="black" points="481.98,-84.8 478.98,-88.8 457.98,-88.8 454.98,-84.8 396.02,-84.8 396.02,-48.8 481.98,-48.8 481.98,-84.8"/>
<text text-anchor="middle" x="439" y="-62.6" font-family="Times,serif" font-size="14.00">DataModule</text>
</g>
<!-- DataModule&#45;&gt;AppModule -->
<g id="edge4" class="edge">
<title>DataModule&#45;&gt;AppModule</title>
<path fill="none" stroke="black" d="M411.42,-84.91C411.42,-84.91 411.42,-103.79 411.42,-103.79"/>
<polygon fill="black" stroke="black" points="407.92,-103.79 411.42,-113.79 414.92,-103.79 407.92,-103.79"/>
</g>
<!-- StatusModule -->
<g id="node6" class="node">
<title>StatusModule</title>
<polygon fill="#8dd3c7" stroke="black" points="377.77,-84.8 374.77,-88.8 353.77,-88.8 350.77,-84.8 284.23,-84.8 284.23,-48.8 377.77,-48.8 377.77,-84.8"/>
<text text-anchor="middle" x="331" y="-62.6" font-family="Times,serif" font-size="14.00">StatusModule</text>
</g>
<!-- StatusModule&#45;&gt;AppModule -->
<g id="edge5" class="edge">
<title>StatusModule&#45;&gt;AppModule</title>
<path fill="none" stroke="black" d="M360.53,-84.91C360.53,-84.91 360.53,-103.79 360.53,-103.79"/>
<polygon fill="black" stroke="black" points="357.03,-103.79 360.53,-113.79 364.03,-103.79 357.03,-103.79"/>
</g>
<!-- TranslateModule -->
<g id="node7" class="node">
<title>TranslateModule</title>
<polygon fill="#8dd3c7" stroke="black" points="265.63,-84.8 262.63,-88.8 241.63,-88.8 238.63,-84.8 154.37,-84.8 154.37,-48.8 265.63,-48.8 265.63,-84.8"/>
<text text-anchor="middle" x="210" y="-62.6" font-family="Times,serif" font-size="14.00">TranslateModule</text>
</g>
<!-- TranslateModule&#45;&gt;AppModule -->
<g id="edge6" class="edge">
<title>TranslateModule&#45;&gt;AppModule</title>
<path fill="none" stroke="black" d="M210,-84.82C210,-102.17 210,-125.8 210,-125.8 210,-125.8 333.08,-125.8 333.08,-125.8"/>
<polygon fill="black" stroke="black" points="333.08,-129.3 343.08,-125.8 333.08,-122.3 333.08,-129.3"/>
</g>
</g>
</svg>
