<?xml version="1.0" encoding="UTF-8" standalone="no"?>
<!DOCTYPE svg PUBLIC "-//W3C//DTD SVG 1.1//EN"
 "http://www.w3.org/Graphics/SVG/1.1/DTD/svg11.dtd">
<!-- Generated by graphviz version 2.47.3 (20210619.1520)
 -->
<!-- Title: dependencies Pages: 1 -->
<svg width="766pt" height="247pt"
 viewBox="0.00 0.00 766.00 246.80" xmlns="http://www.w3.org/2000/svg" xmlns:xlink="http://www.w3.org/1999/xlink">
<g id="graph0" class="graph" transform="scale(1 1) rotate(0) translate(4 242.8)">
<title>dependencies</title>
<polygon fill="white" stroke="transparent" points="-4,4 -4,-242.8 762,-242.8 762,4 -4,4"/>
<text text-anchor="middle" x="379" y="-8.2" font-family="sans-serif" font-size="14.00">dependencies</text>
<g id="clust1" class="cluster">
<title>cluster_AppModule</title>
<polygon fill="none" stroke="black" stroke-dasharray="1,5" points="8,-32.8 8,-230.8 750,-230.8 750,-32.8 8,-32.8"/>
</g>
<g id="clust2" class="cluster">
<title>cluster_AppModule_declarations</title>
<polygon fill="none" stroke="black" points="620,-40.8 620,-92.8 742,-92.8 742,-40.8 620,-40.8"/>
</g>
<g id="clust4" class="cluster">
<title>cluster_AppModule_imports</title>
<polygon fill="none" stroke="black" points="16,-40.8 16,-92.8 612,-92.8 612,-40.8 16,-40.8"/>
</g>
<g id="clust6" class="cluster">
<title>cluster_AppModule_bootstrap</title>
<polygon fill="none" stroke="black" points="299,-170.8 299,-222.8 423,-222.8 423,-170.8 299,-170.8"/>
</g>
<!-- AppComponent -->
<g id="node1" class="node">
<title>AppComponent</title>
<polygon fill="#ffffb3" stroke="black" points="733.94,-84.8 628.06,-84.8 628.06,-48.8 733.94,-48.8 733.94,-84.8"/>
<text text-anchor="middle" x="681" y="-62.6" font-family="Times,serif" font-size="14.00">AppComponent</text>
</g>
<!-- AppModule -->
<g id="node2" class="node">
<title>AppModule</title>
<polygon fill="#8dd3c7" stroke="black" points="402.66,-149.8 399.66,-153.8 378.66,-153.8 375.66,-149.8 319.34,-149.8 319.34,-113.8 402.66,-113.8 402.66,-149.8"/>
<text text-anchor="middle" x="361" y="-127.6" font-family="Times,serif" font-size="14.00">AppModule</text>
</g>
<!-- AppComponent&#45;&gt;AppModule -->
<g id="edge1" class="edge">
<title>AppComponent&#45;&gt;AppModule</title>
<path fill="none" stroke="black" d="M681,-85.08C681,-106.12 681,-137.8 681,-137.8 681,-137.8 412.83,-137.8 412.83,-137.8"/>
<polygon fill="black" stroke="black" points="412.83,-134.3 402.83,-137.8 412.83,-141.3 412.83,-134.3"/>
</g>
<!-- AppComponent  -->
<g id="node8" class="node">
<title>AppComponent </title>
<polygon fill="#80b1d3" stroke="black" points="415.44,-214.8 306.56,-214.8 306.56,-178.8 415.44,-178.8 415.44,-214.8"/>
<text text-anchor="middle" x="361" y="-192.6" font-family="Times,serif" font-size="14.00">AppComponent </text>
</g>
<!-- AppModule&#45;&gt;AppComponent  -->
<g id="edge7" class="edge">
<title>AppModule&#45;&gt;AppComponent </title>
<path fill="none" stroke="black" stroke-dasharray="1,5" d="M361,-149.91C361,-149.91 361,-168.79 361,-168.79"/>
<polygon fill="black" stroke="black" points="357.5,-168.79 361,-178.79 364.5,-168.79 357.5,-168.79"/>
</g>
<!-- AppRoutingModule -->
<g id="node3" class="node">
<title>AppRoutingModule</title>
<polygon fill="#8dd3c7" stroke="black" points="604.27,-84.8 601.27,-88.8 580.27,-88.8 577.27,-84.8 475.73,-84.8 475.73,-48.8 604.27,-48.8 604.27,-84.8"/>
<text text-anchor="middle" x="540" y="-62.6" font-family="Times,serif" font-size="14.00">AppRoutingModule</text>
</g>
<!-- AppRoutingModule&#45;&gt;AppModule -->
<g id="edge2" class="edge">
<title>AppRoutingModule&#45;&gt;AppModule</title>
<path fill="none" stroke="black" d="M540,-84.82C540,-102.17 540,-125.8 540,-125.8 540,-125.8 412.97,-125.8 412.97,-125.8"/>
<polygon fill="black" stroke="black" points="412.97,-122.3 402.97,-125.8 412.97,-129.3 412.97,-122.3"/>
</g>
<!-- AuthModule -->
<g id="node4" class="node">
<title>AuthModule</title>
<polygon fill="#8dd3c7" stroke="black" points="457.55,-84.8 454.55,-88.8 433.55,-88.8 430.55,-84.8 370.45,-84.8 370.45,-48.8 457.55,-48.8 457.55,-84.8"/>
<text text-anchor="middle" x="414" y="-62.6" font-family="Times,serif" font-size="14.00">AuthModule</text>
</g>
<!-- AuthModule&#45;&gt;AppModule -->
<g id="edge3" class="edge">
<title>AuthModule&#45;&gt;AppModule</title>
<path fill="none" stroke="black" d="M386.53,-84.91C386.53,-84.91 386.53,-103.79 386.53,-103.79"/>
<polygon fill="black" stroke="black" points="383.03,-103.79 386.53,-113.79 390.03,-103.79 383.03,-103.79"/>
</g>
<!-- DataModule -->
<g id="node5" class="node">
<title>DataModule</title>
<polygon fill="#8dd3c7" stroke="black" points="351.98,-84.8 348.98,-88.8 327.98,-88.8 324.98,-84.8 266.02,-84.8 266.02,-48.8 351.98,-48.8 351.98,-84.8"/>
<text text-anchor="middle" x="309" y="-62.6" font-family="Times,serif" font-size="14.00">DataModule</text>
</g>
<!-- DataModule&#45;&gt;AppModule -->
<g id="edge4" class="edge">
<title>DataModule&#45;&gt;AppModule</title>
<path fill="none" stroke="black" d="M335.58,-84.91C335.58,-84.91 335.58,-103.79 335.58,-103.79"/>
<polygon fill="black" stroke="black" points="332.08,-103.79 335.58,-113.79 339.08,-103.79 332.08,-103.79"/>
</g>
<!-- StatusModule -->
<g id="node6" class="node">
<title>StatusModule</title>
<polygon fill="#8dd3c7" stroke="black" points="247.77,-84.8 244.77,-88.8 223.77,-88.8 220.77,-84.8 154.23,-84.8 154.23,-48.8 247.77,-48.8 247.77,-84.8"/>
<text text-anchor="middle" x="201" y="-62.6" font-family="Times,serif" font-size="14.00">StatusModule</text>
</g>
<!-- StatusModule&#45;&gt;AppModule -->
<g id="edge5" class="edge">
<title>StatusModule&#45;&gt;AppModule</title>
<path fill="none" stroke="black" d="M201,-84.82C201,-102.17 201,-125.8 201,-125.8 201,-125.8 308.96,-125.8 308.96,-125.8"/>
<polygon fill="black" stroke="black" points="308.96,-129.3 318.96,-125.8 308.96,-122.3 308.96,-129.3"/>
</g>
<!-- TranslateModule -->
<g id="node7" class="node">
<title>TranslateModule</title>
<polygon fill="#8dd3c7" stroke="black" points="135.63,-84.8 132.63,-88.8 111.63,-88.8 108.63,-84.8 24.37,-84.8 24.37,-48.8 135.63,-48.8 135.63,-84.8"/>
<text text-anchor="middle" x="80" y="-62.6" font-family="Times,serif" font-size="14.00">TranslateModule</text>
</g>
<!-- TranslateModule&#45;&gt;AppModule -->
<g id="edge6" class="edge">
<title>TranslateModule&#45;&gt;AppModule</title>
<path fill="none" stroke="black" d="M80,-85.08C80,-106.12 80,-137.8 80,-137.8 80,-137.8 309.23,-137.8 309.23,-137.8"/>
<polygon fill="black" stroke="black" points="309.23,-141.3 319.23,-137.8 309.23,-134.3 309.23,-141.3"/>
</g>
</g>
</svg>
