<?xml version="1.0" encoding="UTF-8" standalone="no"?>
<!DOCTYPE svg PUBLIC "-//W3C//DTD SVG 1.1//EN"
 "http://www.w3.org/Graphics/SVG/1.1/DTD/svg11.dtd">
<!-- Generated by graphviz version 2.47.3 (20210619.1520)
 -->
<!-- Title: dependencies Pages: 1 -->
<svg width="683pt" height="174pt"
 viewBox="0.00 0.00 683.00 173.80" xmlns="http://www.w3.org/2000/svg" xmlns:xlink="http://www.w3.org/1999/xlink">
<g id="graph0" class="graph" transform="scale(1 1) rotate(0) translate(4 169.8)">
<title>dependencies</title>
<polygon fill="white" stroke="transparent" points="-4,4 -4,-169.8 679,-169.8 679,4 -4,4"/>
<text text-anchor="middle" x="337.5" y="-8.2" font-family="sans-serif" font-size="14.00">dependencies</text>
<g id="clust1" class="cluster">
<title>cluster_AppRoutingModule</title>
<polygon fill="none" stroke="black" stroke-dasharray="1,5" points="8,-32.8 8,-157.8 667,-157.8 667,-32.8 8,-32.8"/>
</g>
<g id="clust3" class="cluster">
<title>cluster_AppRoutingModule_imports</title>
<polygon fill="none" stroke="black" points="16,-40.8 16,-92.8 659,-92.8 659,-40.8 16,-40.8"/>
</g>
<!-- BlockchainRoutingModule -->
<g id="node1" class="node">
<title>BlockchainRoutingModule</title>
<polygon fill="#8dd3c7" stroke="black" points="651.43,-84.8 648.43,-88.8 627.43,-88.8 624.43,-84.8 482.57,-84.8 482.57,-48.8 651.43,-48.8 651.43,-84.8"/>
<text text-anchor="middle" x="567" y="-62.6" font-family="Times,serif" font-size="14.00">BlockchainRoutingModule</text>
</g>
<!-- AppRoutingModule -->
<g id="node5" class="node">
<title>AppRoutingModule</title>
<polygon fill="#8dd3c7" stroke="black" points="388.27,-149.8 385.27,-153.8 364.27,-153.8 361.27,-149.8 259.73,-149.8 259.73,-113.8 388.27,-113.8 388.27,-149.8"/>
<text text-anchor="middle" x="324" y="-127.6" font-family="Times,serif" font-size="14.00">AppRoutingModule</text>
</g>
<!-- BlockchainRoutingModule&#45;&gt;AppRoutingModule -->
<g id="edge1" class="edge">
<title>BlockchainRoutingModule&#45;&gt;AppRoutingModule</title>
<path fill="none" stroke="black" d="M567,-84.91C567,-104.14 567,-131.8 567,-131.8 567,-131.8 398.48,-131.8 398.48,-131.8"/>
<polygon fill="black" stroke="black" points="398.48,-128.3 388.48,-131.8 398.48,-135.3 398.48,-128.3"/>
</g>
<!-- RootRoutingModule -->
<g id="node2" class="node">
<title>RootRoutingModule</title>
<polygon fill="#8dd3c7" stroke="black" points="464.89,-84.8 461.89,-88.8 440.89,-88.8 437.89,-84.8 333.11,-84.8 333.11,-48.8 464.89,-48.8 464.89,-84.8"/>
<text text-anchor="middle" x="399" y="-62.6" font-family="Times,serif" font-size="14.00">RootRoutingModule</text>
</g>
<!-- RootRoutingModule&#45;&gt;AppRoutingModule -->
<g id="edge2" class="edge">
<title>RootRoutingModule&#45;&gt;AppRoutingModule</title>
<path fill="none" stroke="black" d="M360.72,-84.91C360.72,-84.91 360.72,-103.79 360.72,-103.79"/>
<polygon fill="black" stroke="black" points="357.22,-103.79 360.72,-113.79 364.22,-103.79 357.22,-103.79"/>
</g>
<!-- UserRoutingModule -->
<g id="node3" class="node">
<title>UserRoutingModule</title>
<polygon fill="#8dd3c7" stroke="black" points="315.59,-84.8 312.59,-88.8 291.59,-88.8 288.59,-84.8 184.41,-84.8 184.41,-48.8 315.59,-48.8 315.59,-84.8"/>
<text text-anchor="middle" x="250" y="-62.6" font-family="Times,serif" font-size="14.00">UserRoutingModule</text>
</g>
<!-- UserRoutingModule&#45;&gt;AppRoutingModule -->
<g id="edge3" class="edge">
<title>UserRoutingModule&#45;&gt;AppRoutingModule</title>
<path fill="none" stroke="black" d="M287.58,-84.91C287.58,-84.91 287.58,-103.79 287.58,-103.79"/>
<polygon fill="black" stroke="black" points="284.08,-103.79 287.58,-113.79 291.08,-103.79 284.08,-103.79"/>
</g>
<!-- WalletRoutingModule -->
<g id="node4" class="node">
<title>WalletRoutingModule</title>
<polygon fill="#8dd3c7" stroke="black" points="165.98,-84.8 162.98,-88.8 141.98,-88.8 138.98,-84.8 24.02,-84.8 24.02,-48.8 165.98,-48.8 165.98,-84.8"/>
<text text-anchor="middle" x="95" y="-62.6" font-family="Times,serif" font-size="14.00">WalletRoutingModule</text>
</g>
<!-- WalletRoutingModule&#45;&gt;AppRoutingModule -->
<g id="edge4" class="edge">
<title>WalletRoutingModule&#45;&gt;AppRoutingModule</title>
<path fill="none" stroke="black" d="M95,-84.91C95,-104.14 95,-131.8 95,-131.8 95,-131.8 249.6,-131.8 249.6,-131.8"/>
<polygon fill="black" stroke="black" points="249.6,-135.3 259.6,-131.8 249.6,-128.3 249.6,-135.3"/>
</g>
</g>
</svg>
