<?xml version="1.0" encoding="UTF-8" standalone="no"?>
<!DOCTYPE svg PUBLIC "-//W3C//DTD SVG 1.1//EN"
 "http://www.w3.org/Graphics/SVG/1.1/DTD/svg11.dtd">
<!-- Generated by graphviz version 2.47.3 (20210619.1520)
 -->
<!-- Title: dependencies Pages: 1 -->
<svg width="534pt" height="174pt"
 viewBox="0.00 0.00 534.00 173.80" xmlns="http://www.w3.org/2000/svg" xmlns:xlink="http://www.w3.org/1999/xlink">
<g id="graph0" class="graph" transform="scale(1 1) rotate(0) translate(4 169.8)">
<title>dependencies</title>
<polygon fill="white" stroke="transparent" points="-4,4 -4,-169.8 530,-169.8 530,4 -4,4"/>
<text text-anchor="middle" x="263" y="-8.2" font-family="sans-serif" font-size="14.00">dependencies</text>
<g id="clust1" class="cluster">
<title>cluster_AppRoutingModule</title>
<polygon fill="none" stroke="black" stroke-dasharray="1,5" points="8,-32.8 8,-157.8 518,-157.8 518,-32.8 8,-32.8"/>
</g>
<g id="clust3" class="cluster">
<title>cluster_AppRoutingModule_imports</title>
<polygon fill="none" stroke="black" points="16,-40.8 16,-92.8 510,-92.8 510,-40.8 16,-40.8"/>
</g>
<!-- BlockchainRoutingModule -->
<g id="node1" class="node">
<title>BlockchainRoutingModule</title>
<polygon fill="#8dd3c7" stroke="black" points="502.43,-84.8 499.43,-88.8 478.43,-88.8 475.43,-84.8 333.57,-84.8 333.57,-48.8 502.43,-48.8 502.43,-84.8"/>
<text text-anchor="middle" x="418" y="-62.6" font-family="Times,serif" font-size="14.00">BlockchainRoutingModule</text>
</g>
<!-- AppRoutingModule -->
<g id="node4" class="node">
<title>AppRoutingModule</title>
<polygon fill="#8dd3c7" stroke="black" points="314.27,-149.8 311.27,-153.8 290.27,-153.8 287.27,-149.8 185.73,-149.8 185.73,-113.8 314.27,-113.8 314.27,-149.8"/>
<text text-anchor="middle" x="250" y="-127.6" font-family="Times,serif" font-size="14.00">AppRoutingModule</text>
</g>
<!-- BlockchainRoutingModule&#45;&gt;AppRoutingModule -->
<g id="edge1" class="edge">
<title>BlockchainRoutingModule&#45;&gt;AppRoutingModule</title>
<path fill="none" stroke="black" d="M418,-84.91C418,-104.14 418,-131.8 418,-131.8 418,-131.8 324.47,-131.8 324.47,-131.8"/>
<polygon fill="black" stroke="black" points="324.47,-128.3 314.47,-131.8 324.47,-135.3 324.47,-128.3"/>
</g>
<!-- RootRoutingModule -->
<g id="node2" class="node">
<title>RootRoutingModule</title>
<polygon fill="#8dd3c7" stroke="black" points="315.89,-84.8 312.89,-88.8 291.89,-88.8 288.89,-84.8 184.11,-84.8 184.11,-48.8 315.89,-48.8 315.89,-84.8"/>
<text text-anchor="middle" x="250" y="-62.6" font-family="Times,serif" font-size="14.00">RootRoutingModule</text>
</g>
<!-- RootRoutingModule&#45;&gt;AppRoutingModule -->
<g id="edge2" class="edge">
<title>RootRoutingModule&#45;&gt;AppRoutingModule</title>
<path fill="none" stroke="black" d="M250,-84.91C250,-84.91 250,-103.79 250,-103.79"/>
<polygon fill="black" stroke="black" points="246.5,-103.79 250,-113.79 253.5,-103.79 246.5,-103.79"/>
</g>
<!-- WalletRoutingModule -->
<g id="node3" class="node">
<title>WalletRoutingModule</title>
<polygon fill="#8dd3c7" stroke="black" points="165.98,-84.8 162.98,-88.8 141.98,-88.8 138.98,-84.8 24.02,-84.8 24.02,-48.8 165.98,-48.8 165.98,-84.8"/>
<text text-anchor="middle" x="95" y="-62.6" font-family="Times,serif" font-size="14.00">WalletRoutingModule</text>
</g>
<!-- WalletRoutingModule&#45;&gt;AppRoutingModule -->
<g id="edge3" class="edge">
<title>WalletRoutingModule&#45;&gt;AppRoutingModule</title>
<path fill="none" stroke="black" d="M95,-84.91C95,-104.14 95,-131.8 95,-131.8 95,-131.8 175.61,-131.8 175.61,-131.8"/>
<polygon fill="black" stroke="black" points="175.61,-135.3 185.61,-131.8 175.61,-128.3 175.61,-135.3"/>
</g>
</g>
</svg>
