<?xml version="1.0" encoding="UTF-8" standalone="no"?>
<!DOCTYPE svg PUBLIC "-//W3C//DTD SVG 1.1//EN"
 "http://www.w3.org/Graphics/SVG/1.1/DTD/svg11.dtd">
<!-- Generated by graphviz version 2.47.3 (20210619.1520)
 -->
<!-- Title: dependencies Pages: 1 -->
<svg width="751pt" height="247pt"
 viewBox="0.00 0.00 751.00 246.80" xmlns="http://www.w3.org/2000/svg" xmlns:xlink="http://www.w3.org/1999/xlink">
<g id="graph0" class="graph" transform="scale(1 1) rotate(0) translate(4 242.8)">
<title>dependencies</title>
<polygon fill="white" stroke="transparent" points="-4,4 -4,-242.8 747,-242.8 747,4 -4,4"/>
<text text-anchor="middle" x="371.5" y="-8.2" font-family="sans-serif" font-size="14.00">dependencies</text>
<g id="clust1" class="cluster">
<title>cluster_StatusModule</title>
<polygon fill="none" stroke="black" stroke-dasharray="1,5" points="8,-32.8 8,-230.8 735,-230.8 735,-32.8 8,-32.8"/>
</g>
<g id="clust6" class="cluster">
<title>cluster_StatusModule_imports</title>
<polygon fill="none" stroke="black" points="493,-40.8 493,-92.8 727,-92.8 727,-40.8 493,-40.8"/>
</g>
<g id="clust2" class="cluster">
<title>cluster_StatusModule_declarations</title>
<polygon fill="none" stroke="black" points="16,-40.8 16,-92.8 485,-92.8 485,-40.8 16,-40.8"/>
</g>
<g id="clust7" class="cluster">
<title>cluster_StatusModule_exports</title>
<polygon fill="none" stroke="black" points="269,-170.8 269,-222.8 560,-222.8 560,-170.8 269,-170.8"/>
</g>
<!-- BootstateComponent -->
<g id="node1" class="node">
<title>BootstateComponent</title>
<polygon fill="#ffffb3" stroke="black" points="477.21,-84.8 342.79,-84.8 342.79,-48.8 477.21,-48.8 477.21,-84.8"/>
<text text-anchor="middle" x="410" y="-62.6" font-family="Times,serif" font-size="14.00">BootstateComponent</text>
</g>
<!-- StatusModule -->
<g id="node4" class="node">
<title>StatusModule</title>
<polygon fill="#8dd3c7" stroke="black" points="456.77,-149.8 453.77,-153.8 432.77,-153.8 429.77,-149.8 363.23,-149.8 363.23,-113.8 456.77,-113.8 456.77,-149.8"/>
<text text-anchor="middle" x="410" y="-127.6" font-family="Times,serif" font-size="14.00">StatusModule</text>
</g>
<!-- BootstateComponent&#45;&gt;StatusModule -->
<g id="edge1" class="edge">
<title>BootstateComponent&#45;&gt;StatusModule</title>
<path fill="none" stroke="black" d="M410,-84.91C410,-84.91 410,-103.79 410,-103.79"/>
<polygon fill="black" stroke="black" points="406.5,-103.79 410,-113.79 413.5,-103.79 406.5,-103.79"/>
</g>
<!-- NoDaemonRunningDialog -->
<g id="node2" class="node">
<title>NoDaemonRunningDialog</title>
<polygon fill="#ffffb3" stroke="black" points="324.36,-84.8 157.64,-84.8 157.64,-48.8 324.36,-48.8 324.36,-84.8"/>
<text text-anchor="middle" x="241" y="-62.6" font-family="Times,serif" font-size="14.00">NoDaemonRunningDialog</text>
</g>
<!-- NoDaemonRunningDialog&#45;&gt;StatusModule -->
<g id="edge2" class="edge">
<title>NoDaemonRunningDialog&#45;&gt;StatusModule</title>
<path fill="none" stroke="black" d="M300.95,-84.82C300.95,-102.17 300.95,-125.8 300.95,-125.8 300.95,-125.8 353.12,-125.8 353.12,-125.8"/>
<polygon fill="black" stroke="black" points="353.12,-129.3 363.12,-125.8 353.12,-122.3 353.12,-129.3"/>
</g>
<!-- StatusComponent -->
<g id="node3" class="node">
<title>StatusComponent</title>
<polygon fill="#ffffb3" stroke="black" points="139.56,-84.8 24.44,-84.8 24.44,-48.8 139.56,-48.8 139.56,-84.8"/>
<text text-anchor="middle" x="82" y="-62.6" font-family="Times,serif" font-size="14.00">StatusComponent</text>
</g>
<!-- StatusComponent&#45;&gt;StatusModule -->
<g id="edge3" class="edge">
<title>StatusComponent&#45;&gt;StatusModule</title>
<path fill="none" stroke="black" d="M82,-85.08C82,-106.12 82,-137.8 82,-137.8 82,-137.8 353.01,-137.8 353.01,-137.8"/>
<polygon fill="black" stroke="black" points="353.01,-141.3 363.01,-137.8 353.01,-134.3 353.01,-141.3"/>
</g>
<!-- BootstateComponent  -->
<g id="node7" class="node">
<title>BootstateComponent </title>
<polygon fill="#fb8072" stroke="black" points="551.71,-214.8 414.29,-214.8 414.29,-178.8 551.71,-178.8 551.71,-214.8"/>
<text text-anchor="middle" x="483" y="-192.6" font-family="Times,serif" font-size="14.00">BootstateComponent </text>
</g>
<!-- StatusModule&#45;&gt;BootstateComponent  -->
<g id="edge6" class="edge">
<title>StatusModule&#45;&gt;BootstateComponent </title>
<path fill="none" stroke="black" stroke-dasharray="5,2" d="M435.51,-149.91C435.51,-149.91 435.51,-168.79 435.51,-168.79"/>
<polygon fill="black" stroke="black" points="432.01,-168.79 435.51,-178.79 439.01,-168.79 432.01,-168.79"/>
</g>
<!-- StatusComponent  -->
<g id="node8" class="node">
<title>StatusComponent </title>
<polygon fill="#fb8072" stroke="black" points="396.56,-214.8 277.44,-214.8 277.44,-178.8 396.56,-178.8 396.56,-214.8"/>
<text text-anchor="middle" x="337" y="-192.6" font-family="Times,serif" font-size="14.00">StatusComponent </text>
</g>
<!-- StatusModule&#45;&gt;StatusComponent  -->
<g id="edge7" class="edge">
<title>StatusModule&#45;&gt;StatusComponent </title>
<path fill="none" stroke="black" stroke-dasharray="5,2" d="M379.82,-149.91C379.82,-149.91 379.82,-168.79 379.82,-168.79"/>
<polygon fill="black" stroke="black" points="376.32,-168.79 379.82,-178.79 383.32,-168.79 376.32,-168.79"/>
</g>
<!-- AuthModule -->
<g id="node5" class="node">
<title>AuthModule</title>
<polygon fill="#8dd3c7" stroke="black" points="718.55,-84.8 715.55,-88.8 694.55,-88.8 691.55,-84.8 631.45,-84.8 631.45,-48.8 718.55,-48.8 718.55,-84.8"/>
<text text-anchor="middle" x="675" y="-62.6" font-family="Times,serif" font-size="14.00">AuthModule</text>
</g>
<!-- AuthModule&#45;&gt;StatusModule -->
<g id="edge4" class="edge">
<title>AuthModule&#45;&gt;StatusModule</title>
<path fill="none" stroke="black" d="M675,-85.08C675,-106.12 675,-137.8 675,-137.8 675,-137.8 467.07,-137.8 467.07,-137.8"/>
<polygon fill="black" stroke="black" points="467.07,-134.3 457.07,-137.8 467.07,-141.3 467.07,-134.3"/>
</g>
<!-- TranslateModule -->
<g id="node6" class="node">
<title>TranslateModule</title>
<polygon fill="#8dd3c7" stroke="black" points="612.63,-84.8 609.63,-88.8 588.63,-88.8 585.63,-84.8 501.37,-84.8 501.37,-48.8 612.63,-48.8 612.63,-84.8"/>
<text text-anchor="middle" x="557" y="-62.6" font-family="Times,serif" font-size="14.00">TranslateModule</text>
</g>
<!-- TranslateModule&#45;&gt;StatusModule -->
<g id="edge5" class="edge">
<title>TranslateModule&#45;&gt;StatusModule</title>
<path fill="none" stroke="black" d="M526.52,-84.82C526.52,-102.17 526.52,-125.8 526.52,-125.8 526.52,-125.8 467.06,-125.8 467.06,-125.8"/>
<polygon fill="black" stroke="black" points="467.06,-122.3 457.06,-125.8 467.06,-129.3 467.06,-122.3"/>
</g>
</g>
</svg>
