<?xml version="1.0" encoding="UTF-8" standalone="no"?>
<!DOCTYPE svg PUBLIC "-//W3C//DTD SVG 1.1//EN"
 "http://www.w3.org/Graphics/SVG/1.1/DTD/svg11.dtd">
<!-- Generated by graphviz version 2.47.3 (20210619.1520)
 -->
<!-- Title: dependencies Pages: 1 -->
<svg width="751pt" height="247pt"
 viewBox="0.00 0.00 751.00 246.80" xmlns="http://www.w3.org/2000/svg" xmlns:xlink="http://www.w3.org/1999/xlink">
<g id="graph0" class="graph" transform="scale(1 1) rotate(0) translate(4 242.8)">
<title>dependencies</title>
<polygon fill="white" stroke="transparent" points="-4,4 -4,-242.8 747,-242.8 747,4 -4,4"/>
<text text-anchor="middle" x="371.5" y="-8.2" font-family="sans-serif" font-size="14.00">dependencies</text>
<g id="clust1" class="cluster">
<title>cluster_StatusModule</title>
<polygon fill="none" stroke="black" stroke-dasharray="1,5" points="8,-32.8 8,-230.8 735,-230.8 735,-32.8 8,-32.8"/>
</g>
<g id="clust7" class="cluster">
<title>cluster_StatusModule_exports</title>
<polygon fill="none" stroke="black" points="183,-170.8 183,-222.8 474,-222.8 474,-170.8 183,-170.8"/>
</g>
<g id="clust2" class="cluster">
<title>cluster_StatusModule_declarations</title>
<polygon fill="none" stroke="black" points="258,-40.8 258,-92.8 727,-92.8 727,-40.8 258,-40.8"/>
</g>
<g id="clust6" class="cluster">
<title>cluster_StatusModule_imports</title>
<polygon fill="none" stroke="black" points="16,-40.8 16,-92.8 250,-92.8 250,-40.8 16,-40.8"/>
</g>
<!-- BootstateComponent -->
<g id="node1" class="node">
<title>BootstateComponent</title>
<polygon fill="#ffffb3" stroke="black" points="719.21,-84.8 584.79,-84.8 584.79,-48.8 719.21,-48.8 719.21,-84.8"/>
<text text-anchor="middle" x="652" y="-62.6" font-family="Times,serif" font-size="14.00">BootstateComponent</text>
</g>
<!-- StatusModule -->
<g id="node4" class="node">
<title>StatusModule</title>
<polygon fill="#8dd3c7" stroke="black" points="370.77,-149.8 367.77,-153.8 346.77,-153.8 343.77,-149.8 277.23,-149.8 277.23,-113.8 370.77,-113.8 370.77,-149.8"/>
<text text-anchor="middle" x="324" y="-127.6" font-family="Times,serif" font-size="14.00">StatusModule</text>
</g>
<!-- BootstateComponent&#45;&gt;StatusModule -->
<g id="edge1" class="edge">
<title>BootstateComponent&#45;&gt;StatusModule</title>
<path fill="none" stroke="black" d="M652,-85.08C652,-106.12 652,-137.8 652,-137.8 652,-137.8 380.99,-137.8 380.99,-137.8"/>
<polygon fill="black" stroke="black" points="380.99,-134.3 370.99,-137.8 380.99,-141.3 380.99,-134.3"/>
</g>
<!-- NoDaemonRunningDialog -->
<g id="node2" class="node">
<title>NoDaemonRunningDialog</title>
<polygon fill="#ffffb3" stroke="black" points="566.36,-84.8 399.64,-84.8 399.64,-48.8 566.36,-48.8 566.36,-84.8"/>
<text text-anchor="middle" x="483" y="-62.6" font-family="Times,serif" font-size="14.00">NoDaemonRunningDialog</text>
</g>
<!-- NoDaemonRunningDialog&#45;&gt;StatusModule -->
<g id="edge2" class="edge">
<title>NoDaemonRunningDialog&#45;&gt;StatusModule</title>
<path fill="none" stroke="black" d="M432.71,-84.82C432.71,-102.17 432.71,-125.8 432.71,-125.8 432.71,-125.8 381.05,-125.8 381.05,-125.8"/>
<polygon fill="black" stroke="black" points="381.05,-122.3 371.05,-125.8 381.05,-129.3 381.05,-122.3"/>
</g>
<!-- StatusComponent -->
<g id="node3" class="node">
<title>StatusComponent</title>
<polygon fill="#ffffb3" stroke="black" points="381.56,-84.8 266.44,-84.8 266.44,-48.8 381.56,-48.8 381.56,-84.8"/>
<text text-anchor="middle" x="324" y="-62.6" font-family="Times,serif" font-size="14.00">StatusComponent</text>
</g>
<!-- StatusComponent&#45;&gt;StatusModule -->
<g id="edge3" class="edge">
<title>StatusComponent&#45;&gt;StatusModule</title>
<path fill="none" stroke="black" d="M324,-84.91C324,-84.91 324,-103.79 324,-103.79"/>
<polygon fill="black" stroke="black" points="320.5,-103.79 324,-113.79 327.5,-103.79 320.5,-103.79"/>
</g>
<!-- BootstateComponent  -->
<g id="node7" class="node">
<title>BootstateComponent </title>
<polygon fill="#fb8072" stroke="black" points="465.71,-214.8 328.29,-214.8 328.29,-178.8 465.71,-178.8 465.71,-214.8"/>
<text text-anchor="middle" x="397" y="-192.6" font-family="Times,serif" font-size="14.00">BootstateComponent </text>
</g>
<!-- StatusModule&#45;&gt;BootstateComponent  -->
<g id="edge6" class="edge">
<title>StatusModule&#45;&gt;BootstateComponent </title>
<path fill="none" stroke="black" stroke-dasharray="5,2" d="M349.51,-149.91C349.51,-149.91 349.51,-168.79 349.51,-168.79"/>
<polygon fill="black" stroke="black" points="346.01,-168.79 349.51,-178.79 353.01,-168.79 346.01,-168.79"/>
</g>
<!-- StatusComponent  -->
<g id="node8" class="node">
<title>StatusComponent </title>
<polygon fill="#fb8072" stroke="black" points="310.56,-214.8 191.44,-214.8 191.44,-178.8 310.56,-178.8 310.56,-214.8"/>
<text text-anchor="middle" x="251" y="-192.6" font-family="Times,serif" font-size="14.00">StatusComponent </text>
</g>
<!-- StatusModule&#45;&gt;StatusComponent  -->
<g id="edge7" class="edge">
<title>StatusModule&#45;&gt;StatusComponent </title>
<path fill="none" stroke="black" stroke-dasharray="5,2" d="M293.82,-149.91C293.82,-149.91 293.82,-168.79 293.82,-168.79"/>
<polygon fill="black" stroke="black" points="290.32,-168.79 293.82,-178.79 297.32,-168.79 290.32,-168.79"/>
</g>
<!-- AuthModule -->
<g id="node5" class="node">
<title>AuthModule</title>
<polygon fill="#8dd3c7" stroke="black" points="241.55,-84.8 238.55,-88.8 217.55,-88.8 214.55,-84.8 154.45,-84.8 154.45,-48.8 241.55,-48.8 241.55,-84.8"/>
<text text-anchor="middle" x="198" y="-62.6" font-family="Times,serif" font-size="14.00">AuthModule</text>
</g>
<!-- AuthModule&#45;&gt;StatusModule -->
<g id="edge4" class="edge">
<title>AuthModule&#45;&gt;StatusModule</title>
<path fill="none" stroke="black" d="M216.62,-84.82C216.62,-102.17 216.62,-125.8 216.62,-125.8 216.62,-125.8 267.22,-125.8 267.22,-125.8"/>
<polygon fill="black" stroke="black" points="267.22,-129.3 277.22,-125.8 267.22,-122.3 267.22,-129.3"/>
</g>
<!-- TranslateModule -->
<g id="node6" class="node">
<title>TranslateModule</title>
<polygon fill="#8dd3c7" stroke="black" points="135.63,-84.8 132.63,-88.8 111.63,-88.8 108.63,-84.8 24.37,-84.8 24.37,-48.8 135.63,-48.8 135.63,-84.8"/>
<text text-anchor="middle" x="80" y="-62.6" font-family="Times,serif" font-size="14.00">TranslateModule</text>
</g>
<!-- TranslateModule&#45;&gt;StatusModule -->
<g id="edge5" class="edge">
<title>TranslateModule&#45;&gt;StatusModule</title>
<path fill="none" stroke="black" d="M80,-85.08C80,-106.12 80,-137.8 80,-137.8 80,-137.8 266.95,-137.8 266.95,-137.8"/>
<polygon fill="black" stroke="black" points="266.95,-141.3 276.95,-137.8 266.95,-134.3 266.95,-141.3"/>
</g>
</g>
</svg>
