<?xml version="1.0" encoding="UTF-8" standalone="no"?>
<!DOCTYPE svg PUBLIC "-//W3C//DTD SVG 1.1//EN"
 "http://www.w3.org/Graphics/SVG/1.1/DTD/svg11.dtd">
<!-- Generated by graphviz version 2.47.3 (20210619.1520)
 -->
<!-- Title: dependencies Pages: 1 -->
<svg width="356pt" height="247pt"
 viewBox="0.00 0.00 356.00 246.80" xmlns="http://www.w3.org/2000/svg" xmlns:xlink="http://www.w3.org/1999/xlink">
<g id="graph0" class="graph" transform="scale(1 1) rotate(0) translate(4 242.8)">
<title>dependencies</title>
<polygon fill="white" stroke="transparent" points="-4,4 -4,-242.8 352,-242.8 352,4 -4,4"/>
<text text-anchor="middle" x="174" y="-8.2" font-family="sans-serif" font-size="14.00">dependencies</text>
<g id="clust1" class="cluster">
<title>cluster_StatusModule</title>
<polygon fill="none" stroke="black" stroke-dasharray="1,5" points="8,-32.8 8,-230.8 340,-230.8 340,-32.8 8,-32.8"/>
</g>
<g id="clust2" class="cluster">
<title>cluster_StatusModule_declarations</title>
<polygon fill="none" stroke="black" points="16,-40.8 16,-92.8 332,-92.8 332,-40.8 16,-40.8"/>
</g>
<g id="clust6" class="cluster">
<title>cluster_StatusModule_exports</title>
<polygon fill="none" stroke="black" points="94,-170.8 94,-222.8 230,-222.8 230,-170.8 94,-170.8"/>
</g>
<!-- NoDaemonRunningDialog -->
<g id="node1" class="node">
<title>NoDaemonRunningDialog</title>
<polygon fill="#ffffb3" stroke="black" points="324.36,-84.8 157.64,-84.8 157.64,-48.8 324.36,-48.8 324.36,-84.8"/>
<text text-anchor="middle" x="241" y="-62.6" font-family="Times,serif" font-size="14.00">NoDaemonRunningDialog</text>
</g>
<!-- StatusModule -->
<g id="node3" class="node">
<title>StatusModule</title>
<polygon fill="#8dd3c7" stroke="black" points="208.77,-149.8 205.77,-153.8 184.77,-153.8 181.77,-149.8 115.23,-149.8 115.23,-113.8 208.77,-113.8 208.77,-149.8"/>
<text text-anchor="middle" x="162" y="-127.6" font-family="Times,serif" font-size="14.00">StatusModule</text>
</g>
<!-- NoDaemonRunningDialog&#45;&gt;StatusModule -->
<g id="edge1" class="edge">
<title>NoDaemonRunningDialog&#45;&gt;StatusModule</title>
<path fill="none" stroke="black" d="M183.23,-84.91C183.23,-84.91 183.23,-103.79 183.23,-103.79"/>
<polygon fill="black" stroke="black" points="179.73,-103.79 183.23,-113.79 186.73,-103.79 179.73,-103.79"/>
</g>
<!-- StatusComponent -->
<g id="node2" class="node">
<title>StatusComponent</title>
<polygon fill="#ffffb3" stroke="black" points="139.56,-84.8 24.44,-84.8 24.44,-48.8 139.56,-48.8 139.56,-84.8"/>
<text text-anchor="middle" x="82" y="-62.6" font-family="Times,serif" font-size="14.00">StatusComponent</text>
</g>
<!-- StatusComponent&#45;&gt;StatusModule -->
<g id="edge2" class="edge">
<title>StatusComponent&#45;&gt;StatusModule</title>
<path fill="none" stroke="black" d="M127.45,-84.91C127.45,-84.91 127.45,-103.79 127.45,-103.79"/>
<polygon fill="black" stroke="black" points="123.95,-103.79 127.45,-113.79 130.95,-103.79 123.95,-103.79"/>
</g>
<!-- StatusComponent  -->
<g id="node4" class="node">
<title>StatusComponent </title>
<polygon fill="#fb8072" stroke="black" points="221.56,-214.8 102.44,-214.8 102.44,-178.8 221.56,-178.8 221.56,-214.8"/>
<text text-anchor="middle" x="162" y="-192.6" font-family="Times,serif" font-size="14.00">StatusComponent </text>
</g>
<!-- StatusModule&#45;&gt;StatusComponent  -->
<g id="edge3" class="edge">
<title>StatusModule&#45;&gt;StatusComponent </title>
<path fill="none" stroke="black" stroke-dasharray="5,2" d="M162,-149.91C162,-149.91 162,-168.79 162,-168.79"/>
<polygon fill="black" stroke="black" points="158.5,-168.79 162,-178.79 165.5,-168.79 158.5,-168.79"/>
</g>
</g>
</svg>
