<?xml version="1.0" encoding="UTF-8" standalone="no"?>
<!DOCTYPE svg PUBLIC "-//W3C//DTD SVG 1.1//EN"
 "http://www.w3.org/Graphics/SVG/1.1/DTD/svg11.dtd">
<!-- Generated by graphviz version 2.47.3 (20210619.1520)
 -->
<!-- Title: dependencies Pages: 1 -->
<svg width="1018pt" height="247pt"
 viewBox="0.00 0.00 1018.00 246.80" xmlns="http://www.w3.org/2000/svg" xmlns:xlink="http://www.w3.org/1999/xlink">
<g id="graph0" class="graph" transform="scale(1 1) rotate(0) translate(4 242.8)">
<title>dependencies</title>
<polygon fill="white" stroke="transparent" points="-4,4 -4,-242.8 1014,-242.8 1014,4 -4,4"/>
<text text-anchor="middle" x="505" y="-8.2" font-family="sans-serif" font-size="14.00">dependencies</text>
<g id="clust1" class="cluster">
<title>cluster_PipesModule</title>
<polygon fill="none" stroke="black" stroke-dasharray="1,5" points="8,-32.8 8,-230.8 1002,-230.8 1002,-32.8 8,-32.8"/>
</g>
<g id="clust12" class="cluster">
<title>cluster_PipesModule_exports</title>
<polygon fill="none" stroke="black" points="16,-170.8 16,-222.8 994,-222.8 994,-170.8 16,-170.8"/>
</g>
<g id="clust2" class="cluster">
<title>cluster_PipesModule_declarations</title>
<polygon fill="none" stroke="black" points="32,-40.8 32,-92.8 984,-92.8 984,-40.8 32,-40.8"/>
</g>
<!-- EffortPipe -->
<g id="node1" class="node">
<title>EffortPipe</title>
<polygon fill="#ffffb3" stroke="black" points="976.31,-84.8 901.69,-84.8 901.69,-48.8 976.31,-48.8 976.31,-84.8"/>
<text text-anchor="middle" x="939" y="-62.6" font-family="Times,serif" font-size="14.00">EffortPipe</text>
</g>
<!-- PipesModule -->
<g id="node9" class="node">
<title>PipesModule</title>
<polygon fill="#8dd3c7" stroke="black" points="496.88,-149.8 493.88,-153.8 472.88,-153.8 469.88,-149.8 407.12,-149.8 407.12,-113.8 496.88,-113.8 496.88,-149.8"/>
<text text-anchor="middle" x="452" y="-127.6" font-family="Times,serif" font-size="14.00">PipesModule</text>
</g>
<!-- EffortPipe&#45;&gt;PipesModule -->
<g id="edge1" class="edge">
<title>EffortPipe&#45;&gt;PipesModule</title>
<path fill="none" stroke="black" d="M953.47,-85.02C953.47,-103.63 953.47,-129.8 953.47,-129.8 953.47,-129.8 506.94,-129.8 506.94,-129.8"/>
<polygon fill="black" stroke="black" points="506.94,-126.3 496.94,-129.8 506.94,-133.3 506.94,-126.3"/>
</g>
<!-- EscapeHtmlPipe -->
<g id="node2" class="node">
<title>EscapeHtmlPipe</title>
<polygon fill="#ffffb3" stroke="black" points="883.81,-84.8 774.19,-84.8 774.19,-48.8 883.81,-48.8 883.81,-84.8"/>
<text text-anchor="middle" x="829" y="-62.6" font-family="Times,serif" font-size="14.00">EscapeHtmlPipe</text>
</g>
<!-- EscapeHtmlPipe&#45;&gt;PipesModule -->
<g id="edge2" class="edge">
<title>EscapeHtmlPipe&#45;&gt;PipesModule</title>
<path fill="none" stroke="black" d="M848.3,-84.82C848.3,-102.17 848.3,-125.8 848.3,-125.8 848.3,-125.8 507.07,-125.8 507.07,-125.8"/>
<polygon fill="black" stroke="black" points="507.07,-122.3 497.07,-125.8 507.07,-129.3 507.07,-122.3"/>
</g>
<!-- HashLinkPipe -->
<g id="node3" class="node">
<title>HashLinkPipe</title>
<polygon fill="#ffffb3" stroke="black" points="756.1,-84.8 659.9,-84.8 659.9,-48.8 756.1,-48.8 756.1,-84.8"/>
<text text-anchor="middle" x="708" y="-62.6" font-family="Times,serif" font-size="14.00">HashLinkPipe</text>
</g>
<!-- HashLinkPipe&#45;&gt;PipesModule -->
<g id="edge3" class="edge">
<title>HashLinkPipe&#45;&gt;PipesModule</title>
<path fill="none" stroke="black" d="M724.1,-84.81C724.1,-100.85 724.1,-121.8 724.1,-121.8 724.1,-121.8 506.93,-121.8 506.93,-121.8"/>
<polygon fill="black" stroke="black" points="506.93,-118.3 496.93,-121.8 506.93,-125.3 506.93,-118.3"/>
</g>
<!-- HashRatePipe -->
<g id="node4" class="node">
<title>HashRatePipe</title>
<polygon fill="#ffffb3" stroke="black" points="641.81,-84.8 546.19,-84.8 546.19,-48.8 641.81,-48.8 641.81,-84.8"/>
<text text-anchor="middle" x="594" y="-62.6" font-family="Times,serif" font-size="14.00">HashRatePipe</text>
</g>
<!-- HashRatePipe&#45;&gt;PipesModule -->
<g id="edge4" class="edge">
<title>HashRatePipe&#45;&gt;PipesModule</title>
<path fill="none" stroke="black" d="M578.12,-84.92C578.12,-99.58 578.12,-117.8 578.12,-117.8 578.12,-117.8 507.17,-117.8 507.17,-117.8"/>
<polygon fill="black" stroke="black" points="507.17,-114.3 497.17,-117.8 507.17,-121.3 507.17,-114.3"/>
</g>
<!-- RemoveTrailingZerosPipe -->
<g id="node5" class="node">
<title>RemoveTrailingZerosPipe</title>
<polygon fill="#ffffb3" stroke="black" points="528.02,-84.8 363.98,-84.8 363.98,-48.8 528.02,-48.8 528.02,-84.8"/>
<text text-anchor="middle" x="446" y="-62.6" font-family="Times,serif" font-size="14.00">RemoveTrailingZerosPipe</text>
</g>
<!-- RemoveTrailingZerosPipe&#45;&gt;PipesModule -->
<g id="edge5" class="edge">
<title>RemoveTrailingZerosPipe&#45;&gt;PipesModule</title>
<path fill="none" stroke="black" d="M452,-84.91C452,-84.91 452,-103.79 452,-103.79"/>
<polygon fill="black" stroke="black" points="448.5,-103.79 452,-113.79 455.5,-103.79 448.5,-103.79"/>
</g>
<!-- ShruggiePipe -->
<g id="node6" class="node">
<title>ShruggiePipe</title>
<polygon fill="#ffffb3" stroke="black" points="345.94,-84.8 254.06,-84.8 254.06,-48.8 345.94,-48.8 345.94,-84.8"/>
<text text-anchor="middle" x="300" y="-62.6" font-family="Times,serif" font-size="14.00">ShruggiePipe</text>
</g>
<!-- ShruggiePipe&#45;&gt;PipesModule -->
<g id="edge6" class="edge">
<title>ShruggiePipe&#45;&gt;PipesModule</title>
<path fill="none" stroke="black" d="M311.74,-85.04C311.74,-100.37 311.74,-119.8 311.74,-119.8 311.74,-119.8 396.85,-119.8 396.85,-119.8"/>
<polygon fill="black" stroke="black" points="396.85,-123.3 406.85,-119.8 396.85,-116.3 396.85,-123.3"/>
</g>
<!-- TimeAgoPipe -->
<g id="node7" class="node">
<title>TimeAgoPipe</title>
<polygon fill="#ffffb3" stroke="black" points="236.04,-84.8 141.96,-84.8 141.96,-48.8 236.04,-48.8 236.04,-84.8"/>
<text text-anchor="middle" x="189" y="-62.6" font-family="Times,serif" font-size="14.00">TimeAgoPipe</text>
</g>
<!-- TimeAgoPipe&#45;&gt;PipesModule -->
<g id="edge7" class="edge">
<title>TimeAgoPipe&#45;&gt;PipesModule</title>
<path fill="none" stroke="black" d="M232.15,-84.83C232.15,-101.86 232.15,-124.8 232.15,-124.8 232.15,-124.8 396.98,-124.8 396.98,-124.8"/>
<polygon fill="black" stroke="black" points="396.98,-128.3 406.98,-124.8 396.98,-121.3 396.98,-128.3"/>
</g>
<!-- ToCoinPipe -->
<g id="node8" class="node">
<title>ToCoinPipe</title>
<polygon fill="#ffffb3" stroke="black" points="123.67,-84.8 40.33,-84.8 40.33,-48.8 123.67,-48.8 123.67,-84.8"/>
<text text-anchor="middle" x="82" y="-62.6" font-family="Times,serif" font-size="14.00">ToCoinPipe</text>
</g>
<!-- ToCoinPipe&#45;&gt;PipesModule -->
<g id="edge8" class="edge">
<title>ToCoinPipe&#45;&gt;PipesModule</title>
<path fill="none" stroke="black" d="M117.71,-85.02C117.71,-103.63 117.71,-129.8 117.71,-129.8 117.71,-129.8 396.92,-129.8 396.92,-129.8"/>
<polygon fill="black" stroke="black" points="396.92,-133.3 406.92,-129.8 396.92,-126.3 396.92,-133.3"/>
</g>
<!-- EffortPipe  -->
<g id="node10" class="node">
<title>EffortPipe </title>
<polygon fill="#fb8072" stroke="black" points="985.81,-214.8 908.19,-214.8 908.19,-178.8 985.81,-178.8 985.81,-214.8"/>
<text text-anchor="middle" x="947" y="-192.6" font-family="Times,serif" font-size="14.00">EffortPipe </text>
</g>
<!-- PipesModule&#45;&gt;EffortPipe  -->
<g id="edge9" class="edge">
<title>PipesModule&#45;&gt;EffortPipe </title>
<path fill="none" stroke="black" stroke-dasharray="5,2" d="M497.04,-133.8C616.23,-133.8 930.78,-133.8 930.78,-133.8 930.78,-133.8 930.78,-168.58 930.78,-168.58"/>
<polygon fill="black" stroke="black" points="927.28,-168.58 930.78,-178.58 934.28,-168.58 927.28,-168.58"/>
</g>
<!-- EscapeHtmlPipe  -->
<g id="node11" class="node">
<title>EscapeHtmlPipe </title>
<polygon fill="#fb8072" stroke="black" points="890.31,-214.8 777.69,-214.8 777.69,-178.8 890.31,-178.8 890.31,-214.8"/>
<text text-anchor="middle" x="834" y="-192.6" font-family="Times,serif" font-size="14.00">EscapeHtmlPipe </text>
</g>
<!-- PipesModule&#45;&gt;EscapeHtmlPipe  -->
<g id="edge10" class="edge">
<title>PipesModule&#45;&gt;EscapeHtmlPipe </title>
<path fill="none" stroke="black" stroke-dasharray="5,2" d="M496.98,-137.8C593.74,-137.8 812.95,-137.8 812.95,-137.8 812.95,-137.8 812.95,-168.78 812.95,-168.78"/>
<polygon fill="black" stroke="black" points="809.45,-168.78 812.95,-178.78 816.45,-168.78 809.45,-168.78"/>
</g>
<!-- HashLinkPipe  -->
<g id="node12" class="node">
<title>HashLinkPipe </title>
<polygon fill="#fb8072" stroke="black" points="759.6,-214.8 660.4,-214.8 660.4,-178.8 759.6,-178.8 759.6,-214.8"/>
<text text-anchor="middle" x="710" y="-192.6" font-family="Times,serif" font-size="14.00">HashLinkPipe </text>
</g>
<!-- PipesModule&#45;&gt;HashLinkPipe  -->
<g id="edge11" class="edge">
<title>PipesModule&#45;&gt;HashLinkPipe </title>
<path fill="none" stroke="black" stroke-dasharray="5,2" d="M496.89,-141.8C566.4,-141.8 692.15,-141.8 692.15,-141.8 692.15,-141.8 692.15,-168.79 692.15,-168.79"/>
<polygon fill="black" stroke="black" points="688.65,-168.79 692.15,-178.79 695.65,-168.79 688.65,-168.79"/>
</g>
<!-- HashRatePipe  -->
<g id="node13" class="node">
<title>HashRatePipe </title>
<polygon fill="#fb8072" stroke="black" points="642.31,-214.8 543.69,-214.8 543.69,-178.8 642.31,-178.8 642.31,-214.8"/>
<text text-anchor="middle" x="593" y="-192.6" font-family="Times,serif" font-size="14.00">HashRatePipe </text>
</g>
<!-- PipesModule&#45;&gt;HashRatePipe  -->
<g id="edge12" class="edge">
<title>PipesModule&#45;&gt;HashRatePipe </title>
<path fill="none" stroke="black" stroke-dasharray="5,2" d="M497.24,-145.8C543.9,-145.8 609.88,-145.8 609.88,-145.8 609.88,-145.8 609.88,-168.68 609.88,-168.68"/>
<polygon fill="black" stroke="black" points="606.39,-168.68 609.88,-178.68 613.39,-168.68 606.39,-168.68"/>
</g>
<!-- RemoveTrailingZerosPipe  -->
<g id="node14" class="node">
<title>RemoveTrailingZerosPipe </title>
<polygon fill="#fb8072" stroke="black" points="526.02,-214.8 357.98,-214.8 357.98,-178.8 526.02,-178.8 526.02,-214.8"/>
<text text-anchor="middle" x="442" y="-192.6" font-family="Times,serif" font-size="14.00">RemoveTrailingZerosPipe </text>
</g>
<!-- PipesModule&#45;&gt;RemoveTrailingZerosPipe  -->
<g id="edge13" class="edge">
<title>PipesModule&#45;&gt;RemoveTrailingZerosPipe </title>
<path fill="none" stroke="black" stroke-dasharray="5,2" d="M452,-149.91C452,-149.91 452,-168.79 452,-168.79"/>
<polygon fill="black" stroke="black" points="448.5,-168.79 452,-178.79 455.5,-168.79 448.5,-168.79"/>
</g>
<!-- ShruggiePipe  -->
<g id="node15" class="node">
<title>ShruggiePipe </title>
<polygon fill="#fb8072" stroke="black" points="340.44,-214.8 245.56,-214.8 245.56,-178.8 340.44,-178.8 340.44,-214.8"/>
<text text-anchor="middle" x="293" y="-192.6" font-family="Times,serif" font-size="14.00">ShruggiePipe </text>
</g>
<!-- PipesModule&#45;&gt;ShruggiePipe  -->
<g id="edge14" class="edge">
<title>PipesModule&#45;&gt;ShruggiePipe </title>
<path fill="none" stroke="black" stroke-dasharray="5,2" d="M406.71,-144.8C356.66,-144.8 283.01,-144.8 283.01,-144.8 283.01,-144.8 283.01,-168.61 283.01,-168.61"/>
<polygon fill="black" stroke="black" points="279.51,-168.61 283.01,-178.61 286.51,-168.61 279.51,-168.61"/>
</g>
<!-- TimeAgoPipe  -->
<g id="node16" class="node">
<title>TimeAgoPipe </title>
<polygon fill="#fb8072" stroke="black" points="228.04,-214.8 129.96,-214.8 129.96,-178.8 228.04,-178.8 228.04,-214.8"/>
<text text-anchor="middle" x="179" y="-192.6" font-family="Times,serif" font-size="14.00">TimeAgoPipe </text>
</g>
<!-- PipesModule&#45;&gt;TimeAgoPipe  -->
<g id="edge15" class="edge">
<title>PipesModule&#45;&gt;TimeAgoPipe </title>
<path fill="none" stroke="black" stroke-dasharray="5,2" d="M406.99,-139.8C330.86,-139.8 184.88,-139.8 184.88,-139.8 184.88,-139.8 184.88,-168.76 184.88,-168.76"/>
<polygon fill="black" stroke="black" points="181.38,-168.76 184.88,-178.76 188.38,-168.76 181.38,-168.76"/>
</g>
<!-- ToCoinPipe  -->
<g id="node17" class="node">
<title>ToCoinPipe </title>
<polygon fill="#fb8072" stroke="black" points="111.67,-214.8 24.33,-214.8 24.33,-178.8 111.67,-178.8 111.67,-214.8"/>
<text text-anchor="middle" x="68" y="-192.6" font-family="Times,serif" font-size="14.00">ToCoinPipe </text>
</g>
<!-- PipesModule&#45;&gt;ToCoinPipe  -->
<g id="edge16" class="edge">
<title>PipesModule&#45;&gt;ToCoinPipe </title>
<path fill="none" stroke="black" stroke-dasharray="5,2" d="M407,-134.8C307.17,-134.8 75.88,-134.8 75.88,-134.8 75.88,-134.8 75.88,-168.53 75.88,-168.53"/>
<polygon fill="black" stroke="black" points="72.38,-168.53 75.88,-178.53 79.38,-168.53 72.38,-168.53"/>
</g>
</g>
</svg>
