<?xml version="1.0" encoding="UTF-8" standalone="no"?>
<!DOCTYPE svg PUBLIC "-//W3C//DTD SVG 1.1//EN"
 "http://www.w3.org/Graphics/SVG/1.1/DTD/svg11.dtd">
<!-- Generated by graphviz version 2.47.3 (20210619.1520)
 -->
<!-- Title: dependencies Pages: 1 -->
<svg width="1138pt" height="247pt"
 viewBox="0.00 0.00 1138.00 246.80" xmlns="http://www.w3.org/2000/svg" xmlns:xlink="http://www.w3.org/1999/xlink">
<g id="graph0" class="graph" transform="scale(1 1) rotate(0) translate(4 242.8)">
<title>dependencies</title>
<polygon fill="white" stroke="transparent" points="-4,4 -4,-242.8 1134,-242.8 1134,4 -4,4"/>
<text text-anchor="middle" x="565" y="-8.2" font-family="sans-serif" font-size="14.00">dependencies</text>
<g id="clust1" class="cluster">
<title>cluster_PipesModule</title>
<polygon fill="none" stroke="black" stroke-dasharray="1,5" points="8,-32.8 8,-230.8 1122,-230.8 1122,-32.8 8,-32.8"/>
</g>
<g id="clust13" class="cluster">
<title>cluster_PipesModule_exports</title>
<polygon fill="none" stroke="black" points="16,-170.8 16,-222.8 1114,-222.8 1114,-170.8 16,-170.8"/>
</g>
<g id="clust2" class="cluster">
<title>cluster_PipesModule_declarations</title>
<polygon fill="none" stroke="black" points="31,-40.8 31,-92.8 1099,-92.8 1099,-40.8 31,-40.8"/>
</g>
<!-- EffortPipe -->
<g id="node1" class="node">
<title>EffortPipe</title>
<polygon fill="#ffffb3" stroke="black" points="1091.31,-84.8 1016.69,-84.8 1016.69,-48.8 1091.31,-48.8 1091.31,-84.8"/>
<text text-anchor="middle" x="1054" y="-62.6" font-family="Times,serif" font-size="14.00">EffortPipe</text>
</g>
<!-- PipesModule -->
<g id="node10" class="node">
<title>PipesModule</title>
<polygon fill="#8dd3c7" stroke="black" points="637.88,-149.8 634.88,-153.8 613.88,-153.8 610.88,-149.8 548.12,-149.8 548.12,-113.8 637.88,-113.8 637.88,-149.8"/>
<text text-anchor="middle" x="593" y="-127.6" font-family="Times,serif" font-size="14.00">PipesModule</text>
</g>
<!-- EffortPipe&#45;&gt;PipesModule -->
<g id="edge1" class="edge">
<title>EffortPipe&#45;&gt;PipesModule</title>
<path fill="none" stroke="black" d="M1022.47,-85.02C1022.47,-103.63 1022.47,-129.8 1022.47,-129.8 1022.47,-129.8 648.15,-129.8 648.15,-129.8"/>
<polygon fill="black" stroke="black" points="648.15,-126.3 638.15,-129.8 648.15,-133.3 648.15,-126.3"/>
</g>
<!-- EscapeHtmlPipe -->
<g id="node2" class="node">
<title>EscapeHtmlPipe</title>
<polygon fill="#ffffb3" stroke="black" points="998.81,-84.8 889.19,-84.8 889.19,-48.8 998.81,-48.8 998.81,-84.8"/>
<text text-anchor="middle" x="944" y="-62.6" font-family="Times,serif" font-size="14.00">EscapeHtmlPipe</text>
</g>
<!-- EscapeHtmlPipe&#45;&gt;PipesModule -->
<g id="edge2" class="edge">
<title>EscapeHtmlPipe&#45;&gt;PipesModule</title>
<path fill="none" stroke="black" d="M893.47,-84.82C893.47,-102.17 893.47,-125.8 893.47,-125.8 893.47,-125.8 647.98,-125.8 647.98,-125.8"/>
<polygon fill="black" stroke="black" points="647.98,-122.3 637.98,-125.8 647.98,-129.3 647.98,-122.3"/>
</g>
<!-- FromCoinPipe -->
<g id="node3" class="node">
<title>FromCoinPipe</title>
<polygon fill="#ffffb3" stroke="black" points="871.45,-84.8 772.55,-84.8 772.55,-48.8 871.45,-48.8 871.45,-84.8"/>
<text text-anchor="middle" x="822" y="-62.6" font-family="Times,serif" font-size="14.00">FromCoinPipe</text>
</g>
<!-- FromCoinPipe&#45;&gt;PipesModule -->
<g id="edge3" class="edge">
<title>FromCoinPipe&#45;&gt;PipesModule</title>
<path fill="none" stroke="black" d="M840.16,-84.81C840.16,-100.85 840.16,-121.8 840.16,-121.8 840.16,-121.8 648.05,-121.8 648.05,-121.8"/>
<polygon fill="black" stroke="black" points="648.05,-118.3 638.05,-121.8 648.05,-125.3 648.05,-118.3"/>
</g>
<!-- HashLinkPipe -->
<g id="node4" class="node">
<title>HashLinkPipe</title>
<polygon fill="#ffffb3" stroke="black" points="755.1,-84.8 658.9,-84.8 658.9,-48.8 755.1,-48.8 755.1,-84.8"/>
<text text-anchor="middle" x="707" y="-62.6" font-family="Times,serif" font-size="14.00">HashLinkPipe</text>
</g>
<!-- HashLinkPipe&#45;&gt;PipesModule -->
<g id="edge4" class="edge">
<title>HashLinkPipe&#45;&gt;PipesModule</title>
<path fill="none" stroke="black" d="M723.43,-84.92C723.43,-99.58 723.43,-117.8 723.43,-117.8 723.43,-117.8 647.89,-117.8 647.89,-117.8"/>
<polygon fill="black" stroke="black" points="647.89,-114.3 637.89,-117.8 647.89,-121.3 647.89,-114.3"/>
</g>
<!-- HashRatePipe -->
<g id="node5" class="node">
<title>HashRatePipe</title>
<polygon fill="#ffffb3" stroke="black" points="640.81,-84.8 545.19,-84.8 545.19,-48.8 640.81,-48.8 640.81,-84.8"/>
<text text-anchor="middle" x="593" y="-62.6" font-family="Times,serif" font-size="14.00">HashRatePipe</text>
</g>
<!-- HashRatePipe&#45;&gt;PipesModule -->
<g id="edge5" class="edge">
<title>HashRatePipe&#45;&gt;PipesModule</title>
<path fill="none" stroke="black" d="M593,-84.91C593,-84.91 593,-103.79 593,-103.79"/>
<polygon fill="black" stroke="black" points="589.5,-103.79 593,-113.79 596.5,-103.79 589.5,-103.79"/>
</g>
<!-- RemoveTrailingZerosPipe -->
<g id="node6" class="node">
<title>RemoveTrailingZerosPipe</title>
<polygon fill="#ffffb3" stroke="black" points="527.02,-84.8 362.98,-84.8 362.98,-48.8 527.02,-48.8 527.02,-84.8"/>
<text text-anchor="middle" x="445" y="-62.6" font-family="Times,serif" font-size="14.00">RemoveTrailingZerosPipe</text>
</g>
<!-- RemoveTrailingZerosPipe&#45;&gt;PipesModule -->
<g id="edge6" class="edge">
<title>RemoveTrailingZerosPipe&#45;&gt;PipesModule</title>
<path fill="none" stroke="black" d="M471.59,-84.92C471.59,-99.58 471.59,-117.8 471.59,-117.8 471.59,-117.8 537.79,-117.8 537.79,-117.8"/>
<polygon fill="black" stroke="black" points="537.79,-121.3 547.79,-117.8 537.79,-114.3 537.79,-121.3"/>
</g>
<!-- ShruggiePipe -->
<g id="node7" class="node">
<title>ShruggiePipe</title>
<polygon fill="#ffffb3" stroke="black" points="344.94,-84.8 253.06,-84.8 253.06,-48.8 344.94,-48.8 344.94,-84.8"/>
<text text-anchor="middle" x="299" y="-62.6" font-family="Times,serif" font-size="14.00">ShruggiePipe</text>
</g>
<!-- ShruggiePipe&#45;&gt;PipesModule -->
<g id="edge7" class="edge">
<title>ShruggiePipe&#45;&gt;PipesModule</title>
<path fill="none" stroke="black" d="M311.41,-84.81C311.41,-100.85 311.41,-121.8 311.41,-121.8 311.41,-121.8 538.07,-121.8 538.07,-121.8"/>
<polygon fill="black" stroke="black" points="538.07,-125.3 548.07,-121.8 538.07,-118.3 538.07,-125.3"/>
</g>
<!-- TimeAgoPipe -->
<g id="node8" class="node">
<title>TimeAgoPipe</title>
<polygon fill="#ffffb3" stroke="black" points="235.04,-84.8 140.96,-84.8 140.96,-48.8 235.04,-48.8 235.04,-84.8"/>
<text text-anchor="middle" x="188" y="-62.6" font-family="Times,serif" font-size="14.00">TimeAgoPipe</text>
</g>
<!-- TimeAgoPipe&#45;&gt;PipesModule -->
<g id="edge8" class="edge">
<title>TimeAgoPipe&#45;&gt;PipesModule</title>
<path fill="none" stroke="black" d="M231.65,-84.82C231.65,-102.17 231.65,-125.8 231.65,-125.8 231.65,-125.8 537.96,-125.8 537.96,-125.8"/>
<polygon fill="black" stroke="black" points="537.96,-129.3 547.96,-125.8 537.96,-122.3 537.96,-129.3"/>
</g>
<!-- ToCoinPipe -->
<g id="node9" class="node">
<title>ToCoinPipe</title>
<polygon fill="#ffffb3" stroke="black" points="122.67,-84.8 39.33,-84.8 39.33,-48.8 122.67,-48.8 122.67,-84.8"/>
<text text-anchor="middle" x="81" y="-62.6" font-family="Times,serif" font-size="14.00">ToCoinPipe</text>
</g>
<!-- ToCoinPipe&#45;&gt;PipesModule -->
<g id="edge9" class="edge">
<title>ToCoinPipe&#45;&gt;PipesModule</title>
<path fill="none" stroke="black" d="M117.21,-85.02C117.21,-103.63 117.21,-129.8 117.21,-129.8 117.21,-129.8 537.81,-129.8 537.81,-129.8"/>
<polygon fill="black" stroke="black" points="537.81,-133.3 547.81,-129.8 537.81,-126.3 537.81,-133.3"/>
</g>
<!-- EffortPipe  -->
<g id="node11" class="node">
<title>EffortPipe </title>
<polygon fill="#fb8072" stroke="black" points="1105.81,-214.8 1028.19,-214.8 1028.19,-178.8 1105.81,-178.8 1105.81,-214.8"/>
<text text-anchor="middle" x="1067" y="-192.6" font-family="Times,serif" font-size="14.00">EffortPipe </text>
</g>
<!-- PipesModule&#45;&gt;EffortPipe  -->
<g id="edge10" class="edge">
<title>PipesModule&#45;&gt;EffortPipe </title>
<path fill="none" stroke="black" stroke-dasharray="5,2" d="M638.17,-133.8C755.27,-133.8 1059.62,-133.8 1059.62,-133.8 1059.62,-133.8 1059.62,-168.58 1059.62,-168.58"/>
<polygon fill="black" stroke="black" points="1056.13,-168.58 1059.62,-178.58 1063.13,-168.58 1056.13,-168.58"/>
</g>
<!-- EscapeHtmlPipe  -->
<g id="node12" class="node">
<title>EscapeHtmlPipe </title>
<polygon fill="#fb8072" stroke="black" points="1010.31,-214.8 897.69,-214.8 897.69,-178.8 1010.31,-178.8 1010.31,-214.8"/>
<text text-anchor="middle" x="954" y="-192.6" font-family="Times,serif" font-size="14.00">EscapeHtmlPipe </text>
</g>
<!-- PipesModule&#45;&gt;EscapeHtmlPipe  -->
<g id="edge11" class="edge">
<title>PipesModule&#45;&gt;EscapeHtmlPipe </title>
<path fill="none" stroke="black" stroke-dasharray="5,2" d="M637.98,-137.8C733.54,-137.8 948.12,-137.8 948.12,-137.8 948.12,-137.8 948.12,-168.78 948.12,-168.78"/>
<polygon fill="black" stroke="black" points="944.63,-168.78 948.12,-178.78 951.63,-168.78 944.63,-168.78"/>
</g>
<!-- FromCoinPipe  -->
<g id="node13" class="node">
<title>FromCoinPipe </title>
<polygon fill="#fb8072" stroke="black" points="879.95,-214.8 778.05,-214.8 778.05,-178.8 879.95,-178.8 879.95,-214.8"/>
<text text-anchor="middle" x="829" y="-192.6" font-family="Times,serif" font-size="14.00">FromCoinPipe </text>
</g>
<!-- PipesModule&#45;&gt;FromCoinPipe  -->
<g id="edge12" class="edge">
<title>PipesModule&#45;&gt;FromCoinPipe </title>
<path fill="none" stroke="black" stroke-dasharray="5,2" d="M638.04,-141.8C701.37,-141.8 809.09,-141.8 809.09,-141.8 809.09,-141.8 809.09,-168.79 809.09,-168.79"/>
<polygon fill="black" stroke="black" points="805.59,-168.79 809.09,-178.79 812.59,-168.79 805.59,-168.79"/>
</g>
<!-- HashLinkPipe  -->
<g id="node14" class="node">
<title>HashLinkPipe </title>
<polygon fill="#fb8072" stroke="black" points="759.6,-214.8 660.4,-214.8 660.4,-178.8 759.6,-178.8 759.6,-214.8"/>
<text text-anchor="middle" x="710" y="-192.6" font-family="Times,serif" font-size="14.00">HashLinkPipe </text>
</g>
<!-- PipesModule&#45;&gt;HashLinkPipe  -->
<g id="edge13" class="edge">
<title>PipesModule&#45;&gt;HashLinkPipe </title>
<path fill="none" stroke="black" stroke-dasharray="5,2" d="M638.07,-145.8C664.13,-145.8 691.82,-145.8 691.82,-145.8 691.82,-145.8 691.82,-168.68 691.82,-168.68"/>
<polygon fill="black" stroke="black" points="688.32,-168.68 691.82,-178.68 695.32,-168.68 688.32,-168.68"/>
</g>
<!-- HashRatePipe  -->
<g id="node15" class="node">
<title>HashRatePipe </title>
<polygon fill="#fb8072" stroke="black" points="642.31,-214.8 543.69,-214.8 543.69,-178.8 642.31,-178.8 642.31,-214.8"/>
<text text-anchor="middle" x="593" y="-192.6" font-family="Times,serif" font-size="14.00">HashRatePipe </text>
</g>
<!-- PipesModule&#45;&gt;HashRatePipe  -->
<g id="edge14" class="edge">
<title>PipesModule&#45;&gt;HashRatePipe </title>
<path fill="none" stroke="black" stroke-dasharray="5,2" d="M593,-149.91C593,-149.91 593,-168.79 593,-168.79"/>
<polygon fill="black" stroke="black" points="589.5,-168.79 593,-178.79 596.5,-168.79 589.5,-168.79"/>
</g>
<!-- RemoveTrailingZerosPipe  -->
<g id="node16" class="node">
<title>RemoveTrailingZerosPipe </title>
<polygon fill="#fb8072" stroke="black" points="526.02,-214.8 357.98,-214.8 357.98,-178.8 526.02,-178.8 526.02,-214.8"/>
<text text-anchor="middle" x="442" y="-192.6" font-family="Times,serif" font-size="14.00">RemoveTrailingZerosPipe </text>
</g>
<!-- PipesModule&#45;&gt;RemoveTrailingZerosPipe  -->
<g id="edge15" class="edge">
<title>PipesModule&#45;&gt;RemoveTrailingZerosPipe </title>
<path fill="none" stroke="black" stroke-dasharray="5,2" d="M547.72,-145.8C495.62,-145.8 417.16,-145.8 417.16,-145.8 417.16,-145.8 417.16,-168.68 417.16,-168.68"/>
<polygon fill="black" stroke="black" points="413.66,-168.68 417.16,-178.68 420.66,-168.68 413.66,-168.68"/>
</g>
<!-- ShruggiePipe  -->
<g id="node17" class="node">
<title>ShruggiePipe </title>
<polygon fill="#fb8072" stroke="black" points="340.44,-214.8 245.56,-214.8 245.56,-178.8 340.44,-178.8 340.44,-214.8"/>
<text text-anchor="middle" x="293" y="-192.6" font-family="Times,serif" font-size="14.00">ShruggiePipe </text>
</g>
<!-- PipesModule&#45;&gt;ShruggiePipe  -->
<g id="edge16" class="edge">
<title>PipesModule&#45;&gt;ShruggiePipe </title>
<path fill="none" stroke="black" stroke-dasharray="5,2" d="M547.83,-141.8C461.67,-141.8 282.34,-141.8 282.34,-141.8 282.34,-141.8 282.34,-168.79 282.34,-168.79"/>
<polygon fill="black" stroke="black" points="278.84,-168.79 282.34,-178.79 285.84,-168.79 278.84,-168.79"/>
</g>
<!-- TimeAgoPipe  -->
<g id="node18" class="node">
<title>TimeAgoPipe </title>
<polygon fill="#fb8072" stroke="black" points="228.04,-214.8 129.96,-214.8 129.96,-178.8 228.04,-178.8 228.04,-214.8"/>
<text text-anchor="middle" x="179" y="-192.6" font-family="Times,serif" font-size="14.00">TimeAgoPipe </text>
</g>
<!-- PipesModule&#45;&gt;TimeAgoPipe  -->
<g id="edge17" class="edge">
<title>PipesModule&#45;&gt;TimeAgoPipe </title>
<path fill="none" stroke="black" stroke-dasharray="5,2" d="M548.1,-137.8C441.95,-137.8 184.38,-137.8 184.38,-137.8 184.38,-137.8 184.38,-168.78 184.38,-168.78"/>
<polygon fill="black" stroke="black" points="180.88,-168.78 184.38,-178.78 187.88,-168.78 180.88,-168.78"/>
</g>
<!-- ToCoinPipe  -->
<g id="node19" class="node">
<title>ToCoinPipe </title>
<polygon fill="#fb8072" stroke="black" points="111.67,-214.8 24.33,-214.8 24.33,-178.8 111.67,-178.8 111.67,-214.8"/>
<text text-anchor="middle" x="68" y="-192.6" font-family="Times,serif" font-size="14.00">ToCoinPipe </text>
</g>
<!-- PipesModule&#45;&gt;ToCoinPipe  -->
<g id="edge18" class="edge">
<title>PipesModule&#45;&gt;ToCoinPipe </title>
<path fill="none" stroke="black" stroke-dasharray="5,2" d="M547.97,-133.8C422.03,-133.8 75.38,-133.8 75.38,-133.8 75.38,-133.8 75.38,-168.58 75.38,-168.58"/>
<polygon fill="black" stroke="black" points="71.88,-168.58 75.38,-178.58 78.88,-168.58 71.88,-168.58"/>
</g>
</g>
</svg>
