<?xml version="1.0" encoding="UTF-8" standalone="no"?>
<!DOCTYPE svg PUBLIC "-//W3C//DTD SVG 1.1//EN"
 "http://www.w3.org/Graphics/SVG/1.1/DTD/svg11.dtd">
<!-- Generated by graphviz version 2.47.3 (20210619.1520)
 -->
<!-- Title: dependencies Pages: 1 -->
<svg width="306pt" height="174pt"
 viewBox="0.00 0.00 306.00 173.80" xmlns="http://www.w3.org/2000/svg" xmlns:xlink="http://www.w3.org/1999/xlink">
<g id="graph0" class="graph" transform="scale(1 1) rotate(0) translate(4 169.8)">
<title>dependencies</title>
<polygon fill="white" stroke="transparent" points="-4,4 -4,-169.8 302,-169.8 302,4 -4,4"/>
<text text-anchor="middle" x="149" y="-8.2" font-family="sans-serif" font-size="14.00">dependencies</text>
<g id="clust1" class="cluster">
<title>cluster_AuthModule</title>
<polygon fill="none" stroke="black" stroke-dasharray="1,5" points="8,-32.8 8,-157.8 290,-157.8 290,-32.8 8,-32.8"/>
</g>
<g id="clust2" class="cluster">
<title>cluster_AuthModule_declarations</title>
<polygon fill="none" stroke="black" points="152,-40.8 152,-92.8 282,-92.8 282,-40.8 152,-40.8"/>
</g>
<g id="clust4" class="cluster">
<title>cluster_AuthModule_imports</title>
<polygon fill="none" stroke="black" points="16,-40.8 16,-92.8 144,-92.8 144,-40.8 16,-40.8"/>
</g>
<!-- LoginComponent -->
<g id="node1" class="node">
<title>LoginComponent</title>
<polygon fill="#ffffb3" stroke="black" points="274.28,-84.8 159.72,-84.8 159.72,-48.8 274.28,-48.8 274.28,-84.8"/>
<text text-anchor="middle" x="217" y="-62.6" font-family="Times,serif" font-size="14.00">LoginComponent</text>
</g>
<!-- AuthModule -->
<g id="node2" class="node">
<title>AuthModule</title>
<polygon fill="#8dd3c7" stroke="black" points="191.55,-149.8 188.55,-153.8 167.55,-153.8 164.55,-149.8 104.45,-149.8 104.45,-113.8 191.55,-113.8 191.55,-149.8"/>
<text text-anchor="middle" x="148" y="-127.6" font-family="Times,serif" font-size="14.00">AuthModule</text>
</g>
<!-- LoginComponent&#45;&gt;AuthModule -->
<g id="edge1" class="edge">
<title>LoginComponent&#45;&gt;AuthModule</title>
<path fill="none" stroke="black" d="M175.69,-84.91C175.69,-84.91 175.69,-103.79 175.69,-103.79"/>
<polygon fill="black" stroke="black" points="172.19,-103.79 175.69,-113.79 179.19,-103.79 172.19,-103.79"/>
</g>
<!-- TranslateModule -->
<g id="node3" class="node">
<title>TranslateModule</title>
<polygon fill="#8dd3c7" stroke="black" points="135.63,-84.8 132.63,-88.8 111.63,-88.8 108.63,-84.8 24.37,-84.8 24.37,-48.8 135.63,-48.8 135.63,-84.8"/>
<text text-anchor="middle" x="80" y="-62.6" font-family="Times,serif" font-size="14.00">TranslateModule</text>
</g>
<!-- TranslateModule&#45;&gt;AuthModule -->
<g id="edge2" class="edge">
<title>TranslateModule&#45;&gt;AuthModule</title>
<path fill="none" stroke="black" d="M120.02,-84.91C120.02,-84.91 120.02,-103.79 120.02,-103.79"/>
<polygon fill="black" stroke="black" points="116.52,-103.79 120.02,-113.79 123.52,-103.79 116.52,-103.79"/>
</g>
</g>
</svg>
