<?xml version="1.0" encoding="UTF-8" standalone="no"?>
<!DOCTYPE svg PUBLIC "-//W3C//DTD SVG 1.1//EN"
 "http://www.w3.org/Graphics/SVG/1.1/DTD/svg11.dtd">
<!-- Generated by graphviz version 2.47.3 (20210619.1520)
 -->
<!-- Title: dependencies Pages: 1 -->
<svg width="538pt" height="174pt"
 viewBox="0.00 0.00 538.00 173.80" xmlns="http://www.w3.org/2000/svg" xmlns:xlink="http://www.w3.org/1999/xlink">
<g id="graph0" class="graph" transform="scale(1 1) rotate(0) translate(4 169.8)">
<title>dependencies</title>
<polygon fill="white" stroke="transparent" points="-4,4 -4,-169.8 534,-169.8 534,4 -4,4"/>
<text text-anchor="middle" x="265" y="-8.2" font-family="sans-serif" font-size="14.00">dependencies</text>
<g id="clust1" class="cluster">
<title>cluster_RootModule</title>
<polygon fill="none" stroke="black" stroke-dasharray="1,5" points="8,-32.8 8,-157.8 522,-157.8 522,-32.8 8,-32.8"/>
</g>
<g id="clust4" class="cluster">
<title>cluster_RootModule_imports</title>
<polygon fill="none" stroke="black" points="148,-40.8 148,-92.8 514,-92.8 514,-40.8 148,-40.8"/>
</g>
<g id="clust2" class="cluster">
<title>cluster_RootModule_declarations</title>
<polygon fill="none" stroke="black" points="16,-40.8 16,-92.8 140,-92.8 140,-40.8 16,-40.8"/>
</g>
<!-- RootComponent -->
<g id="node1" class="node">
<title>RootComponent</title>
<polygon fill="#ffffb3" stroke="black" points="132.06,-84.8 23.94,-84.8 23.94,-48.8 132.06,-48.8 132.06,-84.8"/>
<text text-anchor="middle" x="78" y="-62.6" font-family="Times,serif" font-size="14.00">RootComponent</text>
</g>
<!-- RootModule -->
<g id="node2" class="node">
<title>RootModule</title>
<polygon fill="#8dd3c7" stroke="black" points="308.28,-149.8 305.28,-153.8 284.28,-153.8 281.28,-149.8 221.72,-149.8 221.72,-113.8 308.28,-113.8 308.28,-149.8"/>
<text text-anchor="middle" x="265" y="-127.6" font-family="Times,serif" font-size="14.00">RootModule</text>
</g>
<!-- RootComponent&#45;&gt;RootModule -->
<g id="edge1" class="edge">
<title>RootComponent&#45;&gt;RootModule</title>
<path fill="none" stroke="black" d="M78,-84.91C78,-104.14 78,-131.8 78,-131.8 78,-131.8 211.63,-131.8 211.63,-131.8"/>
<polygon fill="black" stroke="black" points="211.63,-135.3 221.63,-131.8 211.63,-128.3 211.63,-135.3"/>
</g>
<!-- ConsoleModule -->
<g id="node3" class="node">
<title>ConsoleModule</title>
<polygon fill="#8dd3c7" stroke="black" points="505.94,-84.8 502.94,-88.8 481.94,-88.8 478.94,-84.8 400.06,-84.8 400.06,-48.8 505.94,-48.8 505.94,-84.8"/>
<text text-anchor="middle" x="453" y="-62.6" font-family="Times,serif" font-size="14.00">ConsoleModule</text>
</g>
<!-- ConsoleModule&#45;&gt;RootModule -->
<g id="edge2" class="edge">
<title>ConsoleModule&#45;&gt;RootModule</title>
<path fill="none" stroke="black" d="M453,-84.91C453,-104.14 453,-131.8 453,-131.8 453,-131.8 318.6,-131.8 318.6,-131.8"/>
<polygon fill="black" stroke="black" points="318.6,-128.3 308.6,-131.8 318.6,-135.3 318.6,-128.3"/>
</g>
<!-- TranslateModule -->
<g id="node4" class="node">
<title>TranslateModule</title>
<polygon fill="#8dd3c7" stroke="black" points="381.63,-84.8 378.63,-88.8 357.63,-88.8 354.63,-84.8 270.37,-84.8 270.37,-48.8 381.63,-48.8 381.63,-84.8"/>
<text text-anchor="middle" x="326" y="-62.6" font-family="Times,serif" font-size="14.00">TranslateModule</text>
</g>
<!-- TranslateModule&#45;&gt;RootModule -->
<g id="edge3" class="edge">
<title>TranslateModule&#45;&gt;RootModule</title>
<path fill="none" stroke="black" d="M289.29,-84.91C289.29,-84.91 289.29,-103.79 289.29,-103.79"/>
<polygon fill="black" stroke="black" points="285.79,-103.79 289.29,-113.79 292.79,-103.79 285.79,-103.79"/>
</g>
<!-- WalletModule -->
<g id="node5" class="node">
<title>WalletModule</title>
<polygon fill="#8dd3c7" stroke="black" points="252.37,-84.8 249.37,-88.8 228.37,-88.8 225.37,-84.8 155.63,-84.8 155.63,-48.8 252.37,-48.8 252.37,-84.8"/>
<text text-anchor="middle" x="204" y="-62.6" font-family="Times,serif" font-size="14.00">WalletModule</text>
</g>
<!-- WalletModule&#45;&gt;RootModule -->
<g id="edge4" class="edge">
<title>WalletModule&#45;&gt;RootModule</title>
<path fill="none" stroke="black" d="M237.02,-84.91C237.02,-84.91 237.02,-103.79 237.02,-103.79"/>
<polygon fill="black" stroke="black" points="233.52,-103.79 237.02,-113.79 240.52,-103.79 233.52,-103.79"/>
</g>
</g>
</svg>
