<?xml version="1.0" encoding="UTF-8" standalone="no"?>
<!DOCTYPE svg PUBLIC "-//W3C//DTD SVG 1.1//EN"
 "http://www.w3.org/Graphics/SVG/1.1/DTD/svg11.dtd">
<!-- Generated by graphviz version 2.47.3 (20210619.1520)
 -->
<!-- Title: dependencies Pages: 1 -->
<svg width="769pt" height="174pt"
 viewBox="0.00 0.00 769.00 173.80" xmlns="http://www.w3.org/2000/svg" xmlns:xlink="http://www.w3.org/1999/xlink">
<g id="graph0" class="graph" transform="scale(1 1) rotate(0) translate(4 169.8)">
<title>dependencies</title>
<polygon fill="white" stroke="transparent" points="-4,4 -4,-169.8 765,-169.8 765,4 -4,4"/>
<text text-anchor="middle" x="380.5" y="-8.2" font-family="sans-serif" font-size="14.00">dependencies</text>
<g id="clust1" class="cluster">
<title>cluster_RootModule</title>
<polygon fill="none" stroke="black" stroke-dasharray="1,5" points="8,-32.8 8,-157.8 753,-157.8 753,-32.8 8,-32.8"/>
</g>
<g id="clust4" class="cluster">
<title>cluster_RootModule_imports</title>
<polygon fill="none" stroke="black" points="148,-40.8 148,-92.8 745,-92.8 745,-40.8 148,-40.8"/>
</g>
<g id="clust2" class="cluster">
<title>cluster_RootModule_declarations</title>
<polygon fill="none" stroke="black" points="16,-40.8 16,-92.8 140,-92.8 140,-40.8 16,-40.8"/>
</g>
<!-- RootComponent -->
<g id="node1" class="node">
<title>RootComponent</title>
<polygon fill="#ffffb3" stroke="black" points="132.06,-84.8 23.94,-84.8 23.94,-48.8 132.06,-48.8 132.06,-84.8"/>
<text text-anchor="middle" x="78" y="-62.6" font-family="Times,serif" font-size="14.00">RootComponent</text>
</g>
<!-- RootModule -->
<g id="node2" class="node">
<title>RootModule</title>
<polygon fill="#8dd3c7" stroke="black" points="429.28,-149.8 426.28,-153.8 405.28,-153.8 402.28,-149.8 342.72,-149.8 342.72,-113.8 429.28,-113.8 429.28,-149.8"/>
<text text-anchor="middle" x="386" y="-127.6" font-family="Times,serif" font-size="14.00">RootModule</text>
</g>
<!-- RootComponent&#45;&gt;RootModule -->
<g id="edge1" class="edge">
<title>RootComponent&#45;&gt;RootModule</title>
<path fill="none" stroke="black" d="M78,-85.08C78,-106.12 78,-137.8 78,-137.8 78,-137.8 332.52,-137.8 332.52,-137.8"/>
<polygon fill="black" stroke="black" points="332.52,-141.3 342.52,-137.8 332.52,-134.3 332.52,-141.3"/>
</g>
<!-- BlockchainModule -->
<g id="node3" class="node">
<title>BlockchainModule</title>
<polygon fill="#8dd3c7" stroke="black" points="736.81,-84.8 733.81,-88.8 712.81,-88.8 709.81,-84.8 613.19,-84.8 613.19,-48.8 736.81,-48.8 736.81,-84.8"/>
<text text-anchor="middle" x="675" y="-62.6" font-family="Times,serif" font-size="14.00">BlockchainModule</text>
</g>
<!-- BlockchainModule&#45;&gt;RootModule -->
<g id="edge2" class="edge">
<title>BlockchainModule&#45;&gt;RootModule</title>
<path fill="none" stroke="black" d="M675,-85.08C675,-106.12 675,-137.8 675,-137.8 675,-137.8 439.58,-137.8 439.58,-137.8"/>
<polygon fill="black" stroke="black" points="439.58,-134.3 429.58,-137.8 439.58,-141.3 439.58,-134.3"/>
</g>
<!-- PostModule -->
<g id="node4" class="node">
<title>PostModule</title>
<polygon fill="#8dd3c7" stroke="black" points="595.67,-84.8 592.67,-88.8 571.67,-88.8 568.67,-84.8 512.33,-84.8 512.33,-48.8 595.67,-48.8 595.67,-84.8"/>
<text text-anchor="middle" x="554" y="-62.6" font-family="Times,serif" font-size="14.00">PostModule</text>
</g>
<!-- PostModule&#45;&gt;RootModule -->
<g id="edge3" class="edge">
<title>PostModule&#45;&gt;RootModule</title>
<path fill="none" stroke="black" d="M554,-84.82C554,-102.17 554,-125.8 554,-125.8 554,-125.8 439.7,-125.8 439.7,-125.8"/>
<polygon fill="black" stroke="black" points="439.7,-122.3 429.7,-125.8 439.7,-129.3 439.7,-122.3"/>
</g>
<!-- SpartaModule -->
<g id="node5" class="node">
<title>SpartaModule</title>
<polygon fill="#8dd3c7" stroke="black" points="494.81,-84.8 491.81,-88.8 470.81,-88.8 467.81,-84.8 399.19,-84.8 399.19,-48.8 494.81,-48.8 494.81,-84.8"/>
<text text-anchor="middle" x="447" y="-62.6" font-family="Times,serif" font-size="14.00">SpartaModule</text>
</g>
<!-- SpartaModule&#45;&gt;RootModule -->
<g id="edge4" class="edge">
<title>SpartaModule&#45;&gt;RootModule</title>
<path fill="none" stroke="black" d="M414.37,-84.91C414.37,-84.91 414.37,-103.79 414.37,-103.79"/>
<polygon fill="black" stroke="black" points="410.87,-103.79 414.37,-113.79 417.87,-103.79 410.87,-103.79"/>
</g>
<!-- TranslateModule -->
<g id="node6" class="node">
<title>TranslateModule</title>
<polygon fill="#8dd3c7" stroke="black" points="381.63,-84.8 378.63,-88.8 357.63,-88.8 354.63,-84.8 270.37,-84.8 270.37,-48.8 381.63,-48.8 381.63,-84.8"/>
<text text-anchor="middle" x="326" y="-62.6" font-family="Times,serif" font-size="14.00">TranslateModule</text>
</g>
<!-- TranslateModule&#45;&gt;RootModule -->
<g id="edge5" class="edge">
<title>TranslateModule&#45;&gt;RootModule</title>
<path fill="none" stroke="black" d="M362.21,-84.91C362.21,-84.91 362.21,-103.79 362.21,-103.79"/>
<polygon fill="black" stroke="black" points="358.71,-103.79 362.21,-113.79 365.71,-103.79 358.71,-103.79"/>
</g>
<!-- WalletModule -->
<g id="node7" class="node">
<title>WalletModule</title>
<polygon fill="#8dd3c7" stroke="black" points="252.37,-84.8 249.37,-88.8 228.37,-88.8 225.37,-84.8 155.63,-84.8 155.63,-48.8 252.37,-48.8 252.37,-84.8"/>
<text text-anchor="middle" x="204" y="-62.6" font-family="Times,serif" font-size="14.00">WalletModule</text>
</g>
<!-- WalletModule&#45;&gt;RootModule -->
<g id="edge6" class="edge">
<title>WalletModule&#45;&gt;RootModule</title>
<path fill="none" stroke="black" d="M204,-84.82C204,-102.17 204,-125.8 204,-125.8 204,-125.8 332.41,-125.8 332.41,-125.8"/>
<polygon fill="black" stroke="black" points="332.41,-129.3 342.41,-125.8 332.41,-122.3 332.41,-129.3"/>
</g>
</g>
</svg>
