<?xml version="1.0" encoding="UTF-8" standalone="no"?>
<!DOCTYPE svg PUBLIC "-//W3C//DTD SVG 1.1//EN"
 "http://www.w3.org/Graphics/SVG/1.1/DTD/svg11.dtd">
<!-- Generated by graphviz version 2.47.3 (20210619.1520)
 -->
<!-- Title: dependencies Pages: 1 -->
<svg width="334pt" height="247pt"
 viewBox="0.00 0.00 334.00 246.80" xmlns="http://www.w3.org/2000/svg" xmlns:xlink="http://www.w3.org/1999/xlink">
<g id="graph0" class="graph" transform="scale(1 1) rotate(0) translate(4 242.8)">
<title>dependencies</title>
<polygon fill="white" stroke="transparent" points="-4,4 -4,-242.8 330,-242.8 330,4 -4,4"/>
<text text-anchor="middle" x="163" y="-8.2" font-family="sans-serif" font-size="14.00">dependencies</text>
<g id="clust1" class="cluster">
<title>cluster_ConsoleModule</title>
<polygon fill="none" stroke="black" stroke-dasharray="1,5" points="8,-32.8 8,-230.8 318,-230.8 318,-32.8 8,-32.8"/>
</g>
<g id="clust2" class="cluster">
<title>cluster_ConsoleModule_declarations</title>
<polygon fill="none" stroke="black" points="16,-40.8 16,-92.8 310,-92.8 310,-40.8 16,-40.8"/>
</g>
<g id="clust6" class="cluster">
<title>cluster_ConsoleModule_exports</title>
<polygon fill="none" stroke="black" points="90,-170.8 90,-222.8 236,-222.8 236,-170.8 90,-170.8"/>
</g>
<!-- ConsoleComponent -->
<g id="node1" class="node">
<title>ConsoleComponent</title>
<polygon fill="#ffffb3" stroke="black" points="301.72,-84.8 174.28,-84.8 174.28,-48.8 301.72,-48.8 301.72,-84.8"/>
<text text-anchor="middle" x="238" y="-62.6" font-family="Times,serif" font-size="14.00">ConsoleComponent</text>
</g>
<!-- ConsoleModule -->
<g id="node3" class="node">
<title>ConsoleModule</title>
<polygon fill="#8dd3c7" stroke="black" points="215.94,-149.8 212.94,-153.8 191.94,-153.8 188.94,-149.8 110.06,-149.8 110.06,-113.8 215.94,-113.8 215.94,-149.8"/>
<text text-anchor="middle" x="163" y="-127.6" font-family="Times,serif" font-size="14.00">ConsoleModule</text>
</g>
<!-- ConsoleComponent&#45;&gt;ConsoleModule -->
<g id="edge1" class="edge">
<title>ConsoleComponent&#45;&gt;ConsoleModule</title>
<path fill="none" stroke="black" d="M195.05,-84.91C195.05,-84.91 195.05,-103.79 195.05,-103.79"/>
<polygon fill="black" stroke="black" points="191.55,-103.79 195.05,-113.79 198.55,-103.79 191.55,-103.79"/>
</g>
<!-- TerminalComponent -->
<g id="node2" class="node">
<title>TerminalComponent</title>
<polygon fill="#ffffb3" stroke="black" points="156.15,-84.8 23.85,-84.8 23.85,-48.8 156.15,-48.8 156.15,-84.8"/>
<text text-anchor="middle" x="90" y="-62.6" font-family="Times,serif" font-size="14.00">TerminalComponent</text>
</g>
<!-- TerminalComponent&#45;&gt;ConsoleModule -->
<g id="edge2" class="edge">
<title>TerminalComponent&#45;&gt;ConsoleModule</title>
<path fill="none" stroke="black" d="M133.3,-84.91C133.3,-84.91 133.3,-103.79 133.3,-103.79"/>
<polygon fill="black" stroke="black" points="129.8,-103.79 133.3,-113.79 136.8,-103.79 129.8,-103.79"/>
</g>
<!-- ConsoleComponent  -->
<g id="node4" class="node">
<title>ConsoleComponent </title>
<polygon fill="#fb8072" stroke="black" points="228.22,-214.8 97.78,-214.8 97.78,-178.8 228.22,-178.8 228.22,-214.8"/>
<text text-anchor="middle" x="163" y="-192.6" font-family="Times,serif" font-size="14.00">ConsoleComponent </text>
</g>
<!-- ConsoleModule&#45;&gt;ConsoleComponent  -->
<g id="edge3" class="edge">
<title>ConsoleModule&#45;&gt;ConsoleComponent </title>
<path fill="none" stroke="black" stroke-dasharray="5,2" d="M163,-149.91C163,-149.91 163,-168.79 163,-168.79"/>
<polygon fill="black" stroke="black" points="159.5,-168.79 163,-178.79 166.5,-168.79 159.5,-168.79"/>
</g>
</g>
</svg>
